%TF.GenerationSoftware,KiCad,Pcbnew,7.0.9*%
%TF.CreationDate,2024-07-19T10:23:14+02:00*%
%TF.ProjectId,signal_sniffer,7369676e-616c-45f7-936e-69666665722e,rev?*%
%TF.SameCoordinates,Original*%
%TF.FileFunction,Soldermask,Bot*%
%TF.FilePolarity,Negative*%
%FSLAX46Y46*%
G04 Gerber Fmt 4.6, Leading zero omitted, Abs format (unit mm)*
G04 Created by KiCad (PCBNEW 7.0.9) date 2024-07-19 10:23:14*
%MOMM*%
%LPD*%
G01*
G04 APERTURE LIST*
%ADD10C,3.800000*%
%ADD11C,1.397000*%
%ADD12R,1.700000X1.700000*%
%ADD13O,1.700000X1.700000*%
%ADD14C,3.000000*%
G04 APERTURE END LIST*
D10*
%TO.C,H8*%
X193300000Y-80000000D03*
%TD*%
%TO.C,H1*%
X136100000Y-62500000D03*
%TD*%
%TO.C,H6*%
X136100000Y-50000000D03*
%TD*%
D11*
%TO.C,J19*%
X105250000Y-66746486D03*
X103980000Y-65476486D03*
X103980000Y-68016486D03*
X106520000Y-68016486D03*
X106520000Y-65476486D03*
%TD*%
%TO.C,J9*%
X90680000Y-51840000D03*
X89410000Y-50570000D03*
X89410000Y-53110000D03*
X91950000Y-53110000D03*
X91950000Y-50570000D03*
%TD*%
%TO.C,J14*%
X90670000Y-63840000D03*
X89400000Y-62570000D03*
X89400000Y-65110000D03*
X91940000Y-65110000D03*
X91940000Y-62570000D03*
%TD*%
D10*
%TO.C,H4*%
X193300000Y-92500000D03*
%TD*%
%TO.C,H9*%
X210300000Y-71800000D03*
%TD*%
D12*
%TO.C,J8*%
X86050000Y-47630000D03*
D13*
X86050000Y-50170000D03*
%TD*%
D12*
%TO.C,J15*%
X86040000Y-62245000D03*
D13*
X86040000Y-59705000D03*
%TD*%
D10*
%TO.C,H3*%
X136100000Y-80000000D03*
%TD*%
%TO.C,H2*%
X136100000Y-92500000D03*
%TD*%
%TO.C,H7*%
X193300000Y-50000000D03*
%TD*%
D12*
%TO.C,J5*%
X101280000Y-47900000D03*
D13*
X101280000Y-50440000D03*
%TD*%
D11*
%TO.C,J7*%
X90680000Y-45870000D03*
X89410000Y-44600000D03*
X89410000Y-47140000D03*
X91950000Y-47140000D03*
X91950000Y-44600000D03*
%TD*%
D12*
%TO.C,J11*%
X89440000Y-99580000D03*
D13*
X86900000Y-99580000D03*
X89440000Y-97040000D03*
X86900000Y-97040000D03*
X89440000Y-94500000D03*
X86900000Y-94500000D03*
X89440000Y-91960000D03*
X86900000Y-91960000D03*
X89440000Y-89420000D03*
X86900000Y-89420000D03*
X89440000Y-86880000D03*
X86900000Y-86880000D03*
X89440000Y-84340000D03*
X86900000Y-84340000D03*
X89440000Y-81800000D03*
X86900000Y-81800000D03*
X89440000Y-79260000D03*
X86900000Y-79260000D03*
X89440000Y-76720000D03*
X86900000Y-76720000D03*
X89440000Y-74180000D03*
X86900000Y-74180000D03*
X89440000Y-71640000D03*
X86900000Y-71640000D03*
X89440000Y-69100000D03*
X86900000Y-69100000D03*
%TD*%
D12*
%TO.C,J18*%
X101150000Y-62346486D03*
D13*
X101150000Y-64886486D03*
%TD*%
D11*
%TO.C,J16*%
X90670000Y-57870000D03*
X89400000Y-56600000D03*
X89400000Y-59140000D03*
X91940000Y-59140000D03*
X91940000Y-56600000D03*
%TD*%
%TO.C,J6*%
X105380000Y-52270000D03*
X106650000Y-51000000D03*
X104110000Y-51000000D03*
X104110000Y-53540000D03*
X106650000Y-53540000D03*
%TD*%
D14*
%TO.C,J10*%
X103700000Y-77100000D03*
%TD*%
%TO.C,J20*%
X111500000Y-77100000D03*
%TD*%
D12*
%TO.C,J13*%
X143560000Y-73275000D03*
D13*
X143560000Y-70735000D03*
X146100000Y-73275000D03*
X146100000Y-70735000D03*
X148640000Y-73275000D03*
X148640000Y-70735000D03*
%TD*%
D10*
%TO.C,H10*%
X120300000Y-71800000D03*
%TD*%
D11*
%TO.C,J4*%
X105380000Y-45830000D03*
X106650000Y-44560000D03*
X104110000Y-44560000D03*
X104110000Y-47100000D03*
X106650000Y-47100000D03*
%TD*%
D10*
%TO.C,H5*%
X193300000Y-62500000D03*
%TD*%
D11*
%TO.C,J17*%
X105280000Y-60246486D03*
X104010000Y-58976486D03*
X104010000Y-61516486D03*
X106550000Y-61516486D03*
X106550000Y-58976486D03*
%TD*%
D12*
%TO.C,J2*%
X192040000Y-43600000D03*
D13*
X189500000Y-43600000D03*
X186960000Y-43600000D03*
X184420000Y-43600000D03*
X181880000Y-43600000D03*
X179340000Y-43600000D03*
X176800000Y-43600000D03*
%TD*%
D12*
%TO.C,J12*%
X210300000Y-81800000D03*
D13*
X210300000Y-84340000D03*
X210300000Y-86880000D03*
X210300000Y-89420000D03*
X210300000Y-91960000D03*
X210300000Y-94500000D03*
X210300000Y-97040000D03*
X210300000Y-99580000D03*
%TD*%
D12*
%TO.C,J3*%
X121200000Y-50800000D03*
D13*
X123740000Y-50800000D03*
X126280000Y-50800000D03*
%TD*%
D12*
%TO.C,J23*%
X192040000Y-73600000D03*
D13*
X189500000Y-73600000D03*
X186960000Y-73600000D03*
X184420000Y-73600000D03*
X181880000Y-73600000D03*
X179340000Y-73600000D03*
X176800000Y-73600000D03*
%TD*%
D12*
%TO.C,J1*%
X179800000Y-69800000D03*
D13*
X177260000Y-69800000D03*
X174720000Y-69800000D03*
X172180000Y-69800000D03*
X169640000Y-69800000D03*
X167100000Y-69800000D03*
X164560000Y-69800000D03*
X162020000Y-69800000D03*
%TD*%
D12*
%TO.C,J21*%
X121220000Y-80800000D03*
D13*
X123760000Y-80800000D03*
X126300000Y-80800000D03*
%TD*%
D12*
%TO.C,J22*%
X179800000Y-99800000D03*
D13*
X177260000Y-99800000D03*
X174720000Y-99800000D03*
X172180000Y-99800000D03*
X169640000Y-99800000D03*
X167100000Y-99800000D03*
X164560000Y-99800000D03*
X162020000Y-99800000D03*
%TD*%
M02*
