%TF.GenerationSoftware,KiCad,Pcbnew,7.0.9*%
%TF.CreationDate,2024-07-19T10:23:14+02:00*%
%TF.ProjectId,signal_sniffer,7369676e-616c-45f7-936e-69666665722e,rev?*%
%TF.SameCoordinates,Original*%
%TF.FileFunction,Copper,L1,Top*%
%TF.FilePolarity,Positive*%
%FSLAX46Y46*%
G04 Gerber Fmt 4.6, Leading zero omitted, Abs format (unit mm)*
G04 Created by KiCad (PCBNEW 7.0.9) date 2024-07-19 10:23:14*
%MOMM*%
%LPD*%
G01*
G04 APERTURE LIST*
G04 Aperture macros list*
%AMRoundRect*
0 Rectangle with rounded corners*
0 $1 Rounding radius*
0 $2 $3 $4 $5 $6 $7 $8 $9 X,Y pos of 4 corners*
0 Add a 4 corners polygon primitive as box body*
4,1,4,$2,$3,$4,$5,$6,$7,$8,$9,$2,$3,0*
0 Add four circle primitives for the rounded corners*
1,1,$1+$1,$2,$3*
1,1,$1+$1,$4,$5*
1,1,$1+$1,$6,$7*
1,1,$1+$1,$8,$9*
0 Add four rect primitives between the rounded corners*
20,1,$1+$1,$2,$3,$4,$5,0*
20,1,$1+$1,$4,$5,$6,$7,0*
20,1,$1+$1,$6,$7,$8,$9,0*
20,1,$1+$1,$8,$9,$2,$3,0*%
G04 Aperture macros list end*
%TA.AperFunction,ComponentPad*%
%ADD10C,3.800000*%
%TD*%
%TA.AperFunction,SMDPad,CuDef*%
%ADD11RoundRect,0.200000X0.275000X-0.200000X0.275000X0.200000X-0.275000X0.200000X-0.275000X-0.200000X0*%
%TD*%
%TA.AperFunction,ComponentPad*%
%ADD12C,1.397000*%
%TD*%
%TA.AperFunction,ComponentPad*%
%ADD13R,1.700000X1.700000*%
%TD*%
%TA.AperFunction,ComponentPad*%
%ADD14O,1.700000X1.700000*%
%TD*%
%TA.AperFunction,ComponentPad*%
%ADD15C,3.000000*%
%TD*%
%TA.AperFunction,ViaPad*%
%ADD16C,1.300000*%
%TD*%
%TA.AperFunction,Conductor*%
%ADD17C,0.254000*%
%TD*%
%TA.AperFunction,Conductor*%
%ADD18C,0.300000*%
%TD*%
G04 APERTURE END LIST*
D10*
%TO.P,H8,1*%
%TO.N,N/C*%
X193300000Y-80000000D03*
%TD*%
%TO.P,H1,1*%
%TO.N,N/C*%
X136100000Y-62500000D03*
%TD*%
%TO.P,H6,1*%
%TO.N,N/C*%
X136100000Y-50000000D03*
%TD*%
D11*
%TO.P,R4,1*%
%TO.N,GND*%
X108450000Y-65896486D03*
%TO.P,R4,2*%
%TO.N,/TO_INT_2_P*%
X108450000Y-64246486D03*
%TD*%
D12*
%TO.P,J19,1,Pin_1*%
%TO.N,/TO_INT_2_P*%
X105250000Y-66746486D03*
%TO.P,J19,2,Pin_2*%
%TO.N,GND*%
X103980000Y-65476486D03*
%TO.P,J19,3,Pin_3*%
X103980000Y-68016486D03*
%TO.P,J19,4,Pin_4*%
X106520000Y-68016486D03*
%TO.P,J19,5,Pin_5*%
X106520000Y-65476486D03*
%TD*%
%TO.P,J9,1,Pin_1*%
%TO.N,/CFD_OUT_1_N*%
X90680000Y-51840000D03*
%TO.P,J9,2,Pin_2*%
%TO.N,GND*%
X89410000Y-50570000D03*
%TO.P,J9,3,Pin_3*%
X89410000Y-53110000D03*
%TO.P,J9,4,Pin_4*%
X91950000Y-53110000D03*
%TO.P,J9,5,Pin_5*%
X91950000Y-50570000D03*
%TD*%
%TO.P,J14,1,Pin_1*%
%TO.N,/CFD_OUT_2_P*%
X90670000Y-63840000D03*
%TO.P,J14,2,Pin_2*%
%TO.N,GND*%
X89400000Y-62570000D03*
%TO.P,J14,3,Pin_3*%
X89400000Y-65110000D03*
%TO.P,J14,4,Pin_4*%
X91940000Y-65110000D03*
%TO.P,J14,5,Pin_5*%
X91940000Y-62570000D03*
%TD*%
D10*
%TO.P,H4,1*%
%TO.N,N/C*%
X193300000Y-92500000D03*
%TD*%
%TO.P,H9,1*%
%TO.N,N/C*%
X210300000Y-71800000D03*
%TD*%
D13*
%TO.P,J8,1,Pin_1*%
%TO.N,/CFD_OUT_1_P*%
X86050000Y-47630000D03*
D14*
%TO.P,J8,2,Pin_2*%
%TO.N,/CFD_OUT_1_N*%
X86050000Y-50170000D03*
%TD*%
D13*
%TO.P,J15,1,Pin_1*%
%TO.N,/CFD_OUT_2_P*%
X86040000Y-62245000D03*
D14*
%TO.P,J15,2,Pin_2*%
%TO.N,/CFD_OUT_2_N*%
X86040000Y-59705000D03*
%TD*%
D10*
%TO.P,H3,1*%
%TO.N,N/C*%
X136100000Y-80000000D03*
%TD*%
D11*
%TO.P,R2,1*%
%TO.N,GND*%
X108420000Y-51450000D03*
%TO.P,R2,2*%
%TO.N,/TO_INT_1_P*%
X108420000Y-49800000D03*
%TD*%
D10*
%TO.P,H2,1*%
%TO.N,N/C*%
X136100000Y-92500000D03*
%TD*%
%TO.P,H7,1*%
%TO.N,N/C*%
X193300000Y-50000000D03*
%TD*%
D13*
%TO.P,J5,1,Pin_1*%
%TO.N,/TO_INT_1_N*%
X101280000Y-47900000D03*
D14*
%TO.P,J5,2,Pin_2*%
%TO.N,/TO_INT_1_P*%
X101280000Y-50440000D03*
%TD*%
D12*
%TO.P,J7,1,Pin_1*%
%TO.N,/CFD_OUT_1_P*%
X90680000Y-45870000D03*
%TO.P,J7,2,Pin_2*%
%TO.N,GND*%
X89410000Y-44600000D03*
%TO.P,J7,3,Pin_3*%
X89410000Y-47140000D03*
%TO.P,J7,4,Pin_4*%
X91950000Y-47140000D03*
%TO.P,J7,5,Pin_5*%
X91950000Y-44600000D03*
%TD*%
D13*
%TO.P,J11,1,Pin_1*%
%TO.N,/1*%
X89440000Y-99580000D03*
D14*
%TO.P,J11,2,Pin_2*%
%TO.N,/2*%
X86900000Y-99580000D03*
%TO.P,J11,3,Pin_3*%
%TO.N,/3*%
X89440000Y-97040000D03*
%TO.P,J11,4,Pin_4*%
%TO.N,/4*%
X86900000Y-97040000D03*
%TO.P,J11,5,Pin_5*%
%TO.N,/5*%
X89440000Y-94500000D03*
%TO.P,J11,6,Pin_6*%
%TO.N,/6*%
X86900000Y-94500000D03*
%TO.P,J11,7,Pin_7*%
%TO.N,/7*%
X89440000Y-91960000D03*
%TO.P,J11,8,Pin_8*%
%TO.N,/8*%
X86900000Y-91960000D03*
%TO.P,J11,9,Pin_9*%
%TO.N,/9*%
X89440000Y-89420000D03*
%TO.P,J11,10,Pin_10*%
%TO.N,/10*%
X86900000Y-89420000D03*
%TO.P,J11,11,Pin_11*%
%TO.N,/11*%
X89440000Y-86880000D03*
%TO.P,J11,12,Pin_12*%
%TO.N,/12*%
X86900000Y-86880000D03*
%TO.P,J11,13,Pin_13*%
%TO.N,/13*%
X89440000Y-84340000D03*
%TO.P,J11,14,Pin_14*%
%TO.N,/14*%
X86900000Y-84340000D03*
%TO.P,J11,15,Pin_15*%
%TO.N,/15*%
X89440000Y-81800000D03*
%TO.P,J11,16,Pin_16*%
%TO.N,/16*%
X86900000Y-81800000D03*
%TO.P,J11,17,Pin_17*%
%TO.N,/17*%
X89440000Y-79260000D03*
%TO.P,J11,18,Pin_18*%
%TO.N,/18*%
X86900000Y-79260000D03*
%TO.P,J11,19,Pin_19*%
%TO.N,/19*%
X89440000Y-76720000D03*
%TO.P,J11,20,Pin_20*%
%TO.N,/20*%
X86900000Y-76720000D03*
%TO.P,J11,21,Pin_21*%
%TO.N,/21*%
X89440000Y-74180000D03*
%TO.P,J11,22,Pin_22*%
%TO.N,/22*%
X86900000Y-74180000D03*
%TO.P,J11,23,Pin_23*%
%TO.N,/23*%
X89440000Y-71640000D03*
%TO.P,J11,24,Pin_24*%
%TO.N,/24*%
X86900000Y-71640000D03*
%TO.P,J11,25,Pin_25*%
%TO.N,GND*%
X89440000Y-69100000D03*
%TO.P,J11,26,Pin_26*%
X86900000Y-69100000D03*
%TD*%
D13*
%TO.P,J18,1,Pin_1*%
%TO.N,/TO_INT_2_N*%
X101150000Y-62346486D03*
D14*
%TO.P,J18,2,Pin_2*%
%TO.N,/TO_INT_2_P*%
X101150000Y-64886486D03*
%TD*%
D12*
%TO.P,J16,1,Pin_1*%
%TO.N,/CFD_OUT_2_N*%
X90670000Y-57870000D03*
%TO.P,J16,2,Pin_2*%
%TO.N,GND*%
X89400000Y-56600000D03*
%TO.P,J16,3,Pin_3*%
X89400000Y-59140000D03*
%TO.P,J16,4,Pin_4*%
X91940000Y-59140000D03*
%TO.P,J16,5,Pin_5*%
X91940000Y-56600000D03*
%TD*%
%TO.P,J6,1,Pin_1*%
%TO.N,/TO_INT_1_P*%
X105380000Y-52270000D03*
%TO.P,J6,2,Pin_2*%
%TO.N,GND*%
X106650000Y-51000000D03*
%TO.P,J6,3,Pin_3*%
X104110000Y-51000000D03*
%TO.P,J6,4,Pin_4*%
X104110000Y-53540000D03*
%TO.P,J6,5,Pin_5*%
X106650000Y-53540000D03*
%TD*%
D15*
%TO.P,J10,1,Pin_1*%
%TO.N,GND*%
X103700000Y-77100000D03*
%TD*%
%TO.P,J20,1,Pin_1*%
%TO.N,GND*%
X111500000Y-77100000D03*
%TD*%
D11*
%TO.P,R3,1*%
%TO.N,/TO_INT_2_N*%
X108450000Y-62846486D03*
%TO.P,R3,2*%
%TO.N,GND*%
X108450000Y-61196486D03*
%TD*%
D13*
%TO.P,J13,1,Pin_1*%
%TO.N,/19*%
X143560000Y-73275000D03*
D14*
%TO.P,J13,2,Pin_2*%
%TO.N,/20*%
X143560000Y-70735000D03*
%TO.P,J13,3,Pin_3*%
%TO.N,/17*%
X146100000Y-73275000D03*
%TO.P,J13,4,Pin_4*%
%TO.N,/18*%
X146100000Y-70735000D03*
%TO.P,J13,5,Pin_5*%
%TO.N,/15*%
X148640000Y-73275000D03*
%TO.P,J13,6,Pin_6*%
%TO.N,/16*%
X148640000Y-70735000D03*
%TD*%
D10*
%TO.P,H10,1*%
%TO.N,N/C*%
X120300000Y-71800000D03*
%TD*%
D11*
%TO.P,R1,1*%
%TO.N,/TO_INT_1_N*%
X108420000Y-48400000D03*
%TO.P,R1,2*%
%TO.N,GND*%
X108420000Y-46750000D03*
%TD*%
D12*
%TO.P,J4,1,Pin_1*%
%TO.N,/TO_INT_1_N*%
X105380000Y-45830000D03*
%TO.P,J4,2,Pin_2*%
%TO.N,GND*%
X106650000Y-44560000D03*
%TO.P,J4,3,Pin_3*%
X104110000Y-44560000D03*
%TO.P,J4,4,Pin_4*%
X104110000Y-47100000D03*
%TO.P,J4,5,Pin_5*%
X106650000Y-47100000D03*
%TD*%
D10*
%TO.P,H5,1*%
%TO.N,N/C*%
X193300000Y-62500000D03*
%TD*%
D12*
%TO.P,J17,1,Pin_1*%
%TO.N,/TO_INT_2_N*%
X105280000Y-60246486D03*
%TO.P,J17,2,Pin_2*%
%TO.N,GND*%
X104010000Y-58976486D03*
%TO.P,J17,3,Pin_3*%
X104010000Y-61516486D03*
%TO.P,J17,4,Pin_4*%
X106550000Y-61516486D03*
%TO.P,J17,5,Pin_5*%
X106550000Y-58976486D03*
%TD*%
D13*
%TO.P,J2,1,Pin_1*%
%TO.N,GND*%
X192040000Y-43600000D03*
D14*
%TO.P,J2,2,Pin_2*%
%TO.N,/24*%
X189500000Y-43600000D03*
%TO.P,J2,3,Pin_3*%
X186960000Y-43600000D03*
%TO.P,J2,4,Pin_4*%
%TO.N,/CFD_OUT_1_N*%
X184420000Y-43600000D03*
%TO.P,J2,5,Pin_5*%
%TO.N,/CFD_OUT_1_P*%
X181880000Y-43600000D03*
%TO.P,J2,6,Pin_6*%
%TO.N,GND*%
X179340000Y-43600000D03*
%TO.P,J2,7,Pin_7*%
%TO.N,/22*%
X176800000Y-43600000D03*
%TD*%
D13*
%TO.P,J12,1,Pin_1*%
%TO.N,unconnected-(J12-Pin_1-Pad1)*%
X210300000Y-81800000D03*
D14*
%TO.P,J12,2,Pin_2*%
%TO.N,unconnected-(J12-Pin_2-Pad2)*%
X210300000Y-84340000D03*
%TO.P,J12,3,Pin_3*%
%TO.N,unconnected-(J12-Pin_3-Pad3)*%
X210300000Y-86880000D03*
%TO.P,J12,4,Pin_4*%
%TO.N,unconnected-(J12-Pin_4-Pad4)*%
X210300000Y-89420000D03*
%TO.P,J12,5,Pin_5*%
%TO.N,unconnected-(J12-Pin_5-Pad5)*%
X210300000Y-91960000D03*
%TO.P,J12,6,Pin_6*%
%TO.N,unconnected-(J12-Pin_6-Pad6)*%
X210300000Y-94500000D03*
%TO.P,J12,7,Pin_7*%
%TO.N,unconnected-(J12-Pin_7-Pad7)*%
X210300000Y-97040000D03*
%TO.P,J12,8,Pin_8*%
%TO.N,unconnected-(J12-Pin_8-Pad8)*%
X210300000Y-99580000D03*
%TD*%
D13*
%TO.P,J3,1,Pin_1*%
%TO.N,/TO_INT_1_P*%
X121200000Y-50800000D03*
D14*
%TO.P,J3,2,Pin_2*%
%TO.N,GND*%
X123740000Y-50800000D03*
%TO.P,J3,3,Pin_3*%
%TO.N,/TO_INT_1_N*%
X126280000Y-50800000D03*
%TD*%
D13*
%TO.P,J23,1,Pin_1*%
%TO.N,GND*%
X192040000Y-73600000D03*
D14*
%TO.P,J23,2,Pin_2*%
%TO.N,/23*%
X189500000Y-73600000D03*
%TO.P,J23,3,Pin_3*%
X186960000Y-73600000D03*
%TO.P,J23,4,Pin_4*%
%TO.N,/CFD_OUT_2_N*%
X184420000Y-73600000D03*
%TO.P,J23,5,Pin_5*%
%TO.N,/CFD_OUT_2_P*%
X181880000Y-73600000D03*
%TO.P,J23,6,Pin_6*%
%TO.N,GND*%
X179340000Y-73600000D03*
%TO.P,J23,7,Pin_7*%
%TO.N,/21*%
X176800000Y-73600000D03*
%TD*%
D13*
%TO.P,J1,1,Pin_1*%
%TO.N,/13*%
X179800000Y-69800000D03*
D14*
%TO.P,J1,2,Pin_2*%
%TO.N,/11*%
X177260000Y-69800000D03*
%TO.P,J1,3,Pin_3*%
%TO.N,GND*%
X174720000Y-69800000D03*
%TO.P,J1,4,Pin_4*%
%TO.N,/9*%
X172180000Y-69800000D03*
%TO.P,J1,5,Pin_5*%
%TO.N,/7*%
X169640000Y-69800000D03*
%TO.P,J1,6,Pin_6*%
%TO.N,/5*%
X167100000Y-69800000D03*
%TO.P,J1,7,Pin_7*%
%TO.N,/3*%
X164560000Y-69800000D03*
%TO.P,J1,8,Pin_8*%
%TO.N,/1*%
X162020000Y-69800000D03*
%TD*%
D13*
%TO.P,J21,1,Pin_1*%
%TO.N,/TO_INT_2_P*%
X121220000Y-80800000D03*
D14*
%TO.P,J21,2,Pin_2*%
%TO.N,GND*%
X123760000Y-80800000D03*
%TO.P,J21,3,Pin_3*%
%TO.N,/TO_INT_2_N*%
X126300000Y-80800000D03*
%TD*%
D13*
%TO.P,J22,1,Pin_1*%
%TO.N,/14*%
X179800000Y-99800000D03*
D14*
%TO.P,J22,2,Pin_2*%
%TO.N,/12*%
X177260000Y-99800000D03*
%TO.P,J22,3,Pin_3*%
%TO.N,GND*%
X174720000Y-99800000D03*
%TO.P,J22,4,Pin_4*%
%TO.N,/10*%
X172180000Y-99800000D03*
%TO.P,J22,5,Pin_5*%
%TO.N,/8*%
X169640000Y-99800000D03*
%TO.P,J22,6,Pin_6*%
%TO.N,/6*%
X167100000Y-99800000D03*
%TO.P,J22,7,Pin_7*%
%TO.N,/4*%
X164560000Y-99800000D03*
%TO.P,J22,8,Pin_8*%
%TO.N,/2*%
X162020000Y-99800000D03*
%TD*%
D16*
%TO.N,GND*%
X205000000Y-70000000D03*
X167640000Y-60960000D03*
X150000000Y-81800000D03*
X157480000Y-45720000D03*
X152400000Y-50800000D03*
X177800000Y-86360000D03*
X143800000Y-87400000D03*
X187960000Y-55880000D03*
X200000000Y-60000000D03*
X172720000Y-81280000D03*
X167640000Y-45720000D03*
X121920000Y-91440000D03*
X162560000Y-50800000D03*
X111760000Y-91440000D03*
X182880000Y-91440000D03*
X162560000Y-81280000D03*
X137160000Y-45720000D03*
X167640000Y-86360000D03*
X210400000Y-45500000D03*
X182880000Y-81280000D03*
X157480000Y-60960000D03*
X147320000Y-60960000D03*
X167640000Y-76200000D03*
X200000000Y-80000000D03*
X205000000Y-90000000D03*
X121920000Y-60960000D03*
X157480000Y-91440000D03*
X147320000Y-45720000D03*
%TD*%
D17*
%TO.N,GND*%
X86580000Y-69100000D02*
X86900000Y-69420000D01*
X108420000Y-51500000D02*
X108420000Y-51300000D01*
%TO.N,/CFD_OUT_1_P*%
X97000000Y-54900000D02*
X180357948Y-54900000D01*
X93121024Y-48500000D02*
X94527000Y-49905976D01*
X94527000Y-49905976D02*
X94527000Y-52427000D01*
X90680000Y-47680000D02*
X91500000Y-48500000D01*
X182846000Y-44946000D02*
X181840000Y-43940000D01*
X181840000Y-43940000D02*
X181840000Y-43600000D01*
X91500000Y-48500000D02*
X93121024Y-48500000D01*
X90680000Y-45870000D02*
X90680000Y-47680000D01*
X182846000Y-52411948D02*
X182846000Y-44946000D01*
X87810000Y-45870000D02*
X86050000Y-47630000D01*
X90680000Y-45870000D02*
X87810000Y-45870000D01*
X94527000Y-52427000D02*
X97000000Y-54900000D01*
X180357948Y-54900000D02*
X182846000Y-52411948D01*
%TO.N,/CFD_OUT_1_N*%
X92932972Y-48954000D02*
X94073000Y-50094028D01*
X90680000Y-49720000D02*
X91446000Y-48954000D01*
X96811948Y-55354000D02*
X180546000Y-55354000D01*
X183300000Y-52600000D02*
X183300000Y-45000000D01*
X90680000Y-51840000D02*
X90680000Y-49720000D01*
X180546000Y-55354000D02*
X183300000Y-52600000D01*
X94073000Y-50094028D02*
X94073000Y-52615052D01*
X94073000Y-52615052D02*
X96811948Y-55354000D01*
X90680000Y-51840000D02*
X87720000Y-51840000D01*
X91446000Y-48954000D02*
X92932972Y-48954000D01*
X184380000Y-43920000D02*
X184380000Y-43600000D01*
X87720000Y-51840000D02*
X86050000Y-50170000D01*
X183300000Y-45000000D02*
X184380000Y-43920000D01*
%TO.N,/TO_INT_1_N*%
X123967000Y-48487000D02*
X123967000Y-47545972D01*
X126280000Y-51020000D02*
X126280000Y-50800000D01*
X122867028Y-46446000D02*
X120011948Y-46446000D01*
D18*
X126280000Y-50800000D02*
X126280000Y-51320000D01*
D17*
X117557948Y-48900000D02*
X109680000Y-48900000D01*
X106280000Y-48400000D02*
X108420000Y-48400000D01*
X123967000Y-47545972D02*
X122867028Y-46446000D01*
X120011948Y-46446000D02*
X117557948Y-48900000D01*
X126280000Y-50800000D02*
X123967000Y-48487000D01*
X109680000Y-48900000D02*
X109180000Y-48400000D01*
X105380000Y-47500000D02*
X106280000Y-48400000D01*
X105380000Y-45830000D02*
X103350000Y-45830000D01*
X109180000Y-48400000D02*
X108420000Y-48400000D01*
X103350000Y-45830000D02*
X101280000Y-47900000D01*
X109680000Y-48900000D02*
X109540000Y-48760000D01*
X105380000Y-45830000D02*
X105380000Y-47500000D01*
%TO.N,/TO_INT_1_P*%
X123513000Y-48487000D02*
X123513000Y-47734024D01*
X123513000Y-47734024D02*
X122678976Y-46900000D01*
X105380000Y-52270000D02*
X103110000Y-52270000D01*
X109636000Y-49354000D02*
X109190000Y-49800000D01*
X120200000Y-46900000D02*
X117746000Y-49354000D01*
X105380000Y-50600000D02*
X105380000Y-52270000D01*
X103110000Y-52270000D02*
X101280000Y-50440000D01*
X106180000Y-49800000D02*
X105380000Y-50600000D01*
D18*
X121200000Y-50800000D02*
X121629172Y-51229172D01*
D17*
X109190000Y-49800000D02*
X108420000Y-49800000D01*
X117746000Y-49354000D02*
X109636000Y-49354000D01*
X122678976Y-46900000D02*
X120200000Y-46900000D01*
X108420000Y-49800000D02*
X106180000Y-49800000D01*
X121200000Y-50800000D02*
X123513000Y-48487000D01*
%TO.N,/CFD_OUT_2_P*%
X90670000Y-63840000D02*
X87635000Y-63840000D01*
X87635000Y-63840000D02*
X86040000Y-62245000D01*
X90670000Y-61800000D02*
X90670000Y-63840000D01*
X182851001Y-59974853D02*
X180376148Y-57500000D01*
X181880000Y-73600000D02*
X182851001Y-72628999D01*
X96862052Y-57500000D02*
X93292052Y-61070000D01*
X93292052Y-61070000D02*
X91400000Y-61070000D01*
X182851001Y-72628999D02*
X182851001Y-59974853D01*
X180376148Y-57500000D02*
X96862052Y-57500000D01*
X91400000Y-61070000D02*
X90670000Y-61800000D01*
%TO.N,/CFD_OUT_2_N*%
X183305001Y-59786801D02*
X180564200Y-57046000D01*
X90670000Y-57870000D02*
X87875000Y-57870000D01*
X90670000Y-59840000D02*
X90670000Y-57870000D01*
X96673999Y-57046000D02*
X93103999Y-60616000D01*
X183305001Y-72605001D02*
X183305001Y-59786801D01*
X93103999Y-60616000D02*
X91446000Y-60616000D01*
X91446000Y-60616000D02*
X90670000Y-59840000D01*
X184300000Y-73600000D02*
X183305001Y-72605001D01*
X180564200Y-57046000D02*
X96673999Y-57046000D01*
X87875000Y-57870000D02*
X86040000Y-59705000D01*
X90770000Y-57970000D02*
X90670000Y-57870000D01*
X184420000Y-73600000D02*
X184300000Y-73600000D01*
%TO.N,/TO_INT_2_N*%
X126300000Y-80800000D02*
X126300000Y-77800000D01*
X105280000Y-60246486D02*
X105280000Y-61955000D01*
X126300000Y-77800000D02*
X125500000Y-77000000D01*
X109626000Y-63346000D02*
X109126486Y-62846486D01*
X105280000Y-60246486D02*
X103250000Y-60246486D01*
X105280000Y-61955000D02*
X106171486Y-62846486D01*
X125500000Y-77000000D02*
X125500000Y-67478972D01*
X125500000Y-67478972D02*
X121367028Y-63346000D01*
X103250000Y-60246486D02*
X101150000Y-62346486D01*
X121367028Y-63346000D02*
X109626000Y-63346000D01*
X125700000Y-80800000D02*
X126300000Y-80800000D01*
X106171486Y-62846486D02*
X108450000Y-62846486D01*
X109626000Y-63346000D02*
X109440000Y-63160000D01*
X109126486Y-62846486D02*
X108450000Y-62846486D01*
%TO.N,/TO_INT_2_P*%
X109162501Y-64246486D02*
X108450000Y-64246486D01*
X125046000Y-76974000D02*
X125046000Y-67667024D01*
X109608986Y-63800000D02*
X109404493Y-64004493D01*
X108450000Y-64246486D02*
X106050000Y-64246486D01*
X121220000Y-80800000D02*
X125046000Y-76974000D01*
X106050000Y-64246486D02*
X105250000Y-65046486D01*
X109608987Y-63800000D02*
X109162501Y-64246486D01*
X121178976Y-63800000D02*
X109608986Y-63800000D01*
X125046000Y-67667024D02*
X121178976Y-63800000D01*
X105250000Y-66746486D02*
X103010000Y-66746486D01*
X103010000Y-66746486D02*
X101150000Y-64886486D01*
X105250000Y-65046486D02*
X105250000Y-66746486D01*
D18*
%TO.N,/11*%
X158507105Y-65800000D02*
X155200000Y-69107106D01*
X138964471Y-97000000D02*
X101300000Y-97000000D01*
X174600000Y-65800000D02*
X158507105Y-65800000D01*
X155200000Y-69107106D02*
X155200000Y-80764470D01*
X177260000Y-69800000D02*
X177260000Y-69840000D01*
X177260000Y-69800000D02*
X177130000Y-69800000D01*
X155200000Y-80764470D02*
X138964471Y-97000000D01*
X177260000Y-68460000D02*
X174600000Y-65800000D01*
X91180000Y-86880000D02*
X89440000Y-86880000D01*
X89440000Y-87200000D02*
X89740000Y-86900000D01*
X177260000Y-69800000D02*
X177260000Y-68460000D01*
X101300000Y-97000000D02*
X91180000Y-86880000D01*
%TO.N,/3*%
X163900000Y-67800000D02*
X159335530Y-67800000D01*
X164560000Y-69800000D02*
X164560000Y-68460000D01*
X159335530Y-67800000D02*
X157200000Y-69935530D01*
X95700000Y-99000000D02*
X93740000Y-97040000D01*
X157200000Y-69935530D02*
X157200000Y-81592894D01*
X164560000Y-68460000D02*
X163900000Y-67800000D01*
X139792895Y-99000000D02*
X95700000Y-99000000D01*
X93740000Y-97040000D02*
X89440000Y-97040000D01*
X157200000Y-81592894D02*
X139792895Y-99000000D01*
X89400000Y-97000000D02*
X89140000Y-97260000D01*
%TO.N,/9*%
X155700000Y-69314212D02*
X158714212Y-66300000D01*
X89440000Y-89420000D02*
X91220000Y-89420000D01*
X99300000Y-97500000D02*
X139171577Y-97500000D01*
X91220000Y-89420000D02*
X99300000Y-97500000D01*
X155700000Y-80971576D02*
X155700000Y-69314212D01*
X89780000Y-89400000D02*
X89440000Y-89740000D01*
X172180000Y-68380000D02*
X172180000Y-69800000D01*
X139171577Y-97500000D02*
X155700000Y-80971576D01*
X170100000Y-66300000D02*
X172180000Y-68380000D01*
X158714212Y-66300000D02*
X170100000Y-66300000D01*
%TO.N,/5*%
X159128424Y-67300000D02*
X156700000Y-69728424D01*
X156700000Y-81385788D02*
X139585789Y-98500000D01*
X95907106Y-98500000D02*
X91907106Y-94500000D01*
X91907106Y-94500000D02*
X89440000Y-94500000D01*
X167100000Y-69800000D02*
X167100000Y-68500000D01*
X167100000Y-68500000D02*
X165900000Y-67300000D01*
X139585789Y-98500000D02*
X95907106Y-98500000D01*
X89360000Y-94500000D02*
X89140000Y-94720000D01*
X156700000Y-69728424D02*
X156700000Y-81385788D01*
X165900000Y-67300000D02*
X159128424Y-67300000D01*
%TO.N,/13*%
X89900000Y-84200000D02*
X89440000Y-84660000D01*
X138757364Y-96500000D02*
X103300000Y-96500000D01*
X158299999Y-65300000D02*
X154700000Y-68900000D01*
X154700000Y-68900000D02*
X154700000Y-80557364D01*
X103300000Y-96500000D02*
X91140000Y-84340000D01*
X179800000Y-68400000D02*
X176700000Y-65300000D01*
X154700000Y-80557364D02*
X138757364Y-96500000D01*
X91140000Y-84340000D02*
X89440000Y-84340000D01*
X176700000Y-65300000D02*
X158299999Y-65300000D01*
X179800000Y-69800000D02*
X179800000Y-68400000D01*
%TO.N,/15*%
X89860000Y-81700000D02*
X89440000Y-82120000D01*
%TO.N,/7*%
X156200000Y-69521318D02*
X156200000Y-81178682D01*
X158921318Y-66800000D02*
X156200000Y-69521318D01*
X169640000Y-69800000D02*
X169640000Y-68440000D01*
X139378683Y-98000000D02*
X97300000Y-98000000D01*
X156200000Y-81178682D02*
X139378683Y-98000000D01*
X169640000Y-68440000D02*
X168000000Y-66800000D01*
X97300000Y-98000000D02*
X91260000Y-91960000D01*
X91260000Y-91960000D02*
X89440000Y-91960000D01*
X89720000Y-92000000D02*
X89440000Y-92280000D01*
X168000000Y-66800000D02*
X158921318Y-66800000D01*
D17*
%TO.N,/24*%
X185743000Y-42423000D02*
X173852000Y-42423000D01*
X173852000Y-42423000D02*
X173500000Y-42775000D01*
X186920000Y-43600000D02*
X185743000Y-42423000D01*
X173500000Y-42775000D02*
X86125000Y-42775000D01*
X83400000Y-45500000D02*
X83400000Y-69800000D01*
X83400000Y-69800000D02*
X85240000Y-71640000D01*
X85240000Y-71640000D02*
X86900000Y-71640000D01*
X86125000Y-42775000D02*
X83400000Y-45500000D01*
D18*
%TO.N,/1*%
X140000000Y-99500000D02*
X89520000Y-99500000D01*
X159542636Y-68300000D02*
X157700000Y-70142636D01*
X89520000Y-99500000D02*
X89440000Y-99580000D01*
X157700000Y-81800000D02*
X140000000Y-99500000D01*
X162020000Y-68820000D02*
X161500000Y-68300000D01*
X157700000Y-70142636D02*
X157700000Y-81800000D01*
X162020000Y-69800000D02*
X162020000Y-68820000D01*
X161500000Y-68300000D02*
X159542636Y-68300000D01*
%TD*%
%TA.AperFunction,Conductor*%
%TO.N,GND*%
G36*
X104248441Y-60901948D02*
G01*
X104295994Y-60945522D01*
X104330286Y-60994496D01*
X104351852Y-61025295D01*
X104501191Y-61174634D01*
X104580964Y-61230492D01*
X104630540Y-61289573D01*
X104644500Y-61352544D01*
X104644500Y-61868391D01*
X104642629Y-61885334D01*
X104643174Y-61885386D01*
X104642291Y-61894722D01*
X104644500Y-61964984D01*
X104644500Y-61994992D01*
X104645314Y-62001436D01*
X104645864Y-62008429D01*
X104647334Y-62055199D01*
X104647334Y-62055200D01*
X104647334Y-62055203D01*
X104647335Y-62055205D01*
X104652509Y-62073017D01*
X104657248Y-62095898D01*
X104659573Y-62114299D01*
X104676798Y-62157806D01*
X104679073Y-62164449D01*
X104692129Y-62209389D01*
X104692131Y-62209393D01*
X104701570Y-62225353D01*
X104711854Y-62246347D01*
X104718681Y-62263588D01*
X104746191Y-62301453D01*
X104750041Y-62307314D01*
X104773862Y-62347592D01*
X104773868Y-62347600D01*
X104786972Y-62360704D01*
X104802154Y-62378480D01*
X104813055Y-62393483D01*
X104813061Y-62393490D01*
X104849120Y-62423320D01*
X104854314Y-62428046D01*
X105660878Y-63234611D01*
X105671538Y-63247915D01*
X105671959Y-63247568D01*
X105677930Y-63254786D01*
X105677932Y-63254788D01*
X105677933Y-63254789D01*
X105729179Y-63302912D01*
X105750392Y-63324125D01*
X105755541Y-63328119D01*
X105760852Y-63332655D01*
X105794980Y-63364703D01*
X105811231Y-63373637D01*
X105830763Y-63386467D01*
X105833246Y-63388393D01*
X105845371Y-63397798D01*
X105892001Y-63459234D01*
X105901667Y-63535754D01*
X105871778Y-63606855D01*
X105810342Y-63653485D01*
X105795627Y-63658610D01*
X105795614Y-63658613D01*
X105795604Y-63658618D01*
X105779639Y-63668059D01*
X105758654Y-63678340D01*
X105741410Y-63685167D01*
X105703546Y-63712676D01*
X105697681Y-63716528D01*
X105657402Y-63740351D01*
X105657400Y-63740352D01*
X105644292Y-63753461D01*
X105626522Y-63768638D01*
X105611516Y-63779541D01*
X105611509Y-63779547D01*
X105581677Y-63815607D01*
X105576952Y-63820800D01*
X104861872Y-64535879D01*
X104848571Y-64546538D01*
X104848919Y-64546958D01*
X104841696Y-64552933D01*
X104793573Y-64604179D01*
X104772360Y-64625392D01*
X104768377Y-64630527D01*
X104763820Y-64635863D01*
X104731785Y-64669976D01*
X104731780Y-64669984D01*
X104722846Y-64686233D01*
X104710020Y-64705759D01*
X104698650Y-64720418D01*
X104698648Y-64720422D01*
X104680062Y-64763372D01*
X104676974Y-64769676D01*
X104654429Y-64810685D01*
X104649817Y-64828649D01*
X104642247Y-64850758D01*
X104634883Y-64867775D01*
X104634882Y-64867781D01*
X104627562Y-64913996D01*
X104626139Y-64920870D01*
X104614500Y-64966203D01*
X104614500Y-64984741D01*
X104612666Y-65008047D01*
X104609765Y-65026364D01*
X104614169Y-65072958D01*
X104614500Y-65079973D01*
X104614500Y-65640427D01*
X104594538Y-65714927D01*
X104550964Y-65762480D01*
X104471190Y-65818338D01*
X104321850Y-65967678D01*
X104265996Y-66047448D01*
X104206913Y-66097026D01*
X104143942Y-66110986D01*
X103334951Y-66110986D01*
X103260451Y-66091024D01*
X103229592Y-66067345D01*
X102509678Y-65347431D01*
X102471114Y-65280636D01*
X102470597Y-65205497D01*
X102494564Y-65110854D01*
X102513156Y-64886486D01*
X102494564Y-64662118D01*
X102439296Y-64443870D01*
X102439294Y-64443867D01*
X102439294Y-64443864D01*
X102348861Y-64237696D01*
X102292869Y-64151994D01*
X102225722Y-64049218D01*
X102105696Y-63918836D01*
X102069924Y-63850505D01*
X102073111Y-63773443D01*
X102114403Y-63708299D01*
X102163242Y-63678318D01*
X102246204Y-63647375D01*
X102363261Y-63559747D01*
X102450889Y-63442690D01*
X102501989Y-63305687D01*
X102508500Y-63245124D01*
X102508500Y-61948436D01*
X102528462Y-61873936D01*
X102552141Y-61843077D01*
X103469591Y-60925627D01*
X103536386Y-60887063D01*
X103574950Y-60881986D01*
X104173941Y-60881986D01*
X104248441Y-60901948D01*
G37*
%TD.AperFunction*%
%TA.AperFunction,Conductor*%
G36*
X89638441Y-58525462D02*
G01*
X89685995Y-58569036D01*
X89741852Y-58648809D01*
X89891191Y-58798148D01*
X89970964Y-58854006D01*
X90020540Y-58913087D01*
X90034500Y-58976058D01*
X90034500Y-59753391D01*
X90032629Y-59770334D01*
X90033174Y-59770386D01*
X90032291Y-59779722D01*
X90034500Y-59849984D01*
X90034500Y-59879992D01*
X90035314Y-59886436D01*
X90035864Y-59893429D01*
X90037334Y-59940199D01*
X90037334Y-59940200D01*
X90037334Y-59940203D01*
X90037335Y-59940205D01*
X90042509Y-59958017D01*
X90047248Y-59980898D01*
X90049573Y-59999299D01*
X90066798Y-60042806D01*
X90069073Y-60049449D01*
X90082129Y-60094389D01*
X90082131Y-60094393D01*
X90091570Y-60110353D01*
X90101854Y-60131347D01*
X90108681Y-60148588D01*
X90136191Y-60186453D01*
X90140041Y-60192314D01*
X90163862Y-60232592D01*
X90163868Y-60232600D01*
X90176972Y-60245704D01*
X90192154Y-60263480D01*
X90203055Y-60278483D01*
X90203061Y-60278490D01*
X90239120Y-60308320D01*
X90244314Y-60313046D01*
X90645907Y-60714640D01*
X90684471Y-60781435D01*
X90684471Y-60858563D01*
X90645907Y-60925358D01*
X90281872Y-61289393D01*
X90268571Y-61300052D01*
X90268919Y-61300472D01*
X90261696Y-61306447D01*
X90213573Y-61357693D01*
X90192360Y-61378906D01*
X90188377Y-61384041D01*
X90183820Y-61389377D01*
X90151785Y-61423490D01*
X90151780Y-61423498D01*
X90142846Y-61439747D01*
X90130020Y-61459273D01*
X90118650Y-61473932D01*
X90118648Y-61473936D01*
X90100062Y-61516886D01*
X90096974Y-61523190D01*
X90074429Y-61564199D01*
X90069817Y-61582163D01*
X90062247Y-61604272D01*
X90054883Y-61621289D01*
X90054882Y-61621295D01*
X90047562Y-61667510D01*
X90046139Y-61674384D01*
X90034500Y-61719717D01*
X90034500Y-61738255D01*
X90032666Y-61761561D01*
X90029765Y-61779878D01*
X90034169Y-61826472D01*
X90034500Y-61833487D01*
X90034500Y-62733941D01*
X90014538Y-62808441D01*
X89970964Y-62855994D01*
X89891190Y-62911852D01*
X89741850Y-63061192D01*
X89685996Y-63140962D01*
X89626913Y-63190540D01*
X89563942Y-63204500D01*
X87959951Y-63204500D01*
X87885451Y-63184538D01*
X87854592Y-63160859D01*
X87442141Y-62748408D01*
X87403577Y-62681613D01*
X87398500Y-62643049D01*
X87398500Y-61346368D01*
X87398500Y-61346362D01*
X87391989Y-61285799D01*
X87340889Y-61148796D01*
X87253261Y-61031739D01*
X87136204Y-60944111D01*
X87085926Y-60925358D01*
X87053247Y-60913169D01*
X86990420Y-60868430D01*
X86958381Y-60798272D01*
X86965713Y-60721493D01*
X86995692Y-60672653D01*
X87115722Y-60542268D01*
X87238860Y-60353791D01*
X87255254Y-60316416D01*
X87329294Y-60147621D01*
X87329294Y-60147619D01*
X87329296Y-60147616D01*
X87384564Y-59929368D01*
X87403156Y-59705000D01*
X87384564Y-59480632D01*
X87360596Y-59385986D01*
X87361657Y-59308871D01*
X87399675Y-59244055D01*
X88094592Y-58549141D01*
X88161387Y-58510577D01*
X88199951Y-58505500D01*
X89563941Y-58505500D01*
X89638441Y-58525462D01*
G37*
%TD.AperFunction*%
%TA.AperFunction,Conductor*%
G36*
X104348441Y-46485462D02*
G01*
X104395994Y-46529036D01*
X104445061Y-46599110D01*
X104451852Y-46608809D01*
X104601191Y-46758148D01*
X104680964Y-46814006D01*
X104730540Y-46873087D01*
X104744500Y-46936058D01*
X104744500Y-47413391D01*
X104742629Y-47430334D01*
X104743174Y-47430386D01*
X104742291Y-47439722D01*
X104744500Y-47509984D01*
X104744500Y-47539992D01*
X104745314Y-47546436D01*
X104745864Y-47553429D01*
X104747334Y-47600199D01*
X104747334Y-47600200D01*
X104747334Y-47600203D01*
X104747335Y-47600205D01*
X104752509Y-47618017D01*
X104757248Y-47640898D01*
X104759573Y-47659299D01*
X104776798Y-47702806D01*
X104779073Y-47709449D01*
X104792129Y-47754389D01*
X104792131Y-47754393D01*
X104801570Y-47770353D01*
X104811854Y-47791347D01*
X104818681Y-47808588D01*
X104846191Y-47846453D01*
X104850041Y-47852314D01*
X104873862Y-47892592D01*
X104873868Y-47892600D01*
X104886972Y-47905704D01*
X104902154Y-47923480D01*
X104913055Y-47938483D01*
X104913058Y-47938487D01*
X104949121Y-47968321D01*
X104954315Y-47973047D01*
X105769389Y-48788121D01*
X105780049Y-48801427D01*
X105780471Y-48801079D01*
X105786444Y-48808298D01*
X105786447Y-48808303D01*
X105817442Y-48837409D01*
X105837709Y-48856441D01*
X105858905Y-48877637D01*
X105864047Y-48881626D01*
X105869374Y-48886177D01*
X105903494Y-48918217D01*
X105919747Y-48927152D01*
X105939272Y-48939977D01*
X105953933Y-48951349D01*
X105953936Y-48951350D01*
X105960516Y-48956454D01*
X106007149Y-49017888D01*
X106016817Y-49094408D01*
X105986930Y-49165510D01*
X105933453Y-49206993D01*
X105933671Y-49207362D01*
X105930757Y-49209084D01*
X105928379Y-49210930D01*
X105925611Y-49212127D01*
X105909639Y-49221573D01*
X105888654Y-49231854D01*
X105871410Y-49238681D01*
X105833546Y-49266190D01*
X105827681Y-49270042D01*
X105787402Y-49293865D01*
X105787400Y-49293866D01*
X105774292Y-49306975D01*
X105756522Y-49322152D01*
X105741516Y-49333055D01*
X105741509Y-49333061D01*
X105711677Y-49369121D01*
X105706952Y-49374314D01*
X104991872Y-50089393D01*
X104978571Y-50100052D01*
X104978919Y-50100472D01*
X104971696Y-50106447D01*
X104923573Y-50157693D01*
X104902360Y-50178906D01*
X104898377Y-50184041D01*
X104893820Y-50189377D01*
X104861785Y-50223490D01*
X104861780Y-50223498D01*
X104852846Y-50239747D01*
X104840020Y-50259273D01*
X104828650Y-50273932D01*
X104828648Y-50273936D01*
X104810062Y-50316886D01*
X104806974Y-50323190D01*
X104784429Y-50364199D01*
X104779817Y-50382163D01*
X104772247Y-50404272D01*
X104764883Y-50421289D01*
X104764882Y-50421295D01*
X104757562Y-50467510D01*
X104756139Y-50474384D01*
X104744500Y-50519717D01*
X104744500Y-50538255D01*
X104742666Y-50561561D01*
X104739765Y-50579878D01*
X104744169Y-50626472D01*
X104744500Y-50633487D01*
X104744500Y-51163941D01*
X104724538Y-51238441D01*
X104680964Y-51285994D01*
X104601190Y-51341852D01*
X104451850Y-51491192D01*
X104395996Y-51570962D01*
X104336913Y-51620540D01*
X104273942Y-51634500D01*
X103434950Y-51634500D01*
X103360450Y-51614538D01*
X103329591Y-51590859D01*
X102639678Y-50900946D01*
X102601114Y-50834151D01*
X102600597Y-50759009D01*
X102613388Y-50708499D01*
X102624564Y-50664368D01*
X102643156Y-50440000D01*
X102624564Y-50215632D01*
X102569296Y-49997384D01*
X102569294Y-49997381D01*
X102569294Y-49997378D01*
X102478861Y-49791210D01*
X102419191Y-49699879D01*
X102355722Y-49602732D01*
X102315955Y-49559534D01*
X102235696Y-49472350D01*
X102199924Y-49404019D01*
X102203111Y-49326957D01*
X102244403Y-49261813D01*
X102293242Y-49231832D01*
X102376204Y-49200889D01*
X102493261Y-49113261D01*
X102580889Y-48996204D01*
X102631989Y-48859201D01*
X102638500Y-48798638D01*
X102638500Y-47501950D01*
X102658462Y-47427450D01*
X102682141Y-47396591D01*
X103569592Y-46509141D01*
X103636387Y-46470577D01*
X103674951Y-46465500D01*
X104273941Y-46465500D01*
X104348441Y-46485462D01*
G37*
%TD.AperFunction*%
%TA.AperFunction,Conductor*%
G36*
X214025000Y-42220462D02*
G01*
X214079538Y-42275000D01*
X214099500Y-42349500D01*
X214099500Y-100950500D01*
X214079538Y-101025000D01*
X214025000Y-101079538D01*
X213950500Y-101099500D01*
X210934906Y-101099500D01*
X210860406Y-101079538D01*
X210805868Y-101025000D01*
X210785906Y-100950500D01*
X210805868Y-100876000D01*
X210860406Y-100821462D01*
X210863990Y-100819459D01*
X211045572Y-100721191D01*
X211045571Y-100721191D01*
X211045576Y-100721189D01*
X211223240Y-100582906D01*
X211375722Y-100417268D01*
X211498860Y-100228791D01*
X211528689Y-100160788D01*
X211589294Y-100022621D01*
X211589294Y-100022619D01*
X211589296Y-100022616D01*
X211644564Y-99804368D01*
X211663156Y-99580000D01*
X211644564Y-99355632D01*
X211589296Y-99137384D01*
X211589294Y-99137381D01*
X211589294Y-99137378D01*
X211498861Y-98931210D01*
X211375724Y-98742735D01*
X211375723Y-98742734D01*
X211375722Y-98742732D01*
X211223240Y-98577094D01*
X211045576Y-98438811D01*
X211045575Y-98438810D01*
X211040423Y-98435445D01*
X211041710Y-98433473D01*
X210993700Y-98388067D01*
X210971670Y-98314152D01*
X210989548Y-98239125D01*
X211040723Y-98185014D01*
X211040423Y-98184555D01*
X211042345Y-98183299D01*
X211042545Y-98183088D01*
X211043608Y-98182473D01*
X211045566Y-98181194D01*
X211045576Y-98181189D01*
X211223240Y-98042906D01*
X211375722Y-97877268D01*
X211498860Y-97688791D01*
X211498861Y-97688789D01*
X211589294Y-97482621D01*
X211589294Y-97482619D01*
X211589296Y-97482616D01*
X211644564Y-97264368D01*
X211663156Y-97040000D01*
X211644564Y-96815632D01*
X211589296Y-96597384D01*
X211589294Y-96597381D01*
X211589294Y-96597378D01*
X211498861Y-96391210D01*
X211375724Y-96202735D01*
X211375723Y-96202734D01*
X211375722Y-96202732D01*
X211223240Y-96037094D01*
X211045576Y-95898811D01*
X211045575Y-95898810D01*
X211040423Y-95895445D01*
X211041710Y-95893473D01*
X210993700Y-95848067D01*
X210971670Y-95774152D01*
X210989548Y-95699125D01*
X211040723Y-95645014D01*
X211040423Y-95644555D01*
X211042345Y-95643299D01*
X211042545Y-95643088D01*
X211043608Y-95642473D01*
X211045566Y-95641194D01*
X211045576Y-95641189D01*
X211223240Y-95502906D01*
X211375722Y-95337268D01*
X211498860Y-95148791D01*
X211498861Y-95148789D01*
X211589294Y-94942621D01*
X211589294Y-94942619D01*
X211589296Y-94942616D01*
X211644564Y-94724368D01*
X211663156Y-94500000D01*
X211644564Y-94275632D01*
X211589296Y-94057384D01*
X211589294Y-94057381D01*
X211589294Y-94057378D01*
X211498861Y-93851210D01*
X211375724Y-93662735D01*
X211375723Y-93662734D01*
X211375722Y-93662732D01*
X211223240Y-93497094D01*
X211045576Y-93358811D01*
X211045575Y-93358810D01*
X211040423Y-93355445D01*
X211041710Y-93353473D01*
X210993700Y-93308067D01*
X210971670Y-93234152D01*
X210989548Y-93159125D01*
X211040723Y-93105014D01*
X211040423Y-93104555D01*
X211042345Y-93103299D01*
X211042545Y-93103088D01*
X211043608Y-93102473D01*
X211045566Y-93101194D01*
X211045576Y-93101189D01*
X211223240Y-92962906D01*
X211375722Y-92797268D01*
X211498860Y-92608791D01*
X211546580Y-92500000D01*
X211589294Y-92402621D01*
X211589294Y-92402619D01*
X211589296Y-92402616D01*
X211644564Y-92184368D01*
X211663156Y-91960000D01*
X211644564Y-91735632D01*
X211589296Y-91517384D01*
X211589294Y-91517381D01*
X211589294Y-91517378D01*
X211498861Y-91311210D01*
X211375724Y-91122735D01*
X211375723Y-91122734D01*
X211375722Y-91122732D01*
X211223240Y-90957094D01*
X211045576Y-90818811D01*
X211045575Y-90818810D01*
X211040423Y-90815445D01*
X211041710Y-90813473D01*
X210993700Y-90768067D01*
X210971670Y-90694152D01*
X210989548Y-90619125D01*
X211040723Y-90565014D01*
X211040423Y-90564555D01*
X211042345Y-90563299D01*
X211042545Y-90563088D01*
X211043608Y-90562473D01*
X211045566Y-90561194D01*
X211045576Y-90561189D01*
X211223240Y-90422906D01*
X211375722Y-90257268D01*
X211498860Y-90068791D01*
X211498861Y-90068789D01*
X211589294Y-89862621D01*
X211589294Y-89862619D01*
X211589296Y-89862616D01*
X211644564Y-89644368D01*
X211663156Y-89420000D01*
X211644564Y-89195632D01*
X211589296Y-88977384D01*
X211589294Y-88977381D01*
X211589294Y-88977378D01*
X211498861Y-88771210D01*
X211375724Y-88582735D01*
X211375723Y-88582734D01*
X211375722Y-88582732D01*
X211223240Y-88417094D01*
X211045576Y-88278811D01*
X211045575Y-88278810D01*
X211040423Y-88275445D01*
X211041710Y-88273473D01*
X210993700Y-88228067D01*
X210971670Y-88154152D01*
X210989548Y-88079125D01*
X211040723Y-88025014D01*
X211040423Y-88024555D01*
X211042345Y-88023299D01*
X211042545Y-88023088D01*
X211043608Y-88022473D01*
X211045566Y-88021194D01*
X211045576Y-88021189D01*
X211223240Y-87882906D01*
X211375722Y-87717268D01*
X211498860Y-87528791D01*
X211498861Y-87528789D01*
X211589294Y-87322621D01*
X211589294Y-87322619D01*
X211589296Y-87322616D01*
X211644564Y-87104368D01*
X211663156Y-86880000D01*
X211644564Y-86655632D01*
X211589296Y-86437384D01*
X211589294Y-86437381D01*
X211589294Y-86437378D01*
X211498861Y-86231210D01*
X211375724Y-86042735D01*
X211375723Y-86042734D01*
X211375722Y-86042732D01*
X211223240Y-85877094D01*
X211045576Y-85738811D01*
X211045575Y-85738810D01*
X211040423Y-85735445D01*
X211041710Y-85733473D01*
X210993700Y-85688067D01*
X210971670Y-85614152D01*
X210989548Y-85539125D01*
X211040723Y-85485014D01*
X211040423Y-85484555D01*
X211042345Y-85483299D01*
X211042545Y-85483088D01*
X211043608Y-85482473D01*
X211045566Y-85481194D01*
X211045576Y-85481189D01*
X211223240Y-85342906D01*
X211375722Y-85177268D01*
X211498860Y-84988791D01*
X211498861Y-84988789D01*
X211589294Y-84782621D01*
X211589294Y-84782619D01*
X211589296Y-84782616D01*
X211644564Y-84564368D01*
X211663156Y-84340000D01*
X211644564Y-84115632D01*
X211589296Y-83897384D01*
X211589294Y-83897381D01*
X211589294Y-83897378D01*
X211498861Y-83691210D01*
X211445262Y-83609171D01*
X211375722Y-83502732D01*
X211255696Y-83372350D01*
X211219924Y-83304019D01*
X211223111Y-83226957D01*
X211264403Y-83161813D01*
X211313242Y-83131832D01*
X211396204Y-83100889D01*
X211513261Y-83013261D01*
X211600889Y-82896204D01*
X211651989Y-82759201D01*
X211658500Y-82698638D01*
X211658500Y-80901362D01*
X211651989Y-80840799D01*
X211600889Y-80703796D01*
X211513261Y-80586739D01*
X211396204Y-80499111D01*
X211374354Y-80490961D01*
X211259200Y-80448010D01*
X211198652Y-80441501D01*
X211198643Y-80441500D01*
X211198638Y-80441500D01*
X209401362Y-80441500D01*
X209401356Y-80441500D01*
X209401347Y-80441501D01*
X209340799Y-80448010D01*
X209203798Y-80499110D01*
X209203794Y-80499112D01*
X209086739Y-80586739D01*
X208999112Y-80703794D01*
X208999110Y-80703798D01*
X208948010Y-80840799D01*
X208941501Y-80901347D01*
X208941500Y-80901368D01*
X208941500Y-82698631D01*
X208941501Y-82698652D01*
X208948010Y-82759200D01*
X208964311Y-82802903D01*
X208999111Y-82896204D01*
X209086739Y-83013261D01*
X209203796Y-83100889D01*
X209203799Y-83100890D01*
X209286751Y-83131830D01*
X209349578Y-83176568D01*
X209381618Y-83246727D01*
X209374286Y-83323505D01*
X209344304Y-83372350D01*
X209224275Y-83502735D01*
X209101138Y-83691210D01*
X209010705Y-83897378D01*
X208955435Y-84115635D01*
X208936844Y-84339999D01*
X208936844Y-84340000D01*
X208955435Y-84564364D01*
X209010705Y-84782621D01*
X209101138Y-84988789D01*
X209224275Y-85177264D01*
X209224278Y-85177268D01*
X209376760Y-85342906D01*
X209554424Y-85481189D01*
X209554427Y-85481190D01*
X209559577Y-85484555D01*
X209558293Y-85486519D01*
X209606324Y-85531974D01*
X209628330Y-85605896D01*
X209610428Y-85680917D01*
X209559269Y-85734974D01*
X209559577Y-85735445D01*
X209557607Y-85736731D01*
X209557413Y-85736937D01*
X209556381Y-85737532D01*
X209554420Y-85738813D01*
X209427353Y-85837715D01*
X209376760Y-85877094D01*
X209376758Y-85877095D01*
X209376758Y-85877096D01*
X209224275Y-86042735D01*
X209101138Y-86231210D01*
X209010705Y-86437378D01*
X208955435Y-86655635D01*
X208936844Y-86879999D01*
X208936844Y-86880000D01*
X208955435Y-87104364D01*
X209010705Y-87322621D01*
X209101138Y-87528789D01*
X209224275Y-87717264D01*
X209224278Y-87717268D01*
X209376760Y-87882906D01*
X209554424Y-88021189D01*
X209554427Y-88021190D01*
X209559577Y-88024555D01*
X209558293Y-88026519D01*
X209606324Y-88071974D01*
X209628330Y-88145896D01*
X209610428Y-88220917D01*
X209559269Y-88274974D01*
X209559577Y-88275445D01*
X209557607Y-88276731D01*
X209557413Y-88276937D01*
X209556381Y-88277532D01*
X209554420Y-88278813D01*
X209427353Y-88377715D01*
X209376760Y-88417094D01*
X209376758Y-88417095D01*
X209376758Y-88417096D01*
X209224275Y-88582735D01*
X209101138Y-88771210D01*
X209010705Y-88977378D01*
X208955435Y-89195635D01*
X208936844Y-89419999D01*
X208936844Y-89420000D01*
X208955435Y-89644364D01*
X209010705Y-89862621D01*
X209101138Y-90068789D01*
X209224275Y-90257264D01*
X209224278Y-90257268D01*
X209376760Y-90422906D01*
X209554424Y-90561189D01*
X209554427Y-90561190D01*
X209559577Y-90564555D01*
X209558293Y-90566519D01*
X209606324Y-90611974D01*
X209628330Y-90685896D01*
X209610428Y-90760917D01*
X209559269Y-90814974D01*
X209559577Y-90815445D01*
X209557607Y-90816731D01*
X209557413Y-90816937D01*
X209556381Y-90817532D01*
X209554420Y-90818813D01*
X209427353Y-90917715D01*
X209376760Y-90957094D01*
X209376758Y-90957095D01*
X209376758Y-90957096D01*
X209224275Y-91122735D01*
X209101138Y-91311210D01*
X209010705Y-91517378D01*
X208955435Y-91735635D01*
X208936844Y-91959999D01*
X208936844Y-91960000D01*
X208955435Y-92184364D01*
X209010705Y-92402621D01*
X209101138Y-92608789D01*
X209224275Y-92797264D01*
X209224278Y-92797268D01*
X209376760Y-92962906D01*
X209554424Y-93101189D01*
X209554427Y-93101190D01*
X209559577Y-93104555D01*
X209558293Y-93106519D01*
X209606324Y-93151974D01*
X209628330Y-93225896D01*
X209610428Y-93300917D01*
X209559269Y-93354974D01*
X209559577Y-93355445D01*
X209557607Y-93356731D01*
X209557413Y-93356937D01*
X209556381Y-93357532D01*
X209554420Y-93358813D01*
X209427353Y-93457715D01*
X209376760Y-93497094D01*
X209376758Y-93497095D01*
X209376758Y-93497096D01*
X209224275Y-93662735D01*
X209101138Y-93851210D01*
X209010705Y-94057378D01*
X208955435Y-94275635D01*
X208936844Y-94499999D01*
X208936844Y-94500000D01*
X208955435Y-94724364D01*
X209010705Y-94942621D01*
X209101138Y-95148789D01*
X209224275Y-95337264D01*
X209224278Y-95337268D01*
X209376760Y-95502906D01*
X209554424Y-95641189D01*
X209554427Y-95641190D01*
X209559577Y-95644555D01*
X209558293Y-95646519D01*
X209606324Y-95691974D01*
X209628330Y-95765896D01*
X209610428Y-95840917D01*
X209559269Y-95894974D01*
X209559577Y-95895445D01*
X209557607Y-95896731D01*
X209557413Y-95896937D01*
X209556381Y-95897532D01*
X209554420Y-95898813D01*
X209427353Y-95997715D01*
X209376760Y-96037094D01*
X209376758Y-96037095D01*
X209376758Y-96037096D01*
X209224275Y-96202735D01*
X209101138Y-96391210D01*
X209010705Y-96597378D01*
X208955435Y-96815635D01*
X208936844Y-97039999D01*
X208936844Y-97040000D01*
X208955435Y-97264364D01*
X209010705Y-97482621D01*
X209101138Y-97688789D01*
X209224275Y-97877264D01*
X209224278Y-97877268D01*
X209376760Y-98042906D01*
X209554424Y-98181189D01*
X209554427Y-98181190D01*
X209559577Y-98184555D01*
X209558293Y-98186519D01*
X209606324Y-98231974D01*
X209628330Y-98305896D01*
X209610428Y-98380917D01*
X209559269Y-98434974D01*
X209559577Y-98435445D01*
X209557607Y-98436731D01*
X209557413Y-98436937D01*
X209556381Y-98437532D01*
X209554420Y-98438813D01*
X209476951Y-98499111D01*
X209376760Y-98577094D01*
X209376758Y-98577095D01*
X209376758Y-98577096D01*
X209224275Y-98742735D01*
X209101138Y-98931210D01*
X209010705Y-99137378D01*
X208955435Y-99355635D01*
X208936844Y-99579999D01*
X208936844Y-99580000D01*
X208955435Y-99804364D01*
X209010705Y-100022621D01*
X209101138Y-100228789D01*
X209138912Y-100286606D01*
X209224278Y-100417268D01*
X209376760Y-100582906D01*
X209525442Y-100698631D01*
X209554420Y-100721186D01*
X209554427Y-100721191D01*
X209736010Y-100819459D01*
X209792030Y-100872473D01*
X209814037Y-100946395D01*
X209796135Y-101021416D01*
X209743121Y-101077436D01*
X209669199Y-101099443D01*
X209665094Y-101099500D01*
X181239664Y-101099500D01*
X181165164Y-101079538D01*
X181110626Y-101025000D01*
X181090664Y-100950500D01*
X181100059Y-100898429D01*
X181126200Y-100828342D01*
X181151989Y-100759201D01*
X181158500Y-100698638D01*
X181158500Y-98901362D01*
X181151989Y-98840799D01*
X181100889Y-98703796D01*
X181013261Y-98586739D01*
X180896204Y-98499111D01*
X180855149Y-98483798D01*
X180759200Y-98448010D01*
X180698652Y-98441501D01*
X180698643Y-98441500D01*
X180698638Y-98441500D01*
X178901362Y-98441500D01*
X178901356Y-98441500D01*
X178901347Y-98441501D01*
X178840799Y-98448010D01*
X178703798Y-98499110D01*
X178703794Y-98499112D01*
X178586739Y-98586739D01*
X178499112Y-98703794D01*
X178499110Y-98703798D01*
X178468095Y-98786951D01*
X178423356Y-98849778D01*
X178353197Y-98881817D01*
X178276419Y-98874485D01*
X178218868Y-98835795D01*
X178183245Y-98797098D01*
X178005579Y-98658813D01*
X178005572Y-98658808D01*
X177807579Y-98551660D01*
X177807575Y-98551658D01*
X177594634Y-98478555D01*
X177594630Y-98478554D01*
X177400376Y-98446140D01*
X177372569Y-98441500D01*
X177147431Y-98441500D01*
X176925369Y-98478554D01*
X176925365Y-98478555D01*
X176712424Y-98551658D01*
X176712420Y-98551660D01*
X176514427Y-98658808D01*
X176514420Y-98658813D01*
X176387353Y-98757715D01*
X176336760Y-98797094D01*
X176336758Y-98797095D01*
X176336758Y-98797096D01*
X176184275Y-98962735D01*
X176061138Y-99151210D01*
X175970705Y-99357378D01*
X175915435Y-99575635D01*
X175896844Y-99799999D01*
X175896844Y-99800000D01*
X175915435Y-100024364D01*
X175970705Y-100242621D01*
X176061138Y-100448789D01*
X176184275Y-100637264D01*
X176184278Y-100637268D01*
X176336760Y-100802906D01*
X176375322Y-100832920D01*
X176421850Y-100894431D01*
X176431390Y-100970967D01*
X176401383Y-101042019D01*
X176339871Y-101088548D01*
X176283802Y-101099500D01*
X173156198Y-101099500D01*
X173081698Y-101079538D01*
X173027160Y-101025000D01*
X173007198Y-100950500D01*
X173027160Y-100876000D01*
X173064677Y-100832920D01*
X173103240Y-100802906D01*
X173255722Y-100637268D01*
X173378860Y-100448791D01*
X173392689Y-100417264D01*
X173469294Y-100242621D01*
X173469294Y-100242619D01*
X173469296Y-100242616D01*
X173524564Y-100024368D01*
X173543156Y-99800000D01*
X173524564Y-99575632D01*
X173469296Y-99357384D01*
X173469294Y-99357381D01*
X173469294Y-99357378D01*
X173378861Y-99151210D01*
X173255724Y-98962735D01*
X173255723Y-98962734D01*
X173255722Y-98962732D01*
X173103240Y-98797094D01*
X172925576Y-98658811D01*
X172925572Y-98658808D01*
X172727579Y-98551660D01*
X172727575Y-98551658D01*
X172514634Y-98478555D01*
X172514630Y-98478554D01*
X172320376Y-98446140D01*
X172292569Y-98441500D01*
X172067431Y-98441500D01*
X171845369Y-98478554D01*
X171845365Y-98478555D01*
X171632424Y-98551658D01*
X171632420Y-98551660D01*
X171434427Y-98658808D01*
X171434420Y-98658813D01*
X171307353Y-98757715D01*
X171256760Y-98797094D01*
X171256758Y-98797095D01*
X171256758Y-98797096D01*
X171104277Y-98962733D01*
X171034738Y-99069171D01*
X170977278Y-99120621D01*
X170901792Y-99136449D01*
X170828504Y-99112413D01*
X170785262Y-99069171D01*
X170782549Y-99065019D01*
X170715722Y-98962732D01*
X170563240Y-98797094D01*
X170385576Y-98658811D01*
X170385572Y-98658808D01*
X170187579Y-98551660D01*
X170187575Y-98551658D01*
X169974634Y-98478555D01*
X169974630Y-98478554D01*
X169780376Y-98446140D01*
X169752569Y-98441500D01*
X169527431Y-98441500D01*
X169305369Y-98478554D01*
X169305365Y-98478555D01*
X169092424Y-98551658D01*
X169092420Y-98551660D01*
X168894427Y-98658808D01*
X168894420Y-98658813D01*
X168767353Y-98757715D01*
X168716760Y-98797094D01*
X168716758Y-98797095D01*
X168716758Y-98797096D01*
X168564277Y-98962733D01*
X168494738Y-99069171D01*
X168437278Y-99120621D01*
X168361792Y-99136449D01*
X168288504Y-99112413D01*
X168245262Y-99069171D01*
X168242549Y-99065019D01*
X168175722Y-98962732D01*
X168023240Y-98797094D01*
X167845576Y-98658811D01*
X167845572Y-98658808D01*
X167647579Y-98551660D01*
X167647575Y-98551658D01*
X167434634Y-98478555D01*
X167434630Y-98478554D01*
X167240376Y-98446140D01*
X167212569Y-98441500D01*
X166987431Y-98441500D01*
X166765369Y-98478554D01*
X166765365Y-98478555D01*
X166552424Y-98551658D01*
X166552420Y-98551660D01*
X166354427Y-98658808D01*
X166354420Y-98658813D01*
X166227353Y-98757715D01*
X166176760Y-98797094D01*
X166176758Y-98797095D01*
X166176758Y-98797096D01*
X166024277Y-98962733D01*
X165954738Y-99069171D01*
X165897278Y-99120621D01*
X165821792Y-99136449D01*
X165748504Y-99112413D01*
X165705262Y-99069171D01*
X165702549Y-99065019D01*
X165635722Y-98962732D01*
X165483240Y-98797094D01*
X165305576Y-98658811D01*
X165305572Y-98658808D01*
X165107579Y-98551660D01*
X165107575Y-98551658D01*
X164894634Y-98478555D01*
X164894630Y-98478554D01*
X164700376Y-98446140D01*
X164672569Y-98441500D01*
X164447431Y-98441500D01*
X164225369Y-98478554D01*
X164225365Y-98478555D01*
X164012424Y-98551658D01*
X164012420Y-98551660D01*
X163814427Y-98658808D01*
X163814420Y-98658813D01*
X163687353Y-98757715D01*
X163636760Y-98797094D01*
X163636758Y-98797095D01*
X163636758Y-98797096D01*
X163484277Y-98962733D01*
X163414738Y-99069171D01*
X163357278Y-99120621D01*
X163281792Y-99136449D01*
X163208504Y-99112413D01*
X163165262Y-99069171D01*
X163162549Y-99065019D01*
X163095722Y-98962732D01*
X162943240Y-98797094D01*
X162765576Y-98658811D01*
X162765572Y-98658808D01*
X162567579Y-98551660D01*
X162567575Y-98551658D01*
X162354634Y-98478555D01*
X162354630Y-98478554D01*
X162160376Y-98446140D01*
X162132569Y-98441500D01*
X161907431Y-98441500D01*
X161685369Y-98478554D01*
X161685365Y-98478555D01*
X161472424Y-98551658D01*
X161472420Y-98551660D01*
X161274427Y-98658808D01*
X161274420Y-98658813D01*
X161147353Y-98757715D01*
X161096760Y-98797094D01*
X161096758Y-98797095D01*
X161096758Y-98797096D01*
X160944275Y-98962735D01*
X160821138Y-99151210D01*
X160730705Y-99357378D01*
X160675435Y-99575635D01*
X160656844Y-99799999D01*
X160656844Y-99800000D01*
X160675435Y-100024364D01*
X160730705Y-100242621D01*
X160821138Y-100448789D01*
X160944275Y-100637264D01*
X160944278Y-100637268D01*
X161096760Y-100802906D01*
X161135322Y-100832920D01*
X161181850Y-100894431D01*
X161191390Y-100970967D01*
X161161383Y-101042019D01*
X161099871Y-101088548D01*
X161043802Y-101099500D01*
X90691847Y-101099500D01*
X90617347Y-101079538D01*
X90562809Y-101025000D01*
X90542847Y-100950500D01*
X90562809Y-100876000D01*
X90602555Y-100831219D01*
X90606398Y-100828342D01*
X90653261Y-100793261D01*
X90740889Y-100676204D01*
X90791989Y-100539201D01*
X90798500Y-100478638D01*
X90798500Y-100307500D01*
X90818462Y-100233000D01*
X90873000Y-100178462D01*
X90947500Y-100158500D01*
X139910849Y-100158500D01*
X139928153Y-100160410D01*
X139928201Y-100159906D01*
X139937536Y-100160787D01*
X139937537Y-100160788D01*
X139937537Y-100160787D01*
X139937538Y-100160788D01*
X140010342Y-100158500D01*
X140041430Y-100158500D01*
X140041432Y-100158500D01*
X140048238Y-100157639D01*
X140055235Y-100157089D01*
X140083262Y-100156208D01*
X140103831Y-100155562D01*
X140103833Y-100155561D01*
X140103836Y-100155561D01*
X140122679Y-100150086D01*
X140145577Y-100145343D01*
X140165064Y-100142882D01*
X140210286Y-100124977D01*
X140216900Y-100122712D01*
X140263600Y-100109145D01*
X140263602Y-100109144D01*
X140280499Y-100099151D01*
X140301504Y-100088861D01*
X140302597Y-100088427D01*
X140319756Y-100081635D01*
X140359099Y-100053049D01*
X140364950Y-100049205D01*
X140406807Y-100024453D01*
X140420696Y-100010562D01*
X140438469Y-99995383D01*
X140454357Y-99983841D01*
X140485347Y-99946378D01*
X140490057Y-99941201D01*
X147931258Y-92500000D01*
X190886738Y-92500000D01*
X190905766Y-92802453D01*
X190905767Y-92802463D01*
X190962555Y-93100156D01*
X191056203Y-93388372D01*
X191056211Y-93388393D01*
X191185237Y-93662590D01*
X191185242Y-93662599D01*
X191325035Y-93882876D01*
X191347630Y-93918480D01*
X191414005Y-93998713D01*
X191540809Y-94151994D01*
X191540815Y-94151999D01*
X191761716Y-94359439D01*
X191761723Y-94359444D01*
X191761729Y-94359450D01*
X191862536Y-94432690D01*
X192006906Y-94537582D01*
X192006910Y-94537584D01*
X192272483Y-94683585D01*
X192554261Y-94795149D01*
X192847800Y-94870516D01*
X193148470Y-94908500D01*
X193451530Y-94908500D01*
X193752200Y-94870516D01*
X194045739Y-94795149D01*
X194327517Y-94683585D01*
X194593090Y-94537584D01*
X194838271Y-94359450D01*
X195059192Y-94151992D01*
X195252370Y-93918480D01*
X195414758Y-93662598D01*
X195543794Y-93388381D01*
X195637445Y-93100154D01*
X195694233Y-92802462D01*
X195713262Y-92500000D01*
X195694233Y-92197538D01*
X195637445Y-91899846D01*
X195543794Y-91611619D01*
X195543788Y-91611606D01*
X195414762Y-91337409D01*
X195414757Y-91337400D01*
X195252373Y-91081525D01*
X195252370Y-91081520D01*
X195059192Y-90848008D01*
X195059190Y-90848005D01*
X195059184Y-90848000D01*
X194838283Y-90640560D01*
X194838275Y-90640553D01*
X194838271Y-90640550D01*
X194736376Y-90566519D01*
X194593093Y-90462417D01*
X194327519Y-90316416D01*
X194327507Y-90316411D01*
X194045744Y-90204853D01*
X194045739Y-90204851D01*
X194045734Y-90204849D01*
X194045732Y-90204849D01*
X193962647Y-90183517D01*
X193752200Y-90129484D01*
X193451530Y-90091500D01*
X193148470Y-90091500D01*
X192847800Y-90129484D01*
X192783454Y-90146005D01*
X192554267Y-90204849D01*
X192554255Y-90204853D01*
X192272492Y-90316411D01*
X192272480Y-90316416D01*
X192006906Y-90462417D01*
X191761734Y-90640546D01*
X191761716Y-90640560D01*
X191540815Y-90848000D01*
X191540809Y-90848005D01*
X191347626Y-91081525D01*
X191185242Y-91337400D01*
X191185237Y-91337409D01*
X191056211Y-91611606D01*
X191056203Y-91611627D01*
X190962555Y-91899843D01*
X190905767Y-92197536D01*
X190905766Y-92197546D01*
X190886738Y-92500000D01*
X147931258Y-92500000D01*
X158102592Y-82328666D01*
X158116176Y-82317786D01*
X158115852Y-82317395D01*
X158123071Y-82311421D01*
X158123080Y-82311416D01*
X158172945Y-82258314D01*
X158194927Y-82236333D01*
X158199133Y-82230909D01*
X158203686Y-82225577D01*
X158236972Y-82190133D01*
X158246430Y-82172928D01*
X158259266Y-82153386D01*
X158271304Y-82137868D01*
X158290621Y-82093225D01*
X158293704Y-82086936D01*
X158317124Y-82044337D01*
X158322005Y-82025323D01*
X158329583Y-82003192D01*
X158337380Y-81985176D01*
X158344988Y-81937128D01*
X158346402Y-81930302D01*
X158358500Y-81883188D01*
X158358500Y-81863551D01*
X158360334Y-81840243D01*
X158363406Y-81820848D01*
X158358831Y-81772443D01*
X158358500Y-81765428D01*
X158358500Y-80000000D01*
X190886738Y-80000000D01*
X190905766Y-80302453D01*
X190905767Y-80302463D01*
X190962555Y-80600156D01*
X191056203Y-80888372D01*
X191056211Y-80888393D01*
X191185237Y-81162590D01*
X191185242Y-81162599D01*
X191308853Y-81357378D01*
X191347630Y-81418480D01*
X191462667Y-81557536D01*
X191540809Y-81651994D01*
X191540815Y-81651999D01*
X191761716Y-81859439D01*
X191761723Y-81859444D01*
X191761729Y-81859450D01*
X191767374Y-81863551D01*
X192006906Y-82037582D01*
X192096680Y-82086936D01*
X192272483Y-82183585D01*
X192554261Y-82295149D01*
X192847800Y-82370516D01*
X193148470Y-82408500D01*
X193451530Y-82408500D01*
X193752200Y-82370516D01*
X194045739Y-82295149D01*
X194327517Y-82183585D01*
X194593090Y-82037584D01*
X194838271Y-81859450D01*
X194858725Y-81840243D01*
X194934648Y-81768946D01*
X195059192Y-81651992D01*
X195252370Y-81418480D01*
X195414758Y-81162598D01*
X195543794Y-80888381D01*
X195637445Y-80600154D01*
X195694233Y-80302462D01*
X195713262Y-80000000D01*
X195694233Y-79697538D01*
X195637445Y-79399846D01*
X195543794Y-79111619D01*
X195508039Y-79035635D01*
X195414762Y-78837409D01*
X195414757Y-78837400D01*
X195252373Y-78581525D01*
X195252370Y-78581520D01*
X195059192Y-78348008D01*
X195059190Y-78348005D01*
X195059184Y-78348000D01*
X194838283Y-78140560D01*
X194838275Y-78140553D01*
X194838271Y-78140550D01*
X194781030Y-78098962D01*
X194593093Y-77962417D01*
X194327519Y-77816416D01*
X194327507Y-77816411D01*
X194139665Y-77742039D01*
X194045739Y-77704851D01*
X194045734Y-77704849D01*
X194045732Y-77704849D01*
X193956704Y-77681991D01*
X193752200Y-77629484D01*
X193451530Y-77591500D01*
X193148470Y-77591500D01*
X192847800Y-77629484D01*
X192742576Y-77656500D01*
X192554267Y-77704849D01*
X192554255Y-77704853D01*
X192272492Y-77816411D01*
X192272480Y-77816416D01*
X192006906Y-77962417D01*
X191761734Y-78140546D01*
X191761716Y-78140560D01*
X191540815Y-78348000D01*
X191540809Y-78348005D01*
X191347626Y-78581525D01*
X191185242Y-78837400D01*
X191185237Y-78837409D01*
X191056211Y-79111606D01*
X191056203Y-79111627D01*
X190962555Y-79399843D01*
X190905767Y-79697536D01*
X190905766Y-79697546D01*
X190886738Y-80000000D01*
X158358500Y-80000000D01*
X158358500Y-73600000D01*
X175436844Y-73600000D01*
X175455435Y-73824364D01*
X175510705Y-74042621D01*
X175601138Y-74248789D01*
X175724275Y-74437264D01*
X175724278Y-74437268D01*
X175876760Y-74602906D01*
X176041482Y-74731116D01*
X176054420Y-74741186D01*
X176054427Y-74741191D01*
X176252420Y-74848339D01*
X176252426Y-74848342D01*
X176434445Y-74910829D01*
X176465365Y-74921444D01*
X176465369Y-74921445D01*
X176520783Y-74930691D01*
X176687431Y-74958500D01*
X176687433Y-74958500D01*
X176912567Y-74958500D01*
X176912569Y-74958500D01*
X177107024Y-74926051D01*
X177134630Y-74921445D01*
X177134631Y-74921444D01*
X177134635Y-74921444D01*
X177347574Y-74848342D01*
X177545576Y-74741189D01*
X177723240Y-74602906D01*
X177875722Y-74437268D01*
X177998860Y-74248791D01*
X178066253Y-74095149D01*
X178089294Y-74042621D01*
X178089294Y-74042619D01*
X178089296Y-74042616D01*
X178144564Y-73824368D01*
X178163156Y-73600000D01*
X178144564Y-73375632D01*
X178089296Y-73157384D01*
X178089294Y-73157381D01*
X178089294Y-73157378D01*
X177998861Y-72951210D01*
X177875724Y-72762735D01*
X177875723Y-72762734D01*
X177875722Y-72762732D01*
X177723240Y-72597094D01*
X177545576Y-72458811D01*
X177545572Y-72458808D01*
X177347579Y-72351660D01*
X177347575Y-72351658D01*
X177134634Y-72278555D01*
X177134630Y-72278554D01*
X176922127Y-72243095D01*
X176912569Y-72241500D01*
X176687431Y-72241500D01*
X176465369Y-72278554D01*
X176465365Y-72278555D01*
X176252424Y-72351658D01*
X176252420Y-72351660D01*
X176054427Y-72458808D01*
X176054420Y-72458813D01*
X175944755Y-72544171D01*
X175876760Y-72597094D01*
X175876758Y-72597095D01*
X175876758Y-72597096D01*
X175724275Y-72762735D01*
X175601138Y-72951210D01*
X175510705Y-73157378D01*
X175455435Y-73375635D01*
X175436844Y-73599999D01*
X175436844Y-73600000D01*
X158358500Y-73600000D01*
X158358500Y-70477114D01*
X158378462Y-70402614D01*
X158402141Y-70371755D01*
X159771755Y-69002141D01*
X159838550Y-68963577D01*
X159877114Y-68958500D01*
X160677608Y-68958500D01*
X160752108Y-68978462D01*
X160806646Y-69033000D01*
X160826608Y-69107500D01*
X160814058Y-69167352D01*
X160730705Y-69357378D01*
X160675435Y-69575635D01*
X160656844Y-69799999D01*
X160656844Y-69800000D01*
X160675435Y-70024364D01*
X160730705Y-70242621D01*
X160821138Y-70448789D01*
X160944275Y-70637264D01*
X160944278Y-70637268D01*
X161096760Y-70802906D01*
X161233288Y-70909171D01*
X161274420Y-70941186D01*
X161274427Y-70941191D01*
X161472420Y-71048339D01*
X161472426Y-71048342D01*
X161685365Y-71121444D01*
X161685369Y-71121445D01*
X161740783Y-71130691D01*
X161907431Y-71158500D01*
X161907433Y-71158500D01*
X162132567Y-71158500D01*
X162132569Y-71158500D01*
X162327024Y-71126051D01*
X162354630Y-71121445D01*
X162354631Y-71121444D01*
X162354635Y-71121444D01*
X162567574Y-71048342D01*
X162765576Y-70941189D01*
X162943240Y-70802906D01*
X163095722Y-70637268D01*
X163165262Y-70530829D01*
X163222721Y-70479378D01*
X163298208Y-70463550D01*
X163371495Y-70487586D01*
X163414738Y-70530829D01*
X163484165Y-70637096D01*
X163484278Y-70637268D01*
X163636760Y-70802906D01*
X163773288Y-70909171D01*
X163814420Y-70941186D01*
X163814427Y-70941191D01*
X164012420Y-71048339D01*
X164012426Y-71048342D01*
X164225365Y-71121444D01*
X164225369Y-71121445D01*
X164280783Y-71130691D01*
X164447431Y-71158500D01*
X164447433Y-71158500D01*
X164672567Y-71158500D01*
X164672569Y-71158500D01*
X164867024Y-71126051D01*
X164894630Y-71121445D01*
X164894631Y-71121444D01*
X164894635Y-71121444D01*
X165107574Y-71048342D01*
X165305576Y-70941189D01*
X165483240Y-70802906D01*
X165635722Y-70637268D01*
X165705262Y-70530829D01*
X165762721Y-70479378D01*
X165838208Y-70463550D01*
X165911495Y-70487586D01*
X165954738Y-70530829D01*
X166024165Y-70637096D01*
X166024278Y-70637268D01*
X166176760Y-70802906D01*
X166313288Y-70909171D01*
X166354420Y-70941186D01*
X166354427Y-70941191D01*
X166552420Y-71048339D01*
X166552426Y-71048342D01*
X166765365Y-71121444D01*
X166765369Y-71121445D01*
X166820783Y-71130691D01*
X166987431Y-71158500D01*
X166987433Y-71158500D01*
X167212567Y-71158500D01*
X167212569Y-71158500D01*
X167407024Y-71126051D01*
X167434630Y-71121445D01*
X167434631Y-71121444D01*
X167434635Y-71121444D01*
X167647574Y-71048342D01*
X167845576Y-70941189D01*
X168023240Y-70802906D01*
X168175722Y-70637268D01*
X168245262Y-70530829D01*
X168302721Y-70479378D01*
X168378208Y-70463550D01*
X168451495Y-70487586D01*
X168494738Y-70530829D01*
X168564165Y-70637096D01*
X168564278Y-70637268D01*
X168716760Y-70802906D01*
X168853288Y-70909171D01*
X168894420Y-70941186D01*
X168894427Y-70941191D01*
X169092420Y-71048339D01*
X169092426Y-71048342D01*
X169305365Y-71121444D01*
X169305369Y-71121445D01*
X169360783Y-71130691D01*
X169527431Y-71158500D01*
X169527433Y-71158500D01*
X169752567Y-71158500D01*
X169752569Y-71158500D01*
X169947024Y-71126051D01*
X169974630Y-71121445D01*
X169974631Y-71121444D01*
X169974635Y-71121444D01*
X170187574Y-71048342D01*
X170385576Y-70941189D01*
X170563240Y-70802906D01*
X170715722Y-70637268D01*
X170785262Y-70530829D01*
X170842721Y-70479378D01*
X170918208Y-70463550D01*
X170991495Y-70487586D01*
X171034738Y-70530829D01*
X171104165Y-70637096D01*
X171104278Y-70637268D01*
X171256760Y-70802906D01*
X171393288Y-70909171D01*
X171434420Y-70941186D01*
X171434427Y-70941191D01*
X171632420Y-71048339D01*
X171632426Y-71048342D01*
X171845365Y-71121444D01*
X171845369Y-71121445D01*
X171900783Y-71130691D01*
X172067431Y-71158500D01*
X172067433Y-71158500D01*
X172292567Y-71158500D01*
X172292569Y-71158500D01*
X172487024Y-71126051D01*
X172514630Y-71121445D01*
X172514631Y-71121444D01*
X172514635Y-71121444D01*
X172727574Y-71048342D01*
X172925576Y-70941189D01*
X173103240Y-70802906D01*
X173255722Y-70637268D01*
X173378860Y-70448791D01*
X173403921Y-70391658D01*
X173469294Y-70242621D01*
X173469294Y-70242619D01*
X173469296Y-70242616D01*
X173524564Y-70024368D01*
X173543156Y-69800000D01*
X173524564Y-69575632D01*
X173469296Y-69357384D01*
X173469294Y-69357381D01*
X173469294Y-69357378D01*
X173378861Y-69151210D01*
X173255724Y-68962735D01*
X173255723Y-68962734D01*
X173255722Y-68962732D01*
X173103240Y-68797094D01*
X172931689Y-68663569D01*
X172925575Y-68658810D01*
X172925570Y-68658807D01*
X172916576Y-68653939D01*
X172860560Y-68600922D01*
X172838556Y-68526999D01*
X172838500Y-68522902D01*
X172838500Y-68469148D01*
X172840410Y-68451841D01*
X172839906Y-68451794D01*
X172840788Y-68442461D01*
X172838500Y-68369657D01*
X172838500Y-68338564D01*
X172837640Y-68331762D01*
X172837089Y-68324758D01*
X172835562Y-68276175D01*
X172835562Y-68276169D01*
X172830083Y-68257310D01*
X172825344Y-68234429D01*
X172822882Y-68214936D01*
X172812876Y-68189664D01*
X172804983Y-68169727D01*
X172802708Y-68163083D01*
X172790262Y-68120244D01*
X172789145Y-68116400D01*
X172779151Y-68099502D01*
X172768862Y-68078500D01*
X172761635Y-68060244D01*
X172733046Y-68020895D01*
X172729207Y-68015051D01*
X172704452Y-67973193D01*
X172690563Y-67959304D01*
X172675390Y-67941540D01*
X172663841Y-67925643D01*
X172626381Y-67894653D01*
X172621186Y-67889927D01*
X171444119Y-66712859D01*
X171405555Y-66646064D01*
X171405555Y-66568936D01*
X171444119Y-66502141D01*
X171510914Y-66463577D01*
X171549478Y-66458500D01*
X174265522Y-66458500D01*
X174340022Y-66478462D01*
X174370881Y-66502141D01*
X176402499Y-68533759D01*
X176441063Y-68600554D01*
X176441063Y-68677682D01*
X176402499Y-68744477D01*
X176388659Y-68756699D01*
X176336758Y-68797095D01*
X176184275Y-68962735D01*
X176061138Y-69151210D01*
X175970705Y-69357378D01*
X175915435Y-69575635D01*
X175896844Y-69799999D01*
X175896844Y-69800000D01*
X175915435Y-70024364D01*
X175970705Y-70242621D01*
X176061138Y-70448789D01*
X176184275Y-70637264D01*
X176184278Y-70637268D01*
X176336760Y-70802906D01*
X176473288Y-70909171D01*
X176514420Y-70941186D01*
X176514427Y-70941191D01*
X176712420Y-71048339D01*
X176712426Y-71048342D01*
X176925365Y-71121444D01*
X176925369Y-71121445D01*
X176980783Y-71130691D01*
X177147431Y-71158500D01*
X177147433Y-71158500D01*
X177372567Y-71158500D01*
X177372569Y-71158500D01*
X177567024Y-71126051D01*
X177594630Y-71121445D01*
X177594631Y-71121444D01*
X177594635Y-71121444D01*
X177807574Y-71048342D01*
X178005576Y-70941189D01*
X178183240Y-70802906D01*
X178218868Y-70764203D01*
X178284010Y-70722913D01*
X178361072Y-70719725D01*
X178429404Y-70755495D01*
X178468095Y-70813048D01*
X178499111Y-70896204D01*
X178586739Y-71013261D01*
X178703796Y-71100889D01*
X178840799Y-71151989D01*
X178901362Y-71158500D01*
X178901369Y-71158500D01*
X180698631Y-71158500D01*
X180698638Y-71158500D01*
X180759201Y-71151989D01*
X180896204Y-71100889D01*
X181013261Y-71013261D01*
X181100889Y-70896204D01*
X181151989Y-70759201D01*
X181158500Y-70698638D01*
X181158500Y-68901362D01*
X181151989Y-68840799D01*
X181100889Y-68703796D01*
X181013261Y-68586739D01*
X180896204Y-68499111D01*
X180870852Y-68489655D01*
X180759200Y-68448010D01*
X180698652Y-68441501D01*
X180698643Y-68441500D01*
X180698638Y-68441500D01*
X180698631Y-68441500D01*
X180604520Y-68441500D01*
X180530020Y-68421538D01*
X180475482Y-68367000D01*
X180457903Y-68305289D01*
X180457028Y-68305428D01*
X180455881Y-68298190D01*
X180455593Y-68297179D01*
X180455562Y-68296169D01*
X180450083Y-68277310D01*
X180445344Y-68254429D01*
X180442882Y-68234936D01*
X180428454Y-68198495D01*
X180424983Y-68189727D01*
X180422708Y-68183084D01*
X180409145Y-68136400D01*
X180399149Y-68119498D01*
X180388861Y-68098496D01*
X180381636Y-68080246D01*
X180381634Y-68080243D01*
X180368039Y-68061532D01*
X180356495Y-68045643D01*
X180353058Y-68040912D01*
X180349201Y-68035040D01*
X180329745Y-68002141D01*
X180324453Y-67993193D01*
X180310567Y-67979307D01*
X180295382Y-67961527D01*
X180283843Y-67945645D01*
X180278871Y-67941532D01*
X180259664Y-67925642D01*
X180246381Y-67914653D01*
X180241187Y-67909927D01*
X177228668Y-64897408D01*
X177217784Y-64883822D01*
X177217394Y-64884146D01*
X177211417Y-64876921D01*
X177201677Y-64867775D01*
X177158314Y-64827054D01*
X177136333Y-64805073D01*
X177130906Y-64800863D01*
X177125571Y-64796306D01*
X177090132Y-64763027D01*
X177090126Y-64763023D01*
X177072927Y-64753568D01*
X177053387Y-64740733D01*
X177037869Y-64728696D01*
X176993244Y-64709384D01*
X176986940Y-64706296D01*
X176944336Y-64682875D01*
X176944334Y-64682874D01*
X176925315Y-64677991D01*
X176903201Y-64670420D01*
X176885178Y-64662621D01*
X176885180Y-64662621D01*
X176885176Y-64662620D01*
X176885174Y-64662619D01*
X176885170Y-64662618D01*
X176837146Y-64655012D01*
X176830271Y-64653588D01*
X176783191Y-64641500D01*
X176783188Y-64641500D01*
X176763552Y-64641500D01*
X176740245Y-64639666D01*
X176732290Y-64638406D01*
X176720848Y-64636594D01*
X176720847Y-64636594D01*
X176672444Y-64641169D01*
X176665429Y-64641500D01*
X158389150Y-64641500D01*
X158371845Y-64639589D01*
X158371798Y-64640094D01*
X158362460Y-64639211D01*
X158289657Y-64641500D01*
X158258554Y-64641500D01*
X158251747Y-64642360D01*
X158244755Y-64642910D01*
X158196168Y-64644437D01*
X158196163Y-64644438D01*
X158177310Y-64649915D01*
X158154427Y-64654654D01*
X158134937Y-64657116D01*
X158089721Y-64675017D01*
X158083081Y-64677291D01*
X158036397Y-64690855D01*
X158019493Y-64700852D01*
X157998502Y-64711135D01*
X157980248Y-64718362D01*
X157980239Y-64718366D01*
X157940896Y-64746949D01*
X157935032Y-64750802D01*
X157893191Y-64775548D01*
X157893189Y-64775550D01*
X157879302Y-64789436D01*
X157861533Y-64804612D01*
X157845648Y-64816154D01*
X157845637Y-64816163D01*
X157814647Y-64853623D01*
X157809922Y-64858816D01*
X154297405Y-68371333D01*
X154283822Y-68382218D01*
X154284144Y-68382607D01*
X154276920Y-68388583D01*
X154227053Y-68441685D01*
X154205074Y-68463665D01*
X154205070Y-68463669D01*
X154200862Y-68469094D01*
X154196310Y-68474423D01*
X154163027Y-68509867D01*
X154163025Y-68509871D01*
X154153564Y-68527079D01*
X154140736Y-68546608D01*
X154128698Y-68562127D01*
X154128693Y-68562136D01*
X154109382Y-68606760D01*
X154106294Y-68613062D01*
X154082877Y-68655660D01*
X154082873Y-68655669D01*
X154077991Y-68674684D01*
X154070420Y-68696797D01*
X154062620Y-68714820D01*
X154062619Y-68714823D01*
X154055012Y-68762854D01*
X154053588Y-68769728D01*
X154041500Y-68816813D01*
X154041500Y-68836448D01*
X154039666Y-68859754D01*
X154036594Y-68879151D01*
X154041169Y-68927556D01*
X154041500Y-68934571D01*
X154041500Y-80222886D01*
X154021538Y-80297386D01*
X153997859Y-80328245D01*
X138528245Y-95797859D01*
X138461450Y-95836423D01*
X138422886Y-95841500D01*
X103634478Y-95841500D01*
X103559978Y-95821538D01*
X103529119Y-95797859D01*
X100231260Y-92500000D01*
X133686738Y-92500000D01*
X133705766Y-92802453D01*
X133705767Y-92802463D01*
X133762555Y-93100156D01*
X133856203Y-93388372D01*
X133856211Y-93388393D01*
X133985237Y-93662590D01*
X133985242Y-93662599D01*
X134125035Y-93882876D01*
X134147630Y-93918480D01*
X134214005Y-93998713D01*
X134340809Y-94151994D01*
X134340815Y-94151999D01*
X134561716Y-94359439D01*
X134561723Y-94359444D01*
X134561729Y-94359450D01*
X134662536Y-94432690D01*
X134806906Y-94537582D01*
X134806910Y-94537584D01*
X135072483Y-94683585D01*
X135354261Y-94795149D01*
X135647800Y-94870516D01*
X135948470Y-94908500D01*
X136251530Y-94908500D01*
X136552200Y-94870516D01*
X136845739Y-94795149D01*
X137127517Y-94683585D01*
X137393090Y-94537584D01*
X137638271Y-94359450D01*
X137859192Y-94151992D01*
X138052370Y-93918480D01*
X138214758Y-93662598D01*
X138343794Y-93388381D01*
X138437445Y-93100154D01*
X138494233Y-92802462D01*
X138513262Y-92500000D01*
X138494233Y-92197538D01*
X138437445Y-91899846D01*
X138343794Y-91611619D01*
X138343788Y-91611606D01*
X138214762Y-91337409D01*
X138214757Y-91337400D01*
X138052373Y-91081525D01*
X138052370Y-91081520D01*
X137859192Y-90848008D01*
X137859190Y-90848005D01*
X137859184Y-90848000D01*
X137638283Y-90640560D01*
X137638275Y-90640553D01*
X137638271Y-90640550D01*
X137536376Y-90566519D01*
X137393093Y-90462417D01*
X137127519Y-90316416D01*
X137127507Y-90316411D01*
X136845744Y-90204853D01*
X136845739Y-90204851D01*
X136845734Y-90204849D01*
X136845732Y-90204849D01*
X136762647Y-90183517D01*
X136552200Y-90129484D01*
X136251530Y-90091500D01*
X135948470Y-90091500D01*
X135647800Y-90129484D01*
X135583454Y-90146005D01*
X135354267Y-90204849D01*
X135354255Y-90204853D01*
X135072492Y-90316411D01*
X135072480Y-90316416D01*
X134806906Y-90462417D01*
X134561734Y-90640546D01*
X134561716Y-90640560D01*
X134340815Y-90848000D01*
X134340809Y-90848005D01*
X134147626Y-91081525D01*
X133985242Y-91337400D01*
X133985237Y-91337409D01*
X133856211Y-91611606D01*
X133856203Y-91611627D01*
X133762555Y-91899843D01*
X133705767Y-92197536D01*
X133705766Y-92197546D01*
X133686738Y-92500000D01*
X100231260Y-92500000D01*
X91668668Y-83937408D01*
X91657784Y-83923822D01*
X91657394Y-83924146D01*
X91651417Y-83916921D01*
X91598314Y-83867054D01*
X91576332Y-83845072D01*
X91570906Y-83840863D01*
X91565571Y-83836306D01*
X91530132Y-83803027D01*
X91530126Y-83803023D01*
X91512927Y-83793568D01*
X91493387Y-83780733D01*
X91477869Y-83768696D01*
X91433244Y-83749384D01*
X91426940Y-83746296D01*
X91384336Y-83722875D01*
X91384334Y-83722874D01*
X91365315Y-83717991D01*
X91343201Y-83710420D01*
X91325178Y-83702621D01*
X91325180Y-83702621D01*
X91325176Y-83702620D01*
X91325174Y-83702619D01*
X91325170Y-83702618D01*
X91277146Y-83695012D01*
X91270271Y-83693588D01*
X91223191Y-83681500D01*
X91223188Y-83681500D01*
X91203552Y-83681500D01*
X91180245Y-83679666D01*
X91172290Y-83678406D01*
X91160848Y-83676594D01*
X91160847Y-83676594D01*
X91112444Y-83681169D01*
X91105429Y-83681500D01*
X90713152Y-83681500D01*
X90638652Y-83661538D01*
X90588414Y-83613995D01*
X90515724Y-83502735D01*
X90515723Y-83502734D01*
X90515722Y-83502732D01*
X90363240Y-83337094D01*
X90185576Y-83198811D01*
X90185575Y-83198810D01*
X90180423Y-83195445D01*
X90181710Y-83193473D01*
X90133700Y-83148067D01*
X90111670Y-83074152D01*
X90129548Y-82999125D01*
X90180723Y-82945014D01*
X90180423Y-82944555D01*
X90182345Y-82943299D01*
X90182545Y-82943088D01*
X90183608Y-82942473D01*
X90185566Y-82941194D01*
X90185576Y-82941189D01*
X90363240Y-82802906D01*
X90515722Y-82637268D01*
X90638860Y-82448791D01*
X90706253Y-82295149D01*
X90729294Y-82242621D01*
X90729294Y-82242619D01*
X90729296Y-82242616D01*
X90784564Y-82024368D01*
X90803156Y-81800000D01*
X90784564Y-81575632D01*
X90729296Y-81357384D01*
X90729294Y-81357381D01*
X90729294Y-81357378D01*
X90638861Y-81151210D01*
X90515724Y-80962735D01*
X90515723Y-80962734D01*
X90515722Y-80962732D01*
X90363240Y-80797094D01*
X90185576Y-80658811D01*
X90185575Y-80658810D01*
X90180423Y-80655445D01*
X90181710Y-80653473D01*
X90133700Y-80608067D01*
X90111670Y-80534152D01*
X90129548Y-80459125D01*
X90180723Y-80405014D01*
X90180423Y-80404555D01*
X90182345Y-80403299D01*
X90182545Y-80403088D01*
X90183608Y-80402473D01*
X90185566Y-80401194D01*
X90185576Y-80401189D01*
X90363240Y-80262906D01*
X90515722Y-80097268D01*
X90638860Y-79908791D01*
X90687854Y-79797096D01*
X90729294Y-79702621D01*
X90729294Y-79702619D01*
X90729296Y-79702616D01*
X90784564Y-79484368D01*
X90803156Y-79260000D01*
X90784564Y-79035632D01*
X90729296Y-78817384D01*
X90729294Y-78817381D01*
X90729294Y-78817378D01*
X90638861Y-78611210D01*
X90515724Y-78422735D01*
X90515723Y-78422734D01*
X90515722Y-78422732D01*
X90363240Y-78257094D01*
X90213501Y-78140546D01*
X90185579Y-78118813D01*
X90180423Y-78115445D01*
X90181710Y-78113473D01*
X90133700Y-78068067D01*
X90111670Y-77994152D01*
X90129548Y-77919125D01*
X90180723Y-77865014D01*
X90180423Y-77864555D01*
X90182345Y-77863299D01*
X90182545Y-77863088D01*
X90183608Y-77862473D01*
X90185566Y-77861194D01*
X90185576Y-77861189D01*
X90363240Y-77722906D01*
X90515722Y-77557268D01*
X90638860Y-77368791D01*
X90642052Y-77361515D01*
X90729294Y-77162621D01*
X90729294Y-77162619D01*
X90729296Y-77162616D01*
X90784564Y-76944368D01*
X90803156Y-76720000D01*
X90784564Y-76495632D01*
X90729296Y-76277384D01*
X90729294Y-76277381D01*
X90729294Y-76277378D01*
X90638861Y-76071210D01*
X90515724Y-75882735D01*
X90515723Y-75882734D01*
X90515722Y-75882732D01*
X90363240Y-75717094D01*
X90185576Y-75578811D01*
X90185575Y-75578810D01*
X90180423Y-75575445D01*
X90181710Y-75573473D01*
X90133700Y-75528067D01*
X90111670Y-75454152D01*
X90129548Y-75379125D01*
X90180723Y-75325014D01*
X90180423Y-75324555D01*
X90182345Y-75323299D01*
X90182545Y-75323088D01*
X90183608Y-75322473D01*
X90185566Y-75321194D01*
X90185576Y-75321189D01*
X90363240Y-75182906D01*
X90515722Y-75017268D01*
X90638860Y-74828791D01*
X90638861Y-74828789D01*
X90729294Y-74622621D01*
X90729294Y-74622619D01*
X90729296Y-74622616D01*
X90784564Y-74404368D01*
X90803156Y-74180000D01*
X90784564Y-73955632D01*
X90729296Y-73737384D01*
X90729294Y-73737381D01*
X90729294Y-73737378D01*
X90638861Y-73531210D01*
X90515724Y-73342735D01*
X90515723Y-73342734D01*
X90515722Y-73342732D01*
X90363240Y-73177094D01*
X90223814Y-73068573D01*
X90185579Y-73038813D01*
X90180423Y-73035445D01*
X90181710Y-73033473D01*
X90133700Y-72988067D01*
X90111670Y-72914152D01*
X90129548Y-72839125D01*
X90180723Y-72785014D01*
X90180423Y-72784555D01*
X90182345Y-72783299D01*
X90182545Y-72783088D01*
X90183608Y-72782473D01*
X90185566Y-72781194D01*
X90185576Y-72781189D01*
X90363240Y-72642906D01*
X90515722Y-72477268D01*
X90638860Y-72288791D01*
X90642613Y-72280235D01*
X90729294Y-72082621D01*
X90729294Y-72082619D01*
X90729296Y-72082616D01*
X90784564Y-71864368D01*
X90789898Y-71800000D01*
X117886738Y-71800000D01*
X117905766Y-72102453D01*
X117905767Y-72102463D01*
X117962555Y-72400156D01*
X118056203Y-72688372D01*
X118056211Y-72688393D01*
X118185237Y-72962590D01*
X118185242Y-72962599D01*
X118321367Y-73177096D01*
X118347630Y-73218480D01*
X118450420Y-73342732D01*
X118540809Y-73451994D01*
X118540815Y-73451999D01*
X118761716Y-73659439D01*
X118761723Y-73659444D01*
X118761729Y-73659450D01*
X118808448Y-73693393D01*
X119006906Y-73837582D01*
X119006910Y-73837584D01*
X119272483Y-73983585D01*
X119554261Y-74095149D01*
X119847800Y-74170516D01*
X120148470Y-74208500D01*
X120451530Y-74208500D01*
X120752200Y-74170516D01*
X121045739Y-74095149D01*
X121327517Y-73983585D01*
X121593090Y-73837584D01*
X121838271Y-73659450D01*
X122059192Y-73451992D01*
X122252370Y-73218480D01*
X122414758Y-72962598D01*
X122543794Y-72688381D01*
X122637445Y-72400154D01*
X122694233Y-72102462D01*
X122713262Y-71800000D01*
X122694233Y-71497538D01*
X122637445Y-71199846D01*
X122543794Y-70911619D01*
X122536539Y-70896201D01*
X122414762Y-70637409D01*
X122414757Y-70637400D01*
X122252373Y-70381525D01*
X122252370Y-70381520D01*
X122096075Y-70192592D01*
X122059190Y-70148005D01*
X122059184Y-70148000D01*
X121838283Y-69940560D01*
X121838275Y-69940553D01*
X121838271Y-69940550D01*
X121718359Y-69853429D01*
X121593093Y-69762417D01*
X121327519Y-69616416D01*
X121327507Y-69616411D01*
X121045744Y-69504853D01*
X121045739Y-69504851D01*
X121045734Y-69504849D01*
X121045732Y-69504849D01*
X120929666Y-69475049D01*
X120752200Y-69429484D01*
X120451530Y-69391500D01*
X120148470Y-69391500D01*
X119847800Y-69429484D01*
X119742576Y-69456500D01*
X119554267Y-69504849D01*
X119554255Y-69504853D01*
X119272492Y-69616411D01*
X119272480Y-69616416D01*
X119006906Y-69762417D01*
X118761734Y-69940546D01*
X118761716Y-69940560D01*
X118540815Y-70148000D01*
X118540809Y-70148005D01*
X118347626Y-70381525D01*
X118185242Y-70637400D01*
X118185237Y-70637409D01*
X118056211Y-70911606D01*
X118056203Y-70911627D01*
X117962555Y-71199843D01*
X117905767Y-71497536D01*
X117905766Y-71497546D01*
X117886738Y-71800000D01*
X90789898Y-71800000D01*
X90803156Y-71640000D01*
X90784564Y-71415632D01*
X90729296Y-71197384D01*
X90729294Y-71197381D01*
X90729294Y-71197378D01*
X90638861Y-70991210D01*
X90515724Y-70802735D01*
X90515723Y-70802734D01*
X90515722Y-70802732D01*
X90363240Y-70637094D01*
X90223814Y-70528573D01*
X90185579Y-70498813D01*
X90185572Y-70498808D01*
X89987579Y-70391660D01*
X89987575Y-70391658D01*
X89774634Y-70318555D01*
X89774630Y-70318554D01*
X89580376Y-70286140D01*
X89552569Y-70281500D01*
X89327431Y-70281500D01*
X89105369Y-70318554D01*
X89105365Y-70318555D01*
X88892424Y-70391658D01*
X88892420Y-70391660D01*
X88694427Y-70498808D01*
X88694420Y-70498813D01*
X88567353Y-70597715D01*
X88516760Y-70637094D01*
X88516758Y-70637095D01*
X88516758Y-70637096D01*
X88364277Y-70802733D01*
X88294738Y-70909171D01*
X88237278Y-70960621D01*
X88161792Y-70976449D01*
X88088504Y-70952413D01*
X88045262Y-70909171D01*
X88036788Y-70896201D01*
X87975722Y-70802732D01*
X87823240Y-70637094D01*
X87683814Y-70528573D01*
X87645579Y-70498813D01*
X87645572Y-70498808D01*
X87447579Y-70391660D01*
X87447575Y-70391658D01*
X87234634Y-70318555D01*
X87234630Y-70318554D01*
X87040376Y-70286140D01*
X87012569Y-70281500D01*
X86787431Y-70281500D01*
X86565369Y-70318554D01*
X86565365Y-70318555D01*
X86352424Y-70391658D01*
X86352420Y-70391660D01*
X86154427Y-70498808D01*
X86154420Y-70498813D01*
X86027353Y-70597715D01*
X85976760Y-70637094D01*
X85976758Y-70637095D01*
X85976758Y-70637096D01*
X85824275Y-70802735D01*
X85736560Y-70936995D01*
X85679101Y-70988446D01*
X85611822Y-71004500D01*
X85564950Y-71004500D01*
X85490450Y-70984538D01*
X85459591Y-70960859D01*
X84079141Y-69580408D01*
X84040577Y-69513613D01*
X84035500Y-69475049D01*
X84035500Y-59705000D01*
X84676844Y-59705000D01*
X84695435Y-59929364D01*
X84750705Y-60147621D01*
X84841138Y-60353789D01*
X84908491Y-60456880D01*
X84964275Y-60542264D01*
X84964277Y-60542266D01*
X84964278Y-60542268D01*
X85084303Y-60672649D01*
X85120075Y-60740980D01*
X85116888Y-60818042D01*
X85075596Y-60883186D01*
X85026753Y-60913169D01*
X84943796Y-60944111D01*
X84943794Y-60944112D01*
X84826739Y-61031739D01*
X84739112Y-61148794D01*
X84739110Y-61148798D01*
X84688010Y-61285799D01*
X84681501Y-61346347D01*
X84681500Y-61346368D01*
X84681500Y-63143631D01*
X84681501Y-63143652D01*
X84688010Y-63204200D01*
X84724829Y-63302912D01*
X84739111Y-63341204D01*
X84826739Y-63458261D01*
X84943796Y-63545889D01*
X85080799Y-63596989D01*
X85141362Y-63603500D01*
X86438049Y-63603500D01*
X86512549Y-63623462D01*
X86543408Y-63647141D01*
X87124392Y-64228125D01*
X87135052Y-64241429D01*
X87135473Y-64241082D01*
X87141444Y-64248300D01*
X87141446Y-64248302D01*
X87141447Y-64248303D01*
X87192693Y-64296426D01*
X87213906Y-64317639D01*
X87219055Y-64321633D01*
X87224366Y-64326169D01*
X87258494Y-64358217D01*
X87274745Y-64367151D01*
X87294277Y-64379981D01*
X87308934Y-64391350D01*
X87351881Y-64409934D01*
X87358176Y-64413017D01*
X87399197Y-64435569D01*
X87417151Y-64440178D01*
X87439270Y-64447751D01*
X87456292Y-64455117D01*
X87502525Y-64462438D01*
X87509379Y-64463858D01*
X87554718Y-64475500D01*
X87573261Y-64475500D01*
X87596569Y-64477334D01*
X87614880Y-64480235D01*
X87646523Y-64477243D01*
X87661473Y-64475831D01*
X87668488Y-64475500D01*
X89563941Y-64475500D01*
X89638441Y-64495462D01*
X89685994Y-64539036D01*
X89695725Y-64552933D01*
X89741852Y-64618809D01*
X89891191Y-64768148D01*
X90064194Y-64889286D01*
X90255605Y-64978542D01*
X90459606Y-65033204D01*
X90670000Y-65051611D01*
X90880394Y-65033204D01*
X91084395Y-64978542D01*
X91275806Y-64889286D01*
X91279805Y-64886486D01*
X99786844Y-64886486D01*
X99805435Y-65110850D01*
X99860705Y-65329107D01*
X99951138Y-65535275D01*
X100074275Y-65723750D01*
X100074278Y-65723754D01*
X100226760Y-65889392D01*
X100391482Y-66017602D01*
X100404420Y-66027672D01*
X100404427Y-66027677D01*
X100602420Y-66134825D01*
X100602426Y-66134828D01*
X100749796Y-66185420D01*
X100815365Y-66207930D01*
X100815369Y-66207931D01*
X100870783Y-66217177D01*
X101037431Y-66244986D01*
X101037433Y-66244986D01*
X101262566Y-66244986D01*
X101262569Y-66244986D01*
X101484469Y-66207957D01*
X101561233Y-66215385D01*
X101614348Y-66249566D01*
X102499389Y-67134607D01*
X102510049Y-67147913D01*
X102510471Y-67147565D01*
X102516444Y-67154784D01*
X102516447Y-67154789D01*
X102551412Y-67187623D01*
X102567709Y-67202927D01*
X102588905Y-67224123D01*
X102594047Y-67228112D01*
X102599374Y-67232663D01*
X102633494Y-67264703D01*
X102649747Y-67273638D01*
X102669278Y-67286468D01*
X102683933Y-67297835D01*
X102726889Y-67316423D01*
X102733172Y-67319502D01*
X102766937Y-67338064D01*
X102774197Y-67342055D01*
X102792151Y-67346665D01*
X102814270Y-67354238D01*
X102831287Y-67361601D01*
X102831292Y-67361603D01*
X102877525Y-67368924D01*
X102884379Y-67370344D01*
X102929718Y-67381986D01*
X102948260Y-67381986D01*
X102971568Y-67383820D01*
X102989879Y-67386721D01*
X103023349Y-67383557D01*
X103036472Y-67382317D01*
X103043487Y-67381986D01*
X104143941Y-67381986D01*
X104218441Y-67401948D01*
X104265994Y-67445522D01*
X104289059Y-67478462D01*
X104321852Y-67525295D01*
X104471191Y-67674634D01*
X104644194Y-67795772D01*
X104835605Y-67885028D01*
X105039606Y-67939690D01*
X105250000Y-67958097D01*
X105460394Y-67939690D01*
X105664395Y-67885028D01*
X105855806Y-67795772D01*
X106028809Y-67674634D01*
X106178148Y-67525295D01*
X106299286Y-67352292D01*
X106388542Y-67160881D01*
X106443204Y-66956880D01*
X106461611Y-66746486D01*
X106443204Y-66536092D01*
X106388542Y-66332091D01*
X106332943Y-66212859D01*
X106299289Y-66140686D01*
X106299286Y-66140681D01*
X106278493Y-66110986D01*
X106178148Y-65967677D01*
X106028809Y-65818338D01*
X105949035Y-65762479D01*
X105899460Y-65703396D01*
X105885500Y-65640427D01*
X105885500Y-65371436D01*
X105905462Y-65296936D01*
X105929141Y-65266077D01*
X106269592Y-64925627D01*
X106336387Y-64887063D01*
X106374951Y-64881986D01*
X107546811Y-64881986D01*
X107621311Y-64901948D01*
X107652170Y-64925627D01*
X107734846Y-65008303D01*
X107882078Y-65097308D01*
X107882080Y-65097309D01*
X107882087Y-65097313D01*
X107922364Y-65109863D01*
X108046346Y-65148498D01*
X108046348Y-65148498D01*
X108046351Y-65148499D01*
X108117735Y-65154986D01*
X108782264Y-65154985D01*
X108853649Y-65148499D01*
X109017913Y-65097313D01*
X109165155Y-65008302D01*
X109274726Y-64898731D01*
X109325230Y-64865554D01*
X109365328Y-64849678D01*
X109371943Y-64847414D01*
X109416894Y-64834355D01*
X109432850Y-64824917D01*
X109453843Y-64814632D01*
X109471089Y-64807805D01*
X109508954Y-64780294D01*
X109514814Y-64776443D01*
X109555099Y-64752620D01*
X109568207Y-64739510D01*
X109585986Y-64724327D01*
X109591365Y-64720419D01*
X109600988Y-64713428D01*
X109604334Y-64709384D01*
X109611391Y-64700852D01*
X109630828Y-64677356D01*
X109635529Y-64672188D01*
X109828580Y-64479139D01*
X109895374Y-64440577D01*
X109933937Y-64435500D01*
X120854026Y-64435500D01*
X120928526Y-64455462D01*
X120959385Y-64479141D01*
X124366859Y-67886615D01*
X124405423Y-67953410D01*
X124410500Y-67991974D01*
X124410500Y-76649049D01*
X124390538Y-76723549D01*
X124366859Y-76754408D01*
X121723408Y-79397859D01*
X121656613Y-79436423D01*
X121618049Y-79441500D01*
X120321362Y-79441500D01*
X120321356Y-79441500D01*
X120321347Y-79441501D01*
X120260799Y-79448010D01*
X120123798Y-79499110D01*
X120123794Y-79499112D01*
X120006739Y-79586739D01*
X119919112Y-79703794D01*
X119919110Y-79703798D01*
X119868010Y-79840799D01*
X119861501Y-79901347D01*
X119861500Y-79901368D01*
X119861500Y-81698631D01*
X119861501Y-81698652D01*
X119868010Y-81759200D01*
X119872950Y-81772443D01*
X119919111Y-81896204D01*
X120006739Y-82013261D01*
X120123796Y-82100889D01*
X120260799Y-82151989D01*
X120321362Y-82158500D01*
X120321369Y-82158500D01*
X122118631Y-82158500D01*
X122118638Y-82158500D01*
X122179201Y-82151989D01*
X122316204Y-82100889D01*
X122433261Y-82013261D01*
X122520889Y-81896204D01*
X122571989Y-81759201D01*
X122578500Y-81698638D01*
X122578500Y-80401950D01*
X122598462Y-80327450D01*
X122622141Y-80296591D01*
X125154641Y-77764091D01*
X125221436Y-77725527D01*
X125298564Y-77725527D01*
X125365359Y-77764091D01*
X125620859Y-78019591D01*
X125659423Y-78086386D01*
X125664500Y-78124950D01*
X125664500Y-79510456D01*
X125644538Y-79584956D01*
X125590000Y-79639494D01*
X125586431Y-79641489D01*
X125554424Y-79658811D01*
X125554422Y-79658811D01*
X125554419Y-79658814D01*
X125496625Y-79703798D01*
X125376760Y-79797094D01*
X125376758Y-79797095D01*
X125376758Y-79797096D01*
X125224275Y-79962735D01*
X125101138Y-80151210D01*
X125010705Y-80357378D01*
X124955435Y-80575635D01*
X124936844Y-80799999D01*
X124936844Y-80800000D01*
X124955435Y-81024364D01*
X125010705Y-81242621D01*
X125101138Y-81448789D01*
X125184009Y-81575632D01*
X125224278Y-81637268D01*
X125376760Y-81802906D01*
X125540395Y-81930270D01*
X125554420Y-81941186D01*
X125554427Y-81941191D01*
X125745025Y-82044337D01*
X125752426Y-82048342D01*
X125965365Y-82121444D01*
X125965369Y-82121445D01*
X126020783Y-82130691D01*
X126187431Y-82158500D01*
X126187433Y-82158500D01*
X126412567Y-82158500D01*
X126412569Y-82158500D01*
X126607024Y-82126051D01*
X126634630Y-82121445D01*
X126634631Y-82121444D01*
X126634635Y-82121444D01*
X126847574Y-82048342D01*
X127045576Y-81941189D01*
X127223240Y-81802906D01*
X127375722Y-81637268D01*
X127498860Y-81448791D01*
X127512158Y-81418474D01*
X127589294Y-81242621D01*
X127589294Y-81242619D01*
X127589296Y-81242616D01*
X127644564Y-81024368D01*
X127663156Y-80800000D01*
X127644564Y-80575632D01*
X127589296Y-80357384D01*
X127589294Y-80357381D01*
X127589294Y-80357378D01*
X127498861Y-80151210D01*
X127400070Y-80000000D01*
X133686738Y-80000000D01*
X133705766Y-80302453D01*
X133705767Y-80302463D01*
X133762555Y-80600156D01*
X133856203Y-80888372D01*
X133856211Y-80888393D01*
X133985237Y-81162590D01*
X133985242Y-81162599D01*
X134108853Y-81357378D01*
X134147630Y-81418480D01*
X134262667Y-81557536D01*
X134340809Y-81651994D01*
X134340815Y-81651999D01*
X134561716Y-81859439D01*
X134561723Y-81859444D01*
X134561729Y-81859450D01*
X134567374Y-81863551D01*
X134806906Y-82037582D01*
X134896680Y-82086936D01*
X135072483Y-82183585D01*
X135354261Y-82295149D01*
X135647800Y-82370516D01*
X135948470Y-82408500D01*
X136251530Y-82408500D01*
X136552200Y-82370516D01*
X136845739Y-82295149D01*
X137127517Y-82183585D01*
X137393090Y-82037584D01*
X137638271Y-81859450D01*
X137658725Y-81840243D01*
X137734648Y-81768946D01*
X137859192Y-81651992D01*
X138052370Y-81418480D01*
X138214758Y-81162598D01*
X138343794Y-80888381D01*
X138437445Y-80600154D01*
X138494233Y-80302462D01*
X138513262Y-80000000D01*
X138494233Y-79697538D01*
X138437445Y-79399846D01*
X138343794Y-79111619D01*
X138308039Y-79035635D01*
X138214762Y-78837409D01*
X138214757Y-78837400D01*
X138052373Y-78581525D01*
X138052370Y-78581520D01*
X137859192Y-78348008D01*
X137859190Y-78348005D01*
X137859184Y-78348000D01*
X137638283Y-78140560D01*
X137638275Y-78140553D01*
X137638271Y-78140550D01*
X137581030Y-78098962D01*
X137393093Y-77962417D01*
X137127519Y-77816416D01*
X137127507Y-77816411D01*
X136939665Y-77742039D01*
X136845739Y-77704851D01*
X136845734Y-77704849D01*
X136845732Y-77704849D01*
X136756704Y-77681991D01*
X136552200Y-77629484D01*
X136251530Y-77591500D01*
X135948470Y-77591500D01*
X135647800Y-77629484D01*
X135542576Y-77656500D01*
X135354267Y-77704849D01*
X135354255Y-77704853D01*
X135072492Y-77816411D01*
X135072480Y-77816416D01*
X134806906Y-77962417D01*
X134561734Y-78140546D01*
X134561716Y-78140560D01*
X134340815Y-78348000D01*
X134340809Y-78348005D01*
X134147626Y-78581525D01*
X133985242Y-78837400D01*
X133985237Y-78837409D01*
X133856211Y-79111606D01*
X133856203Y-79111627D01*
X133762555Y-79399843D01*
X133705767Y-79697536D01*
X133705766Y-79697546D01*
X133686738Y-80000000D01*
X127400070Y-80000000D01*
X127375724Y-79962735D01*
X127375723Y-79962734D01*
X127375722Y-79962732D01*
X127223240Y-79797094D01*
X127045576Y-79658811D01*
X127013581Y-79641496D01*
X126957563Y-79588482D01*
X126935557Y-79514560D01*
X126935500Y-79510456D01*
X126935500Y-77886611D01*
X126937371Y-77869662D01*
X126936827Y-77869611D01*
X126937709Y-77860279D01*
X126935500Y-77789996D01*
X126935500Y-77760019D01*
X126935500Y-77760017D01*
X126934685Y-77753570D01*
X126934135Y-77746575D01*
X126932665Y-77699800D01*
X126932665Y-77699795D01*
X126927491Y-77681987D01*
X126922750Y-77659092D01*
X126922705Y-77658732D01*
X126920427Y-77640701D01*
X126903201Y-77597192D01*
X126900926Y-77590549D01*
X126891257Y-77557268D01*
X126887869Y-77545607D01*
X126878429Y-77529646D01*
X126868144Y-77508651D01*
X126861319Y-77491412D01*
X126833802Y-77453538D01*
X126829960Y-77447689D01*
X126806134Y-77407402D01*
X126793022Y-77394290D01*
X126777840Y-77376513D01*
X126776839Y-77375135D01*
X126766942Y-77361513D01*
X126766941Y-77361512D01*
X126730878Y-77331678D01*
X126725684Y-77326952D01*
X126179141Y-76780408D01*
X126140577Y-76713613D01*
X126135500Y-76675049D01*
X126135500Y-70735000D01*
X142196844Y-70735000D01*
X142215435Y-70959364D01*
X142270705Y-71177621D01*
X142361138Y-71383789D01*
X142435460Y-71497546D01*
X142484275Y-71572264D01*
X142484277Y-71572266D01*
X142484278Y-71572268D01*
X142604303Y-71702649D01*
X142640075Y-71770980D01*
X142636888Y-71848042D01*
X142595596Y-71913186D01*
X142546753Y-71943169D01*
X142463796Y-71974111D01*
X142463794Y-71974112D01*
X142346739Y-72061739D01*
X142259112Y-72178794D01*
X142259110Y-72178798D01*
X142208010Y-72315799D01*
X142201501Y-72376347D01*
X142201500Y-72376368D01*
X142201500Y-74173631D01*
X142201501Y-74173652D01*
X142208010Y-74234200D01*
X142228095Y-74288049D01*
X142259111Y-74371204D01*
X142346739Y-74488261D01*
X142463796Y-74575889D01*
X142600799Y-74626989D01*
X142661362Y-74633500D01*
X142661369Y-74633500D01*
X144458631Y-74633500D01*
X144458638Y-74633500D01*
X144519201Y-74626989D01*
X144656204Y-74575889D01*
X144773261Y-74488261D01*
X144860889Y-74371204D01*
X144891906Y-74288044D01*
X144936642Y-74225223D01*
X145006800Y-74193182D01*
X145083579Y-74200513D01*
X145141131Y-74239203D01*
X145176760Y-74277906D01*
X145189792Y-74288049D01*
X145354420Y-74416186D01*
X145354427Y-74416191D01*
X145552420Y-74523339D01*
X145552426Y-74523342D01*
X145765365Y-74596444D01*
X145765369Y-74596445D01*
X145820783Y-74605691D01*
X145987431Y-74633500D01*
X145987433Y-74633500D01*
X146212567Y-74633500D01*
X146212569Y-74633500D01*
X146407024Y-74601051D01*
X146434630Y-74596445D01*
X146434631Y-74596444D01*
X146434635Y-74596444D01*
X146647574Y-74523342D01*
X146845576Y-74416189D01*
X147023240Y-74277906D01*
X147175722Y-74112268D01*
X147245262Y-74005829D01*
X147302721Y-73954378D01*
X147378208Y-73938550D01*
X147451495Y-73962586D01*
X147494738Y-74005829D01*
X147553093Y-74095149D01*
X147564278Y-74112268D01*
X147716760Y-74277906D01*
X147879231Y-74404364D01*
X147894420Y-74416186D01*
X147894427Y-74416191D01*
X148092420Y-74523339D01*
X148092426Y-74523342D01*
X148305365Y-74596444D01*
X148305369Y-74596445D01*
X148360783Y-74605691D01*
X148527431Y-74633500D01*
X148527433Y-74633500D01*
X148752567Y-74633500D01*
X148752569Y-74633500D01*
X148947024Y-74601051D01*
X148974630Y-74596445D01*
X148974631Y-74596444D01*
X148974635Y-74596444D01*
X149187574Y-74523342D01*
X149385576Y-74416189D01*
X149563240Y-74277906D01*
X149715722Y-74112268D01*
X149838860Y-73923791D01*
X149876674Y-73837584D01*
X149929294Y-73717621D01*
X149929294Y-73717619D01*
X149929296Y-73717616D01*
X149984564Y-73499368D01*
X150003156Y-73275000D01*
X149984564Y-73050632D01*
X149929296Y-72832384D01*
X149929294Y-72832381D01*
X149929294Y-72832378D01*
X149838861Y-72626210D01*
X149715724Y-72437735D01*
X149715723Y-72437734D01*
X149715722Y-72437732D01*
X149563240Y-72272094D01*
X149416934Y-72158218D01*
X149385579Y-72133813D01*
X149380423Y-72130445D01*
X149381710Y-72128473D01*
X149333700Y-72083067D01*
X149311670Y-72009152D01*
X149329548Y-71934125D01*
X149380723Y-71880014D01*
X149380423Y-71879555D01*
X149382345Y-71878299D01*
X149382545Y-71878088D01*
X149383608Y-71877473D01*
X149385566Y-71876194D01*
X149385576Y-71876189D01*
X149563240Y-71737906D01*
X149715722Y-71572268D01*
X149838860Y-71383791D01*
X149838861Y-71383789D01*
X149929294Y-71177621D01*
X149929294Y-71177619D01*
X149929296Y-71177616D01*
X149984564Y-70959368D01*
X150003156Y-70735000D01*
X149984564Y-70510632D01*
X149929296Y-70292384D01*
X149929294Y-70292381D01*
X149929294Y-70292378D01*
X149838861Y-70086210D01*
X149715724Y-69897735D01*
X149715723Y-69897734D01*
X149715722Y-69897732D01*
X149563240Y-69732094D01*
X149385576Y-69593811D01*
X149385572Y-69593808D01*
X149187579Y-69486660D01*
X149187575Y-69486658D01*
X148974634Y-69413555D01*
X148974630Y-69413554D01*
X148780376Y-69381140D01*
X148752569Y-69376500D01*
X148527431Y-69376500D01*
X148305369Y-69413554D01*
X148305365Y-69413555D01*
X148092424Y-69486658D01*
X148092420Y-69486660D01*
X147894427Y-69593808D01*
X147894420Y-69593813D01*
X147767353Y-69692715D01*
X147716760Y-69732094D01*
X147716758Y-69732095D01*
X147716758Y-69732096D01*
X147564277Y-69897733D01*
X147494738Y-70004171D01*
X147437278Y-70055621D01*
X147361792Y-70071449D01*
X147288504Y-70047413D01*
X147245262Y-70004171D01*
X147242549Y-70000019D01*
X147175722Y-69897732D01*
X147023240Y-69732094D01*
X146845576Y-69593811D01*
X146845572Y-69593808D01*
X146647579Y-69486660D01*
X146647575Y-69486658D01*
X146434634Y-69413555D01*
X146434630Y-69413554D01*
X146240376Y-69381140D01*
X146212569Y-69376500D01*
X145987431Y-69376500D01*
X145765369Y-69413554D01*
X145765365Y-69413555D01*
X145552424Y-69486658D01*
X145552420Y-69486660D01*
X145354427Y-69593808D01*
X145354420Y-69593813D01*
X145227353Y-69692715D01*
X145176760Y-69732094D01*
X145176758Y-69732095D01*
X145176758Y-69732096D01*
X145024277Y-69897733D01*
X144954738Y-70004171D01*
X144897278Y-70055621D01*
X144821792Y-70071449D01*
X144748504Y-70047413D01*
X144705262Y-70004171D01*
X144702549Y-70000019D01*
X144635722Y-69897732D01*
X144483240Y-69732094D01*
X144305576Y-69593811D01*
X144305572Y-69593808D01*
X144107579Y-69486660D01*
X144107575Y-69486658D01*
X143894634Y-69413555D01*
X143894630Y-69413554D01*
X143700376Y-69381140D01*
X143672569Y-69376500D01*
X143447431Y-69376500D01*
X143225369Y-69413554D01*
X143225365Y-69413555D01*
X143012424Y-69486658D01*
X143012420Y-69486660D01*
X142814427Y-69593808D01*
X142814420Y-69593813D01*
X142687353Y-69692715D01*
X142636760Y-69732094D01*
X142636758Y-69732095D01*
X142636758Y-69732096D01*
X142484275Y-69897735D01*
X142361138Y-70086210D01*
X142270705Y-70292378D01*
X142215435Y-70510635D01*
X142196844Y-70734999D01*
X142196844Y-70735000D01*
X126135500Y-70735000D01*
X126135500Y-67565582D01*
X126137371Y-67548640D01*
X126136826Y-67548589D01*
X126137708Y-67539251D01*
X126135500Y-67468987D01*
X126135500Y-67438988D01*
X126134686Y-67432550D01*
X126134135Y-67425545D01*
X126132824Y-67383821D01*
X126132665Y-67378767D01*
X126127491Y-67360959D01*
X126122750Y-67338064D01*
X126120427Y-67319673D01*
X126109208Y-67291339D01*
X126103201Y-67276164D01*
X126100926Y-67269521D01*
X126090219Y-67232668D01*
X126087869Y-67224579D01*
X126078429Y-67208618D01*
X126068144Y-67187623D01*
X126061319Y-67170384D01*
X126033802Y-67132510D01*
X126029960Y-67126661D01*
X126006134Y-67086374D01*
X125993022Y-67073262D01*
X125977840Y-67055485D01*
X125966943Y-67040487D01*
X125966942Y-67040485D01*
X125930883Y-67010654D01*
X125925688Y-67005928D01*
X121877636Y-62957875D01*
X121866979Y-62944571D01*
X121866557Y-62944921D01*
X121860584Y-62937702D01*
X121860581Y-62937697D01*
X121809334Y-62889573D01*
X121788122Y-62868361D01*
X121788118Y-62868357D01*
X121782975Y-62864367D01*
X121777638Y-62859809D01*
X121773575Y-62855994D01*
X121743534Y-62827783D01*
X121727287Y-62818851D01*
X121707748Y-62806016D01*
X121693095Y-62794650D01*
X121693092Y-62794648D01*
X121693091Y-62794648D01*
X121676044Y-62787271D01*
X121650132Y-62776058D01*
X121643834Y-62772972D01*
X121602829Y-62750430D01*
X121602825Y-62750428D01*
X121584873Y-62745819D01*
X121562759Y-62738249D01*
X121545734Y-62730882D01*
X121499507Y-62723560D01*
X121492633Y-62722136D01*
X121447313Y-62710500D01*
X121447310Y-62710500D01*
X121428768Y-62710500D01*
X121405459Y-62708665D01*
X121387149Y-62705765D01*
X121340556Y-62710169D01*
X121333541Y-62710500D01*
X109950951Y-62710500D01*
X109876451Y-62690538D01*
X109845592Y-62666859D01*
X109678733Y-62500000D01*
X133686738Y-62500000D01*
X133705766Y-62802453D01*
X133705767Y-62802463D01*
X133762555Y-63100156D01*
X133856203Y-63388372D01*
X133856211Y-63388393D01*
X133985237Y-63662590D01*
X133985242Y-63662599D01*
X134147626Y-63918474D01*
X134147630Y-63918480D01*
X134147925Y-63918836D01*
X134340809Y-64151994D01*
X134340815Y-64151999D01*
X134561716Y-64359439D01*
X134561723Y-64359444D01*
X134561729Y-64359450D01*
X134662536Y-64432690D01*
X134806906Y-64537582D01*
X134903054Y-64590440D01*
X135072483Y-64683585D01*
X135354261Y-64795149D01*
X135647800Y-64870516D01*
X135948470Y-64908500D01*
X136251530Y-64908500D01*
X136552200Y-64870516D01*
X136845739Y-64795149D01*
X137127517Y-64683585D01*
X137393090Y-64537584D01*
X137638271Y-64359450D01*
X137682798Y-64317637D01*
X137714268Y-64288083D01*
X137859192Y-64151992D01*
X138052370Y-63918480D01*
X138214758Y-63662598D01*
X138216632Y-63658617D01*
X138297519Y-63486721D01*
X138343794Y-63388381D01*
X138437445Y-63100154D01*
X138494233Y-62802462D01*
X138513262Y-62500000D01*
X138494233Y-62197538D01*
X138437445Y-61899846D01*
X138343794Y-61611619D01*
X138340337Y-61604272D01*
X138214762Y-61337409D01*
X138214757Y-61337400D01*
X138052373Y-61081525D01*
X138052370Y-61081520D01*
X137891501Y-60887063D01*
X137859190Y-60848005D01*
X137859184Y-60848000D01*
X137638283Y-60640560D01*
X137638275Y-60640553D01*
X137638271Y-60640550D01*
X137581030Y-60598962D01*
X137393093Y-60462417D01*
X137127519Y-60316416D01*
X137127507Y-60316411D01*
X136845744Y-60204853D01*
X136845739Y-60204851D01*
X136845734Y-60204849D01*
X136845732Y-60204849D01*
X136762647Y-60183517D01*
X136552200Y-60129484D01*
X136251530Y-60091500D01*
X135948470Y-60091500D01*
X135647800Y-60129484D01*
X135577180Y-60147616D01*
X135354267Y-60204849D01*
X135354255Y-60204853D01*
X135072492Y-60316411D01*
X135072480Y-60316416D01*
X134806906Y-60462417D01*
X134561734Y-60640546D01*
X134561716Y-60640560D01*
X134340815Y-60848000D01*
X134340809Y-60848005D01*
X134147626Y-61081525D01*
X133985242Y-61337400D01*
X133985237Y-61337409D01*
X133856211Y-61611606D01*
X133856203Y-61611627D01*
X133762555Y-61899843D01*
X133705767Y-62197536D01*
X133705766Y-62197546D01*
X133686738Y-62500000D01*
X109678733Y-62500000D01*
X109637094Y-62458361D01*
X109626437Y-62445057D01*
X109626015Y-62445407D01*
X109620042Y-62438188D01*
X109620039Y-62438183D01*
X109568792Y-62390059D01*
X109547580Y-62368847D01*
X109547576Y-62368843D01*
X109542433Y-62364853D01*
X109537096Y-62360295D01*
X109502992Y-62328269D01*
X109486745Y-62319337D01*
X109467206Y-62306502D01*
X109452553Y-62295136D01*
X109452550Y-62295134D01*
X109452549Y-62295134D01*
X109435502Y-62287757D01*
X109409590Y-62276544D01*
X109403292Y-62273458D01*
X109362287Y-62250916D01*
X109360207Y-62250382D01*
X109358479Y-62249408D01*
X109353571Y-62247465D01*
X109353837Y-62246792D01*
X109293013Y-62212517D01*
X109291907Y-62211423D01*
X109286817Y-62206333D01*
X109286816Y-62206331D01*
X109165155Y-62084670D01*
X109165154Y-62084669D01*
X109165153Y-62084668D01*
X109017921Y-61995663D01*
X109017915Y-61995660D01*
X109017913Y-61995659D01*
X109017909Y-61995657D01*
X109017905Y-61995656D01*
X108853653Y-61944473D01*
X108827691Y-61942114D01*
X108782265Y-61937986D01*
X108782258Y-61937986D01*
X108117741Y-61937986D01*
X108046350Y-61944473D01*
X108046349Y-61944473D01*
X107882089Y-61995658D01*
X107882078Y-61995663D01*
X107734847Y-62084668D01*
X107734846Y-62084668D01*
X107652170Y-62167345D01*
X107585375Y-62205909D01*
X107546811Y-62210986D01*
X106496437Y-62210986D01*
X106421937Y-62191024D01*
X106391078Y-62167345D01*
X105959141Y-61735408D01*
X105920577Y-61668613D01*
X105915500Y-61630049D01*
X105915500Y-61352544D01*
X105935462Y-61278044D01*
X105979034Y-61230492D01*
X106058809Y-61174634D01*
X106208148Y-61025295D01*
X106329286Y-60852292D01*
X106418542Y-60660881D01*
X106473204Y-60456880D01*
X106491611Y-60246486D01*
X106473204Y-60036092D01*
X106418542Y-59832091D01*
X106362857Y-59712674D01*
X106329289Y-59640686D01*
X106329286Y-59640681D01*
X106310479Y-59613822D01*
X106208148Y-59467677D01*
X106058809Y-59318338D01*
X105885806Y-59197200D01*
X105885807Y-59197200D01*
X105885805Y-59197199D01*
X105885800Y-59197197D01*
X105694395Y-59107944D01*
X105694393Y-59107943D01*
X105490394Y-59053282D01*
X105490395Y-59053282D01*
X105280000Y-59034875D01*
X105069604Y-59053282D01*
X104865606Y-59107943D01*
X104865604Y-59107944D01*
X104674200Y-59197196D01*
X104674195Y-59197199D01*
X104501188Y-59318340D01*
X104351850Y-59467678D01*
X104295996Y-59547448D01*
X104236913Y-59597026D01*
X104173942Y-59610986D01*
X103336611Y-59610986D01*
X103319668Y-59609115D01*
X103319617Y-59609660D01*
X103310279Y-59608777D01*
X103240029Y-59610986D01*
X103210017Y-59610986D01*
X103210015Y-59610986D01*
X103210002Y-59610987D01*
X103203553Y-59611801D01*
X103196562Y-59612351D01*
X103149796Y-59613821D01*
X103149793Y-59613821D01*
X103131992Y-59618993D01*
X103109108Y-59623732D01*
X103090702Y-59626057D01*
X103090701Y-59626058D01*
X103047182Y-59643288D01*
X103040540Y-59645563D01*
X102995604Y-59658618D01*
X102979646Y-59668056D01*
X102958656Y-59678339D01*
X102941415Y-59685165D01*
X102941413Y-59685166D01*
X102903549Y-59712674D01*
X102897685Y-59716526D01*
X102857399Y-59740352D01*
X102844289Y-59753463D01*
X102826518Y-59768641D01*
X102811518Y-59779539D01*
X102811508Y-59779548D01*
X102781682Y-59815601D01*
X102776957Y-59820794D01*
X101653408Y-60944345D01*
X101586613Y-60982909D01*
X101548049Y-60987986D01*
X100251362Y-60987986D01*
X100251356Y-60987986D01*
X100251347Y-60987987D01*
X100190799Y-60994496D01*
X100053798Y-61045596D01*
X100053794Y-61045598D01*
X99936739Y-61133225D01*
X99849112Y-61250280D01*
X99849110Y-61250284D01*
X99798010Y-61387285D01*
X99791501Y-61447833D01*
X99791500Y-61447854D01*
X99791500Y-63245117D01*
X99791501Y-63245138D01*
X99798010Y-63305686D01*
X99828859Y-63388393D01*
X99849111Y-63442690D01*
X99936739Y-63559747D01*
X100053796Y-63647375D01*
X100083918Y-63658610D01*
X100136751Y-63678316D01*
X100199578Y-63723054D01*
X100231618Y-63793213D01*
X100224286Y-63869991D01*
X100194304Y-63918836D01*
X100074275Y-64049221D01*
X99951138Y-64237696D01*
X99860705Y-64443864D01*
X99805435Y-64662121D01*
X99786844Y-64886485D01*
X99786844Y-64886486D01*
X91279805Y-64886486D01*
X91448809Y-64768148D01*
X91598148Y-64618809D01*
X91719286Y-64445806D01*
X91808542Y-64254395D01*
X91863204Y-64050394D01*
X91881611Y-63840000D01*
X91863204Y-63629606D01*
X91808542Y-63425605D01*
X91764083Y-63330262D01*
X91719289Y-63234200D01*
X91719286Y-63234195D01*
X91698283Y-63204200D01*
X91598148Y-63061191D01*
X91448809Y-62911852D01*
X91369035Y-62855993D01*
X91319460Y-62796910D01*
X91305500Y-62733941D01*
X91305500Y-62124950D01*
X91325462Y-62050450D01*
X91349141Y-62019591D01*
X91619592Y-61749141D01*
X91686387Y-61710577D01*
X91724951Y-61705500D01*
X93205441Y-61705500D01*
X93222383Y-61707370D01*
X93222435Y-61706826D01*
X93231770Y-61707707D01*
X93231771Y-61707708D01*
X93231771Y-61707707D01*
X93231772Y-61707708D01*
X93266904Y-61706604D01*
X93302037Y-61705500D01*
X93332035Y-61705500D01*
X93332036Y-61705500D01*
X93334218Y-61705224D01*
X93338480Y-61704685D01*
X93345480Y-61704135D01*
X93376483Y-61703160D01*
X93392257Y-61702665D01*
X93410067Y-61697490D01*
X93432947Y-61692751D01*
X93451351Y-61690427D01*
X93494873Y-61673195D01*
X93501487Y-61670930D01*
X93546445Y-61657869D01*
X93562401Y-61648431D01*
X93583394Y-61638146D01*
X93600640Y-61631319D01*
X93638505Y-61603808D01*
X93644365Y-61599957D01*
X93684650Y-61576134D01*
X93697758Y-61563024D01*
X93715537Y-61547841D01*
X93716083Y-61547443D01*
X93730539Y-61536942D01*
X93760375Y-61500874D01*
X93765085Y-61495697D01*
X97081643Y-58179141D01*
X97148438Y-58140577D01*
X97187002Y-58135500D01*
X180051198Y-58135500D01*
X180125698Y-58155462D01*
X180156557Y-58179141D01*
X182171860Y-60194444D01*
X182210424Y-60261239D01*
X182215501Y-60299803D01*
X182215501Y-72102776D01*
X182195539Y-72177276D01*
X182141001Y-72231814D01*
X182066501Y-72251776D01*
X182041979Y-72249744D01*
X181992573Y-72241500D01*
X181992569Y-72241500D01*
X181767431Y-72241500D01*
X181545369Y-72278554D01*
X181545365Y-72278555D01*
X181332424Y-72351658D01*
X181332420Y-72351660D01*
X181134427Y-72458808D01*
X181134420Y-72458813D01*
X181024755Y-72544171D01*
X180956760Y-72597094D01*
X180956758Y-72597095D01*
X180956758Y-72597096D01*
X180804275Y-72762735D01*
X180681138Y-72951210D01*
X180590705Y-73157378D01*
X180535435Y-73375635D01*
X180516844Y-73599999D01*
X180516844Y-73600000D01*
X180535435Y-73824364D01*
X180590705Y-74042621D01*
X180681138Y-74248789D01*
X180804275Y-74437264D01*
X180804278Y-74437268D01*
X180956760Y-74602906D01*
X181121482Y-74731116D01*
X181134420Y-74741186D01*
X181134427Y-74741191D01*
X181332420Y-74848339D01*
X181332426Y-74848342D01*
X181514445Y-74910829D01*
X181545365Y-74921444D01*
X181545369Y-74921445D01*
X181600783Y-74930691D01*
X181767431Y-74958500D01*
X181767433Y-74958500D01*
X181992567Y-74958500D01*
X181992569Y-74958500D01*
X182187024Y-74926051D01*
X182214630Y-74921445D01*
X182214631Y-74921444D01*
X182214635Y-74921444D01*
X182427574Y-74848342D01*
X182625576Y-74741189D01*
X182803240Y-74602906D01*
X182955722Y-74437268D01*
X183025262Y-74330829D01*
X183082721Y-74279378D01*
X183158208Y-74263550D01*
X183231495Y-74287586D01*
X183274738Y-74330829D01*
X183330507Y-74416191D01*
X183344278Y-74437268D01*
X183496760Y-74602906D01*
X183661482Y-74731116D01*
X183674420Y-74741186D01*
X183674427Y-74741191D01*
X183872420Y-74848339D01*
X183872426Y-74848342D01*
X184054445Y-74910829D01*
X184085365Y-74921444D01*
X184085369Y-74921445D01*
X184140783Y-74930691D01*
X184307431Y-74958500D01*
X184307433Y-74958500D01*
X184532567Y-74958500D01*
X184532569Y-74958500D01*
X184727024Y-74926051D01*
X184754630Y-74921445D01*
X184754631Y-74921444D01*
X184754635Y-74921444D01*
X184967574Y-74848342D01*
X185081936Y-74786452D01*
X185156956Y-74768551D01*
X185230878Y-74790558D01*
X185283892Y-74846577D01*
X185298406Y-74885641D01*
X185309697Y-74937240D01*
X185309705Y-74937267D01*
X185344748Y-75041920D01*
X185344752Y-75041928D01*
X185424065Y-75164687D01*
X185424070Y-75164694D01*
X185439928Y-75182906D01*
X185469949Y-75217383D01*
X185469956Y-75217389D01*
X185580633Y-75312826D01*
X185580634Y-75312826D01*
X185580636Y-75312828D01*
X185713731Y-75373223D01*
X185780818Y-75392746D01*
X185780822Y-75392747D01*
X185925542Y-75413197D01*
X190466495Y-75402217D01*
X190573937Y-75390586D01*
X190624662Y-75379601D01*
X190727278Y-75345745D01*
X190850573Y-75267258D01*
X190903574Y-75221731D01*
X190903576Y-75221729D01*
X190907370Y-75217389D01*
X190999763Y-75111683D01*
X190999763Y-75111682D01*
X191031987Y-75041920D01*
X191061051Y-74978997D01*
X191081024Y-74912043D01*
X191102447Y-74767465D01*
X191112959Y-72326746D01*
X191101462Y-72216457D01*
X191090257Y-72164412D01*
X191088203Y-72158218D01*
X191055358Y-72059179D01*
X191055355Y-72059175D01*
X191055355Y-72059173D01*
X190976336Y-71936218D01*
X190930581Y-71883414D01*
X190834317Y-71800000D01*
X207886738Y-71800000D01*
X207905766Y-72102453D01*
X207905767Y-72102463D01*
X207962555Y-72400156D01*
X208056203Y-72688372D01*
X208056211Y-72688393D01*
X208185237Y-72962590D01*
X208185242Y-72962599D01*
X208321367Y-73177096D01*
X208347630Y-73218480D01*
X208450420Y-73342732D01*
X208540809Y-73451994D01*
X208540815Y-73451999D01*
X208761716Y-73659439D01*
X208761723Y-73659444D01*
X208761729Y-73659450D01*
X208808448Y-73693393D01*
X209006906Y-73837582D01*
X209006910Y-73837584D01*
X209272483Y-73983585D01*
X209554261Y-74095149D01*
X209847800Y-74170516D01*
X210148470Y-74208500D01*
X210451530Y-74208500D01*
X210752200Y-74170516D01*
X211045739Y-74095149D01*
X211327517Y-73983585D01*
X211593090Y-73837584D01*
X211838271Y-73659450D01*
X212059192Y-73451992D01*
X212252370Y-73218480D01*
X212414758Y-72962598D01*
X212543794Y-72688381D01*
X212637445Y-72400154D01*
X212694233Y-72102462D01*
X212713262Y-71800000D01*
X212694233Y-71497538D01*
X212637445Y-71199846D01*
X212543794Y-70911619D01*
X212536539Y-70896201D01*
X212414762Y-70637409D01*
X212414757Y-70637400D01*
X212252373Y-70381525D01*
X212252370Y-70381520D01*
X212096075Y-70192592D01*
X212059190Y-70148005D01*
X212059184Y-70148000D01*
X211838283Y-69940560D01*
X211838275Y-69940553D01*
X211838271Y-69940550D01*
X211718359Y-69853429D01*
X211593093Y-69762417D01*
X211327519Y-69616416D01*
X211327507Y-69616411D01*
X211045744Y-69504853D01*
X211045739Y-69504851D01*
X211045734Y-69504849D01*
X211045732Y-69504849D01*
X210929666Y-69475049D01*
X210752200Y-69429484D01*
X210451530Y-69391500D01*
X210148470Y-69391500D01*
X209847800Y-69429484D01*
X209742576Y-69456500D01*
X209554267Y-69504849D01*
X209554255Y-69504853D01*
X209272492Y-69616411D01*
X209272480Y-69616416D01*
X209006906Y-69762417D01*
X208761734Y-69940546D01*
X208761716Y-69940560D01*
X208540815Y-70148000D01*
X208540809Y-70148005D01*
X208347626Y-70381525D01*
X208185242Y-70637400D01*
X208185237Y-70637409D01*
X208056211Y-70911606D01*
X208056203Y-70911627D01*
X207962555Y-71199843D01*
X207905767Y-71497536D01*
X207905766Y-71497546D01*
X207886738Y-71800000D01*
X190834317Y-71800000D01*
X190820126Y-71787703D01*
X190820125Y-71787702D01*
X190711082Y-71737903D01*
X190687178Y-71726986D01*
X190687176Y-71726985D01*
X190687173Y-71726984D01*
X190620137Y-71707300D01*
X190620136Y-71707299D01*
X190620125Y-71707297D01*
X190475479Y-71686501D01*
X190475467Y-71686500D01*
X190475465Y-71686500D01*
X185924000Y-71686500D01*
X185923994Y-71686500D01*
X185923986Y-71686501D01*
X185814844Y-71698235D01*
X185814842Y-71698235D01*
X185763335Y-71709441D01*
X185659170Y-71744111D01*
X185659167Y-71744112D01*
X185536222Y-71823125D01*
X185536217Y-71823129D01*
X185483418Y-71868880D01*
X185483416Y-71868882D01*
X185483414Y-71868884D01*
X185473770Y-71880014D01*
X185387702Y-71979339D01*
X185326984Y-72112291D01*
X185307300Y-72179328D01*
X185290204Y-72298228D01*
X185259843Y-72369129D01*
X185198098Y-72415350D01*
X185121516Y-72424506D01*
X185071805Y-72408065D01*
X185057190Y-72400156D01*
X184967574Y-72351658D01*
X184967573Y-72351657D01*
X184967572Y-72351657D01*
X184754634Y-72278555D01*
X184754630Y-72278554D01*
X184542127Y-72243095D01*
X184532569Y-72241500D01*
X184307431Y-72241500D01*
X184114025Y-72273773D01*
X184037255Y-72266345D01*
X183974485Y-72221527D01*
X183942533Y-72151329D01*
X183940501Y-72126805D01*
X183940501Y-62500000D01*
X190886738Y-62500000D01*
X190905766Y-62802453D01*
X190905767Y-62802463D01*
X190962555Y-63100156D01*
X191056203Y-63388372D01*
X191056211Y-63388393D01*
X191185237Y-63662590D01*
X191185242Y-63662599D01*
X191347626Y-63918474D01*
X191347630Y-63918480D01*
X191347925Y-63918836D01*
X191540809Y-64151994D01*
X191540815Y-64151999D01*
X191761716Y-64359439D01*
X191761723Y-64359444D01*
X191761729Y-64359450D01*
X191862536Y-64432690D01*
X192006906Y-64537582D01*
X192103054Y-64590440D01*
X192272483Y-64683585D01*
X192554261Y-64795149D01*
X192847800Y-64870516D01*
X193148470Y-64908500D01*
X193451530Y-64908500D01*
X193752200Y-64870516D01*
X194045739Y-64795149D01*
X194327517Y-64683585D01*
X194593090Y-64537584D01*
X194838271Y-64359450D01*
X194882798Y-64317637D01*
X194914268Y-64288083D01*
X195059192Y-64151992D01*
X195252370Y-63918480D01*
X195414758Y-63662598D01*
X195416632Y-63658617D01*
X195497519Y-63486721D01*
X195543794Y-63388381D01*
X195637445Y-63100154D01*
X195694233Y-62802462D01*
X195713262Y-62500000D01*
X195694233Y-62197538D01*
X195637445Y-61899846D01*
X195543794Y-61611619D01*
X195540337Y-61604272D01*
X195414762Y-61337409D01*
X195414757Y-61337400D01*
X195252373Y-61081525D01*
X195252370Y-61081520D01*
X195091501Y-60887063D01*
X195059190Y-60848005D01*
X195059184Y-60848000D01*
X194838283Y-60640560D01*
X194838275Y-60640553D01*
X194838271Y-60640550D01*
X194781030Y-60598962D01*
X194593093Y-60462417D01*
X194327519Y-60316416D01*
X194327507Y-60316411D01*
X194045744Y-60204853D01*
X194045739Y-60204851D01*
X194045734Y-60204849D01*
X194045732Y-60204849D01*
X193962647Y-60183517D01*
X193752200Y-60129484D01*
X193451530Y-60091500D01*
X193148470Y-60091500D01*
X192847800Y-60129484D01*
X192777180Y-60147616D01*
X192554267Y-60204849D01*
X192554255Y-60204853D01*
X192272492Y-60316411D01*
X192272480Y-60316416D01*
X192006906Y-60462417D01*
X191761734Y-60640546D01*
X191761716Y-60640560D01*
X191540815Y-60848000D01*
X191540809Y-60848005D01*
X191347626Y-61081525D01*
X191185242Y-61337400D01*
X191185237Y-61337409D01*
X191056211Y-61611606D01*
X191056203Y-61611627D01*
X190962555Y-61899843D01*
X190905767Y-62197536D01*
X190905766Y-62197546D01*
X190886738Y-62500000D01*
X183940501Y-62500000D01*
X183940501Y-59873412D01*
X183942372Y-59856463D01*
X183941828Y-59856412D01*
X183942710Y-59847080D01*
X183940501Y-59776797D01*
X183940501Y-59746820D01*
X183940501Y-59746818D01*
X183939686Y-59740371D01*
X183939136Y-59733376D01*
X183937666Y-59686601D01*
X183937666Y-59686596D01*
X183932492Y-59668788D01*
X183927751Y-59645893D01*
X183927709Y-59645563D01*
X183925428Y-59627502D01*
X183908202Y-59583993D01*
X183905927Y-59577350D01*
X183899031Y-59553613D01*
X183892870Y-59532408D01*
X183883430Y-59516447D01*
X183873145Y-59495452D01*
X183866320Y-59478213D01*
X183838803Y-59440339D01*
X183834961Y-59434490D01*
X183811135Y-59394203D01*
X183798023Y-59381091D01*
X183782841Y-59363314D01*
X183771944Y-59348316D01*
X183771943Y-59348314D01*
X183735881Y-59318480D01*
X183730688Y-59313754D01*
X181074808Y-56657875D01*
X181064151Y-56644571D01*
X181063729Y-56644921D01*
X181057756Y-56637702D01*
X181057753Y-56637697D01*
X181006506Y-56589573D01*
X180985294Y-56568361D01*
X180985290Y-56568357D01*
X180980147Y-56564367D01*
X180974810Y-56559809D01*
X180940706Y-56527783D01*
X180924459Y-56518851D01*
X180904920Y-56506016D01*
X180890267Y-56494650D01*
X180890264Y-56494648D01*
X180890263Y-56494648D01*
X180867228Y-56484680D01*
X180847304Y-56476058D01*
X180841006Y-56472972D01*
X180800001Y-56450430D01*
X180799997Y-56450428D01*
X180782045Y-56445819D01*
X180759931Y-56438249D01*
X180742906Y-56430882D01*
X180696679Y-56423560D01*
X180689805Y-56422136D01*
X180644485Y-56410500D01*
X180644482Y-56410500D01*
X180625940Y-56410500D01*
X180602631Y-56408665D01*
X180584321Y-56405765D01*
X180537728Y-56410169D01*
X180530713Y-56410500D01*
X96760610Y-56410500D01*
X96743667Y-56408629D01*
X96743616Y-56409174D01*
X96734278Y-56408291D01*
X96664028Y-56410500D01*
X96634016Y-56410500D01*
X96634014Y-56410500D01*
X96634001Y-56410501D01*
X96627552Y-56411315D01*
X96620561Y-56411865D01*
X96573795Y-56413335D01*
X96573792Y-56413335D01*
X96555991Y-56418507D01*
X96533107Y-56423246D01*
X96514701Y-56425571D01*
X96514700Y-56425572D01*
X96471181Y-56442802D01*
X96464539Y-56445077D01*
X96419603Y-56458132D01*
X96403645Y-56467570D01*
X96382655Y-56477853D01*
X96365414Y-56484679D01*
X96365412Y-56484680D01*
X96327548Y-56512188D01*
X96321684Y-56516040D01*
X96281398Y-56539866D01*
X96268288Y-56552977D01*
X96250517Y-56568155D01*
X96235517Y-56579053D01*
X96235507Y-56579062D01*
X96205681Y-56615115D01*
X96200956Y-56620308D01*
X92884407Y-59936859D01*
X92817612Y-59975423D01*
X92779048Y-59980500D01*
X91770951Y-59980500D01*
X91696451Y-59960538D01*
X91665592Y-59936859D01*
X91349141Y-59620408D01*
X91310577Y-59553613D01*
X91305500Y-59515049D01*
X91305500Y-58976058D01*
X91325462Y-58901558D01*
X91369034Y-58854006D01*
X91448809Y-58798148D01*
X91598148Y-58648809D01*
X91719286Y-58475806D01*
X91808542Y-58284395D01*
X91863204Y-58080394D01*
X91881611Y-57870000D01*
X91863204Y-57659606D01*
X91808542Y-57455605D01*
X91752858Y-57336190D01*
X91719289Y-57264200D01*
X91719286Y-57264195D01*
X91704101Y-57242509D01*
X91598148Y-57091191D01*
X91448809Y-56941852D01*
X91275806Y-56820714D01*
X91275807Y-56820714D01*
X91275805Y-56820713D01*
X91275800Y-56820711D01*
X91084395Y-56731458D01*
X91084393Y-56731457D01*
X90880394Y-56676796D01*
X90880395Y-56676796D01*
X90670000Y-56658389D01*
X90459604Y-56676796D01*
X90255606Y-56731457D01*
X90255604Y-56731458D01*
X90064200Y-56820710D01*
X90064195Y-56820713D01*
X89891188Y-56941854D01*
X89741850Y-57091192D01*
X89685996Y-57170962D01*
X89626913Y-57220540D01*
X89563942Y-57234500D01*
X87961612Y-57234500D01*
X87944662Y-57232628D01*
X87944611Y-57233173D01*
X87935278Y-57232290D01*
X87864997Y-57234500D01*
X87835017Y-57234500D01*
X87835013Y-57234500D01*
X87835003Y-57234501D01*
X87828554Y-57235315D01*
X87821567Y-57235864D01*
X87774795Y-57237334D01*
X87756982Y-57242509D01*
X87734101Y-57247247D01*
X87715702Y-57249572D01*
X87672187Y-57266799D01*
X87665548Y-57269072D01*
X87620610Y-57282129D01*
X87620604Y-57282132D01*
X87604639Y-57291573D01*
X87583654Y-57301854D01*
X87566410Y-57308681D01*
X87528546Y-57336190D01*
X87522681Y-57340042D01*
X87482402Y-57363865D01*
X87482400Y-57363866D01*
X87469292Y-57376975D01*
X87451522Y-57392152D01*
X87436516Y-57403055D01*
X87436509Y-57403061D01*
X87406677Y-57439121D01*
X87401952Y-57444314D01*
X86504348Y-58341918D01*
X86437553Y-58380482D01*
X86374465Y-58383527D01*
X86198905Y-58354232D01*
X86152569Y-58346500D01*
X85927431Y-58346500D01*
X85705369Y-58383554D01*
X85705365Y-58383555D01*
X85492424Y-58456658D01*
X85492420Y-58456660D01*
X85294427Y-58563808D01*
X85294420Y-58563813D01*
X85167353Y-58662715D01*
X85116760Y-58702094D01*
X85116758Y-58702095D01*
X85116758Y-58702096D01*
X84964275Y-58867735D01*
X84841138Y-59056210D01*
X84750705Y-59262378D01*
X84695435Y-59480635D01*
X84676844Y-59704999D01*
X84676844Y-59705000D01*
X84035500Y-59705000D01*
X84035500Y-45824950D01*
X84055462Y-45750450D01*
X84079141Y-45719591D01*
X86344592Y-43454141D01*
X86411387Y-43415577D01*
X86449951Y-43410500D01*
X173413389Y-43410500D01*
X173430331Y-43412370D01*
X173430383Y-43411826D01*
X173439718Y-43412707D01*
X173439719Y-43412708D01*
X173439719Y-43412707D01*
X173439720Y-43412708D01*
X173474852Y-43411604D01*
X173509985Y-43410500D01*
X173539983Y-43410500D01*
X173539984Y-43410500D01*
X173542166Y-43410224D01*
X173546428Y-43409685D01*
X173553428Y-43409135D01*
X173584431Y-43408160D01*
X173600205Y-43407665D01*
X173618015Y-43402490D01*
X173640895Y-43397751D01*
X173659299Y-43395427D01*
X173702821Y-43378195D01*
X173709435Y-43375930D01*
X173754393Y-43362869D01*
X173770349Y-43353431D01*
X173791342Y-43343146D01*
X173808588Y-43336319D01*
X173846453Y-43308808D01*
X173852313Y-43304957D01*
X173892598Y-43281134D01*
X173905706Y-43268024D01*
X173923485Y-43252841D01*
X173938487Y-43241942D01*
X173968332Y-43205863D01*
X173973034Y-43200696D01*
X174071592Y-43102140D01*
X174138387Y-43063577D01*
X174176950Y-43058500D01*
X175344310Y-43058500D01*
X175418810Y-43078462D01*
X175473348Y-43133000D01*
X175493310Y-43207500D01*
X175488751Y-43244071D01*
X175463664Y-43343141D01*
X175455435Y-43375636D01*
X175436844Y-43599999D01*
X175436844Y-43600000D01*
X175455435Y-43824364D01*
X175510705Y-44042621D01*
X175601138Y-44248789D01*
X175635424Y-44301267D01*
X175724278Y-44437268D01*
X175876760Y-44602906D01*
X176033500Y-44724903D01*
X176054420Y-44741186D01*
X176054427Y-44741191D01*
X176210587Y-44825700D01*
X176252426Y-44848342D01*
X176408301Y-44901854D01*
X176465365Y-44921444D01*
X176465369Y-44921445D01*
X176520783Y-44930691D01*
X176687431Y-44958500D01*
X176687433Y-44958500D01*
X176912567Y-44958500D01*
X176912569Y-44958500D01*
X177107024Y-44926051D01*
X177134630Y-44921445D01*
X177134631Y-44921444D01*
X177134635Y-44921444D01*
X177347574Y-44848342D01*
X177545576Y-44741189D01*
X177723240Y-44602906D01*
X177875722Y-44437268D01*
X177998860Y-44248791D01*
X178019796Y-44201062D01*
X178089294Y-44042621D01*
X178089294Y-44042619D01*
X178089296Y-44042616D01*
X178144564Y-43824368D01*
X178163156Y-43600000D01*
X178144564Y-43375632D01*
X178111249Y-43244074D01*
X178112312Y-43166957D01*
X178151793Y-43100699D01*
X178219113Y-43063059D01*
X178255690Y-43058500D01*
X180424310Y-43058500D01*
X180498810Y-43078462D01*
X180553348Y-43133000D01*
X180573310Y-43207500D01*
X180568751Y-43244071D01*
X180543664Y-43343141D01*
X180535435Y-43375636D01*
X180516844Y-43599999D01*
X180516844Y-43600000D01*
X180535435Y-43824364D01*
X180590705Y-44042621D01*
X180681138Y-44248789D01*
X180715424Y-44301267D01*
X180804278Y-44437268D01*
X180956760Y-44602906D01*
X181113500Y-44724903D01*
X181134420Y-44741186D01*
X181134427Y-44741191D01*
X181290587Y-44825700D01*
X181332426Y-44848342D01*
X181488301Y-44901854D01*
X181545365Y-44921444D01*
X181545369Y-44921445D01*
X181600783Y-44930691D01*
X181767431Y-44958500D01*
X181898049Y-44958500D01*
X181972549Y-44978462D01*
X182003408Y-45002141D01*
X182166859Y-45165591D01*
X182205423Y-45232386D01*
X182210500Y-45270950D01*
X182210500Y-52086997D01*
X182190538Y-52161497D01*
X182166859Y-52192356D01*
X180138356Y-54220859D01*
X180071561Y-54259423D01*
X180032997Y-54264500D01*
X97324951Y-54264500D01*
X97250451Y-54244538D01*
X97219592Y-54220859D01*
X95206141Y-52207408D01*
X95167577Y-52140613D01*
X95162500Y-52102049D01*
X95162500Y-50440000D01*
X99916844Y-50440000D01*
X99935435Y-50664364D01*
X99990705Y-50882621D01*
X100081138Y-51088789D01*
X100181642Y-51242621D01*
X100204278Y-51277268D01*
X100356760Y-51442906D01*
X100521482Y-51571116D01*
X100534420Y-51581186D01*
X100534427Y-51581191D01*
X100687806Y-51664195D01*
X100732426Y-51688342D01*
X100879796Y-51738934D01*
X100945365Y-51761444D01*
X100945369Y-51761445D01*
X101000783Y-51770691D01*
X101167431Y-51798500D01*
X101167433Y-51798500D01*
X101392566Y-51798500D01*
X101392569Y-51798500D01*
X101614469Y-51761471D01*
X101691233Y-51768899D01*
X101744347Y-51803079D01*
X102181022Y-52239755D01*
X102599392Y-52658125D01*
X102610052Y-52671429D01*
X102610473Y-52671082D01*
X102616444Y-52678300D01*
X102616446Y-52678302D01*
X102616447Y-52678303D01*
X102667693Y-52726426D01*
X102688906Y-52747639D01*
X102694055Y-52751633D01*
X102699366Y-52756169D01*
X102723365Y-52778705D01*
X102733495Y-52788218D01*
X102749733Y-52797144D01*
X102769277Y-52809981D01*
X102783933Y-52821350D01*
X102783934Y-52821350D01*
X102783934Y-52821351D01*
X102826884Y-52839937D01*
X102833191Y-52843026D01*
X102874197Y-52865569D01*
X102874202Y-52865571D01*
X102892148Y-52870178D01*
X102914275Y-52877753D01*
X102931289Y-52885116D01*
X102931290Y-52885116D01*
X102931292Y-52885117D01*
X102957617Y-52889286D01*
X102977517Y-52892438D01*
X102984384Y-52893859D01*
X103029718Y-52905500D01*
X103048260Y-52905500D01*
X103071568Y-52907334D01*
X103089879Y-52910235D01*
X103123349Y-52907071D01*
X103136472Y-52905831D01*
X103143487Y-52905500D01*
X104273941Y-52905500D01*
X104348441Y-52925462D01*
X104395994Y-52969036D01*
X104440925Y-53033204D01*
X104451852Y-53048809D01*
X104601191Y-53198148D01*
X104774194Y-53319286D01*
X104965605Y-53408542D01*
X105169606Y-53463204D01*
X105380000Y-53481611D01*
X105590394Y-53463204D01*
X105794395Y-53408542D01*
X105985806Y-53319286D01*
X106158809Y-53198148D01*
X106308148Y-53048809D01*
X106429286Y-52875806D01*
X106518542Y-52684395D01*
X106573204Y-52480394D01*
X106591611Y-52270000D01*
X106573204Y-52059606D01*
X106518542Y-51855605D01*
X106474647Y-51761471D01*
X106429289Y-51664200D01*
X106429286Y-51664195D01*
X106420741Y-51651992D01*
X106308148Y-51491191D01*
X106158809Y-51341852D01*
X106079035Y-51285993D01*
X106029460Y-51226910D01*
X106015500Y-51163941D01*
X106015500Y-50924950D01*
X106035462Y-50850450D01*
X106059141Y-50819591D01*
X106399592Y-50479141D01*
X106466387Y-50440577D01*
X106504951Y-50435500D01*
X107516811Y-50435500D01*
X107591311Y-50455462D01*
X107622170Y-50479141D01*
X107704846Y-50561817D01*
X107852078Y-50650822D01*
X107852080Y-50650823D01*
X107852087Y-50650827D01*
X107892364Y-50663377D01*
X108016346Y-50702012D01*
X108016348Y-50702012D01*
X108016351Y-50702013D01*
X108087735Y-50708500D01*
X108752264Y-50708499D01*
X108823649Y-50702013D01*
X108987913Y-50650827D01*
X109135155Y-50561816D01*
X109226648Y-50470323D01*
X109290427Y-50432600D01*
X109308015Y-50427490D01*
X109330895Y-50422751D01*
X109349299Y-50420427D01*
X109392821Y-50403195D01*
X109399435Y-50400930D01*
X109444393Y-50387869D01*
X109460349Y-50378431D01*
X109481342Y-50368146D01*
X109498588Y-50361319D01*
X109536453Y-50333808D01*
X109542313Y-50329957D01*
X109582598Y-50306134D01*
X109595706Y-50293024D01*
X109613485Y-50277841D01*
X109628487Y-50266942D01*
X109634831Y-50259273D01*
X109658332Y-50230863D01*
X109663045Y-50225686D01*
X109855592Y-50033141D01*
X109922387Y-49994577D01*
X109960950Y-49989500D01*
X117659389Y-49989500D01*
X117676331Y-49991370D01*
X117676383Y-49990826D01*
X117685718Y-49991707D01*
X117685719Y-49991708D01*
X117685719Y-49991707D01*
X117685720Y-49991708D01*
X117720852Y-49990604D01*
X117755985Y-49989500D01*
X117785983Y-49989500D01*
X117785984Y-49989500D01*
X117788166Y-49989224D01*
X117792428Y-49988685D01*
X117799428Y-49988135D01*
X117830431Y-49987160D01*
X117846205Y-49986665D01*
X117864015Y-49981490D01*
X117886895Y-49976751D01*
X117905299Y-49974427D01*
X117948821Y-49957195D01*
X117955435Y-49954930D01*
X118000393Y-49941869D01*
X118016349Y-49932431D01*
X118037342Y-49922146D01*
X118054588Y-49915319D01*
X118092453Y-49887808D01*
X118098313Y-49883957D01*
X118138598Y-49860134D01*
X118151706Y-49847024D01*
X118169485Y-49831841D01*
X118184488Y-49820941D01*
X118214321Y-49784879D01*
X118219037Y-49779694D01*
X120419592Y-47579141D01*
X120486387Y-47540577D01*
X120524951Y-47535500D01*
X122354026Y-47535500D01*
X122428526Y-47555462D01*
X122459385Y-47579141D01*
X122833859Y-47953615D01*
X122872423Y-48020410D01*
X122877500Y-48058974D01*
X122877500Y-48162049D01*
X122857538Y-48236549D01*
X122833859Y-48267408D01*
X121703408Y-49397859D01*
X121636613Y-49436423D01*
X121598049Y-49441500D01*
X120301362Y-49441500D01*
X120301356Y-49441500D01*
X120301347Y-49441501D01*
X120240799Y-49448010D01*
X120103798Y-49499110D01*
X120103794Y-49499112D01*
X119986739Y-49586739D01*
X119899112Y-49703794D01*
X119899110Y-49703798D01*
X119848010Y-49840799D01*
X119841501Y-49901347D01*
X119841500Y-49901368D01*
X119841500Y-51698631D01*
X119841501Y-51698652D01*
X119848010Y-51759200D01*
X119885398Y-51859439D01*
X119899111Y-51896204D01*
X119986739Y-52013261D01*
X120103796Y-52100889D01*
X120240799Y-52151989D01*
X120301362Y-52158500D01*
X120301369Y-52158500D01*
X122098631Y-52158500D01*
X122098638Y-52158500D01*
X122159201Y-52151989D01*
X122296204Y-52100889D01*
X122413261Y-52013261D01*
X122500889Y-51896204D01*
X122551989Y-51759201D01*
X122558500Y-51698638D01*
X122558500Y-50401950D01*
X122578462Y-50327450D01*
X122602141Y-50296591D01*
X123116561Y-49782171D01*
X123634642Y-49264089D01*
X123701435Y-49225527D01*
X123778563Y-49225527D01*
X123845358Y-49264091D01*
X124920320Y-50339053D01*
X124958884Y-50405848D01*
X124959402Y-50480988D01*
X124935436Y-50575628D01*
X124916844Y-50799999D01*
X124916844Y-50800000D01*
X124935435Y-51024364D01*
X124990705Y-51242621D01*
X125081138Y-51448789D01*
X125204275Y-51637264D01*
X125204278Y-51637268D01*
X125356760Y-51802906D01*
X125521482Y-51931116D01*
X125534420Y-51941186D01*
X125534427Y-51941191D01*
X125732420Y-52048339D01*
X125732426Y-52048342D01*
X125888869Y-52102049D01*
X125945365Y-52121444D01*
X125945369Y-52121445D01*
X126000783Y-52130691D01*
X126167431Y-52158500D01*
X126167433Y-52158500D01*
X126392567Y-52158500D01*
X126392569Y-52158500D01*
X126587024Y-52126051D01*
X126614630Y-52121445D01*
X126614631Y-52121444D01*
X126614635Y-52121444D01*
X126827574Y-52048342D01*
X127025576Y-51941189D01*
X127203240Y-51802906D01*
X127355722Y-51637268D01*
X127478860Y-51448791D01*
X127478861Y-51448789D01*
X127569294Y-51242621D01*
X127569294Y-51242619D01*
X127569296Y-51242616D01*
X127624564Y-51024368D01*
X127643156Y-50800000D01*
X127624564Y-50575632D01*
X127569296Y-50357384D01*
X127569294Y-50357381D01*
X127569294Y-50357378D01*
X127478861Y-50151210D01*
X127380070Y-50000000D01*
X133686738Y-50000000D01*
X133705766Y-50302453D01*
X133705767Y-50302463D01*
X133762555Y-50600156D01*
X133856203Y-50888372D01*
X133856211Y-50888393D01*
X133985237Y-51162590D01*
X133985242Y-51162599D01*
X134147542Y-51418341D01*
X134147630Y-51418480D01*
X134262667Y-51557536D01*
X134340809Y-51651994D01*
X134340815Y-51651999D01*
X134561716Y-51859439D01*
X134561723Y-51859444D01*
X134561729Y-51859450D01*
X134612313Y-51896201D01*
X134806906Y-52037582D01*
X134896791Y-52086997D01*
X135072483Y-52183585D01*
X135354261Y-52295149D01*
X135647800Y-52370516D01*
X135948470Y-52408500D01*
X136251530Y-52408500D01*
X136552200Y-52370516D01*
X136845739Y-52295149D01*
X137127517Y-52183585D01*
X137393090Y-52037584D01*
X137638271Y-51859450D01*
X137642365Y-51855606D01*
X137820486Y-51688339D01*
X137859192Y-51651992D01*
X138052370Y-51418480D01*
X138214758Y-51162598D01*
X138215577Y-51160859D01*
X138343788Y-50888393D01*
X138343794Y-50888381D01*
X138437445Y-50600154D01*
X138494233Y-50302462D01*
X138513262Y-50000000D01*
X138494233Y-49697538D01*
X138437445Y-49399846D01*
X138343794Y-49111619D01*
X138318072Y-49056957D01*
X138214762Y-48837409D01*
X138214757Y-48837400D01*
X138060696Y-48594640D01*
X138052370Y-48581520D01*
X137859192Y-48348008D01*
X137859190Y-48348005D01*
X137859184Y-48348000D01*
X137638283Y-48140560D01*
X137638275Y-48140553D01*
X137638271Y-48140550D01*
X137574196Y-48093997D01*
X137393093Y-47962417D01*
X137127519Y-47816416D01*
X137127507Y-47816411D01*
X136900256Y-47726436D01*
X136845739Y-47704851D01*
X136845734Y-47704849D01*
X136845732Y-47704849D01*
X136762647Y-47683517D01*
X136552200Y-47629484D01*
X136251530Y-47591500D01*
X135948470Y-47591500D01*
X135647800Y-47629484D01*
X135603345Y-47640898D01*
X135354267Y-47704849D01*
X135354255Y-47704853D01*
X135072492Y-47816411D01*
X135072480Y-47816416D01*
X134806906Y-47962417D01*
X134561734Y-48140546D01*
X134561716Y-48140560D01*
X134340815Y-48348000D01*
X134340809Y-48348005D01*
X134147626Y-48581525D01*
X133985242Y-48837400D01*
X133985237Y-48837409D01*
X133856211Y-49111606D01*
X133856203Y-49111627D01*
X133762555Y-49399843D01*
X133705767Y-49697536D01*
X133705766Y-49697546D01*
X133686738Y-50000000D01*
X127380070Y-50000000D01*
X127355724Y-49962735D01*
X127355723Y-49962734D01*
X127355722Y-49962732D01*
X127203240Y-49797094D01*
X127025576Y-49658811D01*
X127025572Y-49658808D01*
X126827579Y-49551660D01*
X126827575Y-49551658D01*
X126614634Y-49478555D01*
X126614630Y-49478554D01*
X126420376Y-49446140D01*
X126392569Y-49441500D01*
X126167431Y-49441500D01*
X126167430Y-49441500D01*
X125945533Y-49478527D01*
X125868763Y-49471099D01*
X125815650Y-49436918D01*
X125237933Y-48859201D01*
X124646141Y-48267408D01*
X124607577Y-48200613D01*
X124602500Y-48162049D01*
X124602500Y-47632582D01*
X124604371Y-47615640D01*
X124603826Y-47615589D01*
X124604708Y-47606251D01*
X124602500Y-47536000D01*
X124602500Y-47505986D01*
X124601684Y-47499527D01*
X124601133Y-47492524D01*
X124601101Y-47491500D01*
X124599664Y-47445767D01*
X124595180Y-47430334D01*
X124594493Y-47427969D01*
X124589750Y-47405067D01*
X124587427Y-47386673D01*
X124570188Y-47343135D01*
X124567928Y-47336531D01*
X124554869Y-47291579D01*
X124545429Y-47275618D01*
X124535144Y-47254623D01*
X124528319Y-47237384D01*
X124500802Y-47199510D01*
X124496959Y-47193659D01*
X124475545Y-47157450D01*
X124473134Y-47153373D01*
X124460025Y-47140264D01*
X124444840Y-47122484D01*
X124433944Y-47107487D01*
X124397883Y-47077654D01*
X124392689Y-47072928D01*
X123377636Y-46057875D01*
X123366979Y-46044571D01*
X123366557Y-46044921D01*
X123360584Y-46037702D01*
X123360581Y-46037697D01*
X123309334Y-45989573D01*
X123288122Y-45968361D01*
X123288118Y-45968357D01*
X123282975Y-45964367D01*
X123277638Y-45959809D01*
X123243534Y-45927783D01*
X123227287Y-45918851D01*
X123207748Y-45906016D01*
X123193095Y-45894650D01*
X123193092Y-45894648D01*
X123193091Y-45894648D01*
X123170058Y-45884681D01*
X123150132Y-45876058D01*
X123143834Y-45872972D01*
X123102829Y-45850430D01*
X123102825Y-45850428D01*
X123084873Y-45845819D01*
X123062759Y-45838249D01*
X123045734Y-45830882D01*
X122999507Y-45823560D01*
X122992633Y-45822136D01*
X122947313Y-45810500D01*
X122947310Y-45810500D01*
X122928768Y-45810500D01*
X122905459Y-45808665D01*
X122887149Y-45805765D01*
X122840556Y-45810169D01*
X122833541Y-45810500D01*
X120098559Y-45810500D01*
X120081616Y-45808629D01*
X120081565Y-45809174D01*
X120072227Y-45808291D01*
X120003981Y-45810436D01*
X120001963Y-45810500D01*
X119971965Y-45810500D01*
X119971962Y-45810500D01*
X119971950Y-45810501D01*
X119965496Y-45811315D01*
X119958511Y-45811864D01*
X119911750Y-45813334D01*
X119911740Y-45813335D01*
X119893930Y-45818509D01*
X119871049Y-45823247D01*
X119852651Y-45825571D01*
X119809135Y-45842799D01*
X119802496Y-45845072D01*
X119757558Y-45858129D01*
X119757552Y-45858132D01*
X119741587Y-45867573D01*
X119720602Y-45877854D01*
X119703358Y-45884681D01*
X119665494Y-45912190D01*
X119659629Y-45916042D01*
X119619350Y-45939865D01*
X119619348Y-45939866D01*
X119606241Y-45952974D01*
X119588469Y-45968153D01*
X119573459Y-45979058D01*
X119543626Y-46015119D01*
X119538901Y-46020312D01*
X117338356Y-48220859D01*
X117271561Y-48259423D01*
X117232997Y-48264500D01*
X110004950Y-48264500D01*
X109930450Y-48244538D01*
X109899591Y-48220859D01*
X109797222Y-48118490D01*
X109690608Y-48011875D01*
X109679951Y-47998571D01*
X109679529Y-47998921D01*
X109673556Y-47991702D01*
X109673553Y-47991697D01*
X109622306Y-47943573D01*
X109601094Y-47922361D01*
X109601090Y-47922357D01*
X109595947Y-47918367D01*
X109590610Y-47913809D01*
X109580622Y-47904430D01*
X109556506Y-47881783D01*
X109540259Y-47872851D01*
X109520720Y-47860016D01*
X109506067Y-47848650D01*
X109506064Y-47848648D01*
X109506063Y-47848648D01*
X109484458Y-47839299D01*
X109463104Y-47830058D01*
X109456806Y-47826972D01*
X109415801Y-47804430D01*
X109415797Y-47804428D01*
X109397845Y-47799819D01*
X109375731Y-47792249D01*
X109365218Y-47787700D01*
X109358708Y-47784883D01*
X109358706Y-47784882D01*
X109358705Y-47784882D01*
X109312476Y-47777559D01*
X109305595Y-47776134D01*
X109301351Y-47775044D01*
X109234159Y-47737177D01*
X109233058Y-47736087D01*
X109135153Y-47638182D01*
X108987921Y-47549177D01*
X108987915Y-47549174D01*
X108987913Y-47549173D01*
X108987909Y-47549171D01*
X108987905Y-47549170D01*
X108823653Y-47497987D01*
X108797691Y-47495628D01*
X108752265Y-47491500D01*
X108752258Y-47491500D01*
X108087741Y-47491500D01*
X108016350Y-47497987D01*
X108016349Y-47497987D01*
X107852089Y-47549172D01*
X107852078Y-47549177D01*
X107704847Y-47638182D01*
X107704846Y-47638182D01*
X107622170Y-47720859D01*
X107555375Y-47759423D01*
X107516811Y-47764500D01*
X106604951Y-47764500D01*
X106530451Y-47744538D01*
X106499592Y-47720859D01*
X106059141Y-47280408D01*
X106020577Y-47213613D01*
X106015500Y-47175049D01*
X106015500Y-46936058D01*
X106035462Y-46861558D01*
X106079034Y-46814006D01*
X106158809Y-46758148D01*
X106308148Y-46608809D01*
X106429286Y-46435806D01*
X106518542Y-46244395D01*
X106573204Y-46040394D01*
X106591611Y-45830000D01*
X106573204Y-45619606D01*
X106518542Y-45415605D01*
X106475763Y-45323865D01*
X106429289Y-45224200D01*
X106429286Y-45224195D01*
X106414101Y-45202509D01*
X106308148Y-45051191D01*
X106158809Y-44901852D01*
X106042932Y-44820714D01*
X105985805Y-44780713D01*
X105985800Y-44780711D01*
X105794395Y-44691458D01*
X105794393Y-44691457D01*
X105590394Y-44636796D01*
X105590395Y-44636796D01*
X105380000Y-44618389D01*
X105169604Y-44636796D01*
X104965606Y-44691457D01*
X104965604Y-44691458D01*
X104774200Y-44780710D01*
X104774195Y-44780713D01*
X104601188Y-44901854D01*
X104451850Y-45051192D01*
X104395996Y-45130962D01*
X104336913Y-45180540D01*
X104273942Y-45194500D01*
X103436611Y-45194500D01*
X103419668Y-45192629D01*
X103419617Y-45193174D01*
X103410279Y-45192291D01*
X103342033Y-45194436D01*
X103340015Y-45194500D01*
X103310017Y-45194500D01*
X103310014Y-45194500D01*
X103310002Y-45194501D01*
X103303548Y-45195315D01*
X103296563Y-45195864D01*
X103249802Y-45197334D01*
X103249792Y-45197335D01*
X103231982Y-45202509D01*
X103209101Y-45207247D01*
X103190703Y-45209571D01*
X103147187Y-45226799D01*
X103140548Y-45229072D01*
X103095610Y-45242129D01*
X103095604Y-45242132D01*
X103079639Y-45251573D01*
X103058654Y-45261854D01*
X103041410Y-45268681D01*
X103003546Y-45296190D01*
X102997681Y-45300042D01*
X102957402Y-45323865D01*
X102957400Y-45323866D01*
X102944292Y-45336975D01*
X102926522Y-45352152D01*
X102911516Y-45363055D01*
X102911509Y-45363061D01*
X102881677Y-45399121D01*
X102876952Y-45404314D01*
X101783408Y-46497859D01*
X101716613Y-46536423D01*
X101678049Y-46541500D01*
X100381362Y-46541500D01*
X100381356Y-46541500D01*
X100381347Y-46541501D01*
X100320799Y-46548010D01*
X100183798Y-46599110D01*
X100183794Y-46599112D01*
X100066739Y-46686739D01*
X99979112Y-46803794D01*
X99979110Y-46803798D01*
X99928010Y-46940799D01*
X99921501Y-47001347D01*
X99921500Y-47001368D01*
X99921500Y-48798631D01*
X99921501Y-48798652D01*
X99928010Y-48859200D01*
X99954750Y-48930890D01*
X99979111Y-48996204D01*
X100066739Y-49113261D01*
X100183796Y-49200889D01*
X100206596Y-49209393D01*
X100266751Y-49231830D01*
X100329578Y-49276568D01*
X100361618Y-49346727D01*
X100354286Y-49423505D01*
X100324304Y-49472350D01*
X100204275Y-49602735D01*
X100081138Y-49791210D01*
X99990705Y-49997378D01*
X99935435Y-50215635D01*
X99916844Y-50439999D01*
X99916844Y-50440000D01*
X95162500Y-50440000D01*
X95162500Y-49992586D01*
X95164371Y-49975644D01*
X95163826Y-49975593D01*
X95164708Y-49966255D01*
X95162500Y-49896004D01*
X95162500Y-49865990D01*
X95161684Y-49859531D01*
X95161133Y-49852528D01*
X95159664Y-49805771D01*
X95157815Y-49799410D01*
X95154493Y-49787973D01*
X95149750Y-49765071D01*
X95148287Y-49753487D01*
X95147427Y-49746677D01*
X95130188Y-49703139D01*
X95127928Y-49696535D01*
X95114869Y-49651583D01*
X95105429Y-49635622D01*
X95095144Y-49614627D01*
X95093099Y-49609462D01*
X95088319Y-49597388D01*
X95060802Y-49559514D01*
X95056959Y-49553663D01*
X95055773Y-49551658D01*
X95033134Y-49513377D01*
X95020025Y-49500268D01*
X95004840Y-49482488D01*
X94993944Y-49467491D01*
X94957883Y-49437658D01*
X94952689Y-49432932D01*
X93631632Y-48111875D01*
X93620975Y-48098571D01*
X93620553Y-48098921D01*
X93614580Y-48091702D01*
X93614577Y-48091697D01*
X93563330Y-48043573D01*
X93542118Y-48022361D01*
X93542114Y-48022357D01*
X93536971Y-48018367D01*
X93531634Y-48013809D01*
X93497530Y-47981783D01*
X93481283Y-47972851D01*
X93461744Y-47960016D01*
X93447091Y-47948650D01*
X93447088Y-47948648D01*
X93447087Y-47948648D01*
X93423606Y-47938487D01*
X93404128Y-47930058D01*
X93397830Y-47926972D01*
X93369103Y-47911180D01*
X93356827Y-47904431D01*
X93356826Y-47904430D01*
X93356825Y-47904430D01*
X93356821Y-47904428D01*
X93338869Y-47899819D01*
X93316755Y-47892249D01*
X93299730Y-47884882D01*
X93253503Y-47877560D01*
X93246629Y-47876136D01*
X93201309Y-47864500D01*
X93201306Y-47864500D01*
X93182764Y-47864500D01*
X93159455Y-47862665D01*
X93141145Y-47859765D01*
X93094552Y-47864169D01*
X93087537Y-47864500D01*
X91824950Y-47864500D01*
X91750450Y-47844538D01*
X91719591Y-47820859D01*
X91359141Y-47460408D01*
X91320577Y-47393613D01*
X91315500Y-47355049D01*
X91315500Y-46976058D01*
X91335462Y-46901558D01*
X91379034Y-46854006D01*
X91458809Y-46798148D01*
X91608148Y-46648809D01*
X91729286Y-46475806D01*
X91818542Y-46284395D01*
X91873204Y-46080394D01*
X91891611Y-45870000D01*
X91873204Y-45659606D01*
X91818542Y-45455605D01*
X91760493Y-45331119D01*
X91729289Y-45264200D01*
X91729286Y-45264195D01*
X91713835Y-45242129D01*
X91608148Y-45091191D01*
X91458809Y-44941852D01*
X91325263Y-44848342D01*
X91285805Y-44820713D01*
X91285800Y-44820711D01*
X91094395Y-44731458D01*
X91094393Y-44731457D01*
X90890394Y-44676796D01*
X90890395Y-44676796D01*
X90680000Y-44658389D01*
X90469604Y-44676796D01*
X90265606Y-44731457D01*
X90265604Y-44731458D01*
X90074200Y-44820710D01*
X90074195Y-44820713D01*
X89901188Y-44941854D01*
X89751850Y-45091192D01*
X89695996Y-45170962D01*
X89636913Y-45220540D01*
X89573942Y-45234500D01*
X87896612Y-45234500D01*
X87879662Y-45232628D01*
X87879611Y-45233173D01*
X87870278Y-45232290D01*
X87799997Y-45234500D01*
X87770017Y-45234500D01*
X87770013Y-45234500D01*
X87770003Y-45234501D01*
X87763554Y-45235315D01*
X87756567Y-45235864D01*
X87709795Y-45237334D01*
X87691982Y-45242509D01*
X87669101Y-45247247D01*
X87650702Y-45249572D01*
X87607187Y-45266799D01*
X87600548Y-45269072D01*
X87555610Y-45282129D01*
X87555604Y-45282132D01*
X87539639Y-45291573D01*
X87518654Y-45301854D01*
X87501410Y-45308681D01*
X87463546Y-45336190D01*
X87457681Y-45340042D01*
X87417402Y-45363865D01*
X87417400Y-45363866D01*
X87404292Y-45376975D01*
X87386522Y-45392152D01*
X87371516Y-45403055D01*
X87371509Y-45403061D01*
X87341677Y-45439121D01*
X87336952Y-45444314D01*
X86553409Y-46227859D01*
X86486614Y-46266423D01*
X86448050Y-46271500D01*
X85151362Y-46271500D01*
X85151356Y-46271500D01*
X85151347Y-46271501D01*
X85090799Y-46278010D01*
X84953798Y-46329110D01*
X84953794Y-46329112D01*
X84836739Y-46416739D01*
X84749112Y-46533794D01*
X84749110Y-46533798D01*
X84698010Y-46670799D01*
X84691501Y-46731347D01*
X84691500Y-46731368D01*
X84691500Y-48528631D01*
X84691501Y-48528652D01*
X84698010Y-48589200D01*
X84724953Y-48661435D01*
X84749111Y-48726204D01*
X84836739Y-48843261D01*
X84953796Y-48930889D01*
X84953799Y-48930890D01*
X85036751Y-48961830D01*
X85099578Y-49006568D01*
X85131618Y-49076727D01*
X85124286Y-49153505D01*
X85094304Y-49202350D01*
X84974275Y-49332735D01*
X84851138Y-49521210D01*
X84760705Y-49727378D01*
X84705435Y-49945635D01*
X84686844Y-50169999D01*
X84686844Y-50170000D01*
X84705435Y-50394364D01*
X84760705Y-50612621D01*
X84851138Y-50818789D01*
X84920497Y-50924950D01*
X84974278Y-51007268D01*
X85126760Y-51172906D01*
X85260838Y-51277264D01*
X85304420Y-51311186D01*
X85304427Y-51311191D01*
X85361084Y-51341852D01*
X85502426Y-51418342D01*
X85649796Y-51468934D01*
X85715365Y-51491444D01*
X85715369Y-51491445D01*
X85770783Y-51500691D01*
X85937431Y-51528500D01*
X85937433Y-51528500D01*
X86162566Y-51528500D01*
X86162569Y-51528500D01*
X86384469Y-51491471D01*
X86461233Y-51498899D01*
X86514347Y-51533079D01*
X86877468Y-51896201D01*
X87209392Y-52228125D01*
X87220052Y-52241429D01*
X87220473Y-52241082D01*
X87226444Y-52248300D01*
X87226446Y-52248302D01*
X87226447Y-52248303D01*
X87277693Y-52296426D01*
X87298906Y-52317639D01*
X87304055Y-52321633D01*
X87309366Y-52326169D01*
X87343494Y-52358217D01*
X87359745Y-52367151D01*
X87379277Y-52379981D01*
X87393934Y-52391350D01*
X87433567Y-52408500D01*
X87436881Y-52409934D01*
X87443176Y-52413017D01*
X87484197Y-52435569D01*
X87502151Y-52440178D01*
X87524270Y-52447751D01*
X87541292Y-52455117D01*
X87587525Y-52462438D01*
X87594379Y-52463858D01*
X87639718Y-52475500D01*
X87658261Y-52475500D01*
X87681569Y-52477334D01*
X87699880Y-52480235D01*
X87731523Y-52477243D01*
X87746473Y-52475831D01*
X87753488Y-52475500D01*
X89573941Y-52475500D01*
X89648441Y-52495462D01*
X89695994Y-52539036D01*
X89700477Y-52545438D01*
X89751852Y-52618809D01*
X89901191Y-52768148D01*
X90074194Y-52889286D01*
X90265605Y-52978542D01*
X90469606Y-53033204D01*
X90680000Y-53051611D01*
X90890394Y-53033204D01*
X91094395Y-52978542D01*
X91285806Y-52889286D01*
X91458809Y-52768148D01*
X91608148Y-52618809D01*
X91729286Y-52445806D01*
X91818542Y-52254395D01*
X91873204Y-52050394D01*
X91891611Y-51840000D01*
X91873204Y-51629606D01*
X91818542Y-51425605D01*
X91765188Y-51311186D01*
X91729289Y-51234200D01*
X91729286Y-51234195D01*
X91708493Y-51204500D01*
X91608148Y-51061191D01*
X91458809Y-50911852D01*
X91379035Y-50855993D01*
X91329460Y-50796910D01*
X91315500Y-50733941D01*
X91315500Y-50044950D01*
X91335462Y-49970450D01*
X91359141Y-49939591D01*
X91665592Y-49633141D01*
X91732387Y-49594577D01*
X91770951Y-49589500D01*
X92608022Y-49589500D01*
X92682522Y-49609462D01*
X92713381Y-49633141D01*
X93393859Y-50313619D01*
X93432423Y-50380414D01*
X93437500Y-50418978D01*
X93437500Y-52528443D01*
X93435629Y-52545386D01*
X93436174Y-52545438D01*
X93435291Y-52554774D01*
X93437500Y-52625036D01*
X93437500Y-52655044D01*
X93438314Y-52661488D01*
X93438864Y-52668481D01*
X93440334Y-52715251D01*
X93440334Y-52715252D01*
X93440334Y-52715255D01*
X93440335Y-52715257D01*
X93445509Y-52733069D01*
X93450248Y-52755950D01*
X93452573Y-52774351D01*
X93469798Y-52817858D01*
X93472073Y-52824501D01*
X93485129Y-52869441D01*
X93485131Y-52869445D01*
X93494399Y-52885117D01*
X93494570Y-52885405D01*
X93504854Y-52906399D01*
X93511681Y-52923640D01*
X93539191Y-52961505D01*
X93543041Y-52967366D01*
X93566862Y-53007644D01*
X93566868Y-53007652D01*
X93579972Y-53020756D01*
X93595154Y-53038532D01*
X93606055Y-53053535D01*
X93606058Y-53053539D01*
X93642121Y-53083373D01*
X93647315Y-53088099D01*
X96301337Y-55742121D01*
X96311997Y-55755427D01*
X96312419Y-55755079D01*
X96318392Y-55762298D01*
X96318395Y-55762303D01*
X96369657Y-55810441D01*
X96390853Y-55831637D01*
X96395995Y-55835626D01*
X96401322Y-55840177D01*
X96435442Y-55872217D01*
X96451695Y-55881152D01*
X96471226Y-55893982D01*
X96485881Y-55905349D01*
X96528837Y-55923937D01*
X96535120Y-55927016D01*
X96562137Y-55941868D01*
X96576145Y-55949569D01*
X96594099Y-55954179D01*
X96616218Y-55961752D01*
X96633235Y-55969115D01*
X96633240Y-55969117D01*
X96679473Y-55976438D01*
X96686327Y-55977858D01*
X96731666Y-55989500D01*
X96750208Y-55989500D01*
X96773516Y-55991334D01*
X96791827Y-55994235D01*
X96825297Y-55991071D01*
X96838420Y-55989831D01*
X96845435Y-55989500D01*
X180459389Y-55989500D01*
X180476331Y-55991370D01*
X180476383Y-55990826D01*
X180485718Y-55991707D01*
X180485719Y-55991708D01*
X180485719Y-55991707D01*
X180485720Y-55991708D01*
X180545451Y-55989831D01*
X180555985Y-55989500D01*
X180585983Y-55989500D01*
X180585984Y-55989500D01*
X180588166Y-55989224D01*
X180592428Y-55988685D01*
X180599428Y-55988135D01*
X180630431Y-55987160D01*
X180646205Y-55986665D01*
X180664015Y-55981490D01*
X180686895Y-55976751D01*
X180705299Y-55974427D01*
X180748821Y-55957195D01*
X180755435Y-55954930D01*
X180800393Y-55941869D01*
X180816349Y-55932431D01*
X180837342Y-55922146D01*
X180854588Y-55915319D01*
X180892453Y-55887808D01*
X180898313Y-55883957D01*
X180938598Y-55860134D01*
X180951706Y-55847024D01*
X180969485Y-55831841D01*
X180984488Y-55820941D01*
X180993174Y-55810441D01*
X181014328Y-55784869D01*
X181019037Y-55779694D01*
X183688124Y-53110607D01*
X183701428Y-53099951D01*
X183701079Y-53099529D01*
X183708298Y-53093555D01*
X183708303Y-53093553D01*
X183756426Y-53042306D01*
X183777639Y-53021094D01*
X183781622Y-53015957D01*
X183786171Y-53010630D01*
X183818217Y-52976506D01*
X183827147Y-52960260D01*
X183839979Y-52940724D01*
X183851349Y-52926067D01*
X183869945Y-52883093D01*
X183873012Y-52876833D01*
X183895569Y-52835803D01*
X183900180Y-52817842D01*
X183907748Y-52795734D01*
X183915117Y-52778708D01*
X183922440Y-52732465D01*
X183923854Y-52725635D01*
X183935500Y-52680282D01*
X183935500Y-52661740D01*
X183937335Y-52638429D01*
X183939456Y-52625037D01*
X183940235Y-52620121D01*
X183937344Y-52589540D01*
X183935831Y-52573527D01*
X183935500Y-52566512D01*
X183935500Y-50000000D01*
X190886738Y-50000000D01*
X190905766Y-50302453D01*
X190905767Y-50302463D01*
X190962555Y-50600156D01*
X191056203Y-50888372D01*
X191056211Y-50888393D01*
X191185237Y-51162590D01*
X191185242Y-51162599D01*
X191347542Y-51418341D01*
X191347630Y-51418480D01*
X191462667Y-51557536D01*
X191540809Y-51651994D01*
X191540815Y-51651999D01*
X191761716Y-51859439D01*
X191761723Y-51859444D01*
X191761729Y-51859450D01*
X191812313Y-51896201D01*
X192006906Y-52037582D01*
X192096791Y-52086997D01*
X192272483Y-52183585D01*
X192554261Y-52295149D01*
X192847800Y-52370516D01*
X193148470Y-52408500D01*
X193451530Y-52408500D01*
X193752200Y-52370516D01*
X194045739Y-52295149D01*
X194327517Y-52183585D01*
X194593090Y-52037584D01*
X194838271Y-51859450D01*
X194842365Y-51855606D01*
X195020486Y-51688339D01*
X195059192Y-51651992D01*
X195252370Y-51418480D01*
X195414758Y-51162598D01*
X195415577Y-51160859D01*
X195543788Y-50888393D01*
X195543794Y-50888381D01*
X195637445Y-50600154D01*
X195694233Y-50302462D01*
X195713262Y-50000000D01*
X195694233Y-49697538D01*
X195637445Y-49399846D01*
X195543794Y-49111619D01*
X195518072Y-49056957D01*
X195414762Y-48837409D01*
X195414757Y-48837400D01*
X195260696Y-48594640D01*
X195252370Y-48581520D01*
X195059192Y-48348008D01*
X195059190Y-48348005D01*
X195059184Y-48348000D01*
X194838283Y-48140560D01*
X194838275Y-48140553D01*
X194838271Y-48140550D01*
X194774196Y-48093997D01*
X194593093Y-47962417D01*
X194327519Y-47816416D01*
X194327507Y-47816411D01*
X194100256Y-47726436D01*
X194045739Y-47704851D01*
X194045734Y-47704849D01*
X194045732Y-47704849D01*
X193962647Y-47683517D01*
X193752200Y-47629484D01*
X193451530Y-47591500D01*
X193148470Y-47591500D01*
X192847800Y-47629484D01*
X192803345Y-47640898D01*
X192554267Y-47704849D01*
X192554255Y-47704853D01*
X192272492Y-47816411D01*
X192272480Y-47816416D01*
X192006906Y-47962417D01*
X191761734Y-48140546D01*
X191761716Y-48140560D01*
X191540815Y-48348000D01*
X191540809Y-48348005D01*
X191347626Y-48581525D01*
X191185242Y-48837400D01*
X191185237Y-48837409D01*
X191056211Y-49111606D01*
X191056203Y-49111627D01*
X190962555Y-49399843D01*
X190905767Y-49697536D01*
X190905766Y-49697546D01*
X190886738Y-50000000D01*
X183935500Y-50000000D01*
X183935500Y-45324950D01*
X183955462Y-45250450D01*
X183979141Y-45219591D01*
X184196591Y-45002141D01*
X184263386Y-44963577D01*
X184301950Y-44958500D01*
X184532567Y-44958500D01*
X184532569Y-44958500D01*
X184727024Y-44926051D01*
X184754630Y-44921445D01*
X184754631Y-44921444D01*
X184754635Y-44921444D01*
X184967574Y-44848342D01*
X184976323Y-44843607D01*
X185051341Y-44825700D01*
X185125264Y-44847702D01*
X185178282Y-44903718D01*
X185195392Y-44958713D01*
X185198235Y-44985158D01*
X185209441Y-45036664D01*
X185209442Y-45036668D01*
X185238342Y-45123498D01*
X185244111Y-45140829D01*
X185244112Y-45140832D01*
X185323125Y-45263777D01*
X185323129Y-45263782D01*
X185368884Y-45316586D01*
X185479339Y-45412297D01*
X185612287Y-45473014D01*
X185632214Y-45478865D01*
X185679328Y-45492700D01*
X185679339Y-45492702D01*
X185823985Y-45513498D01*
X185823989Y-45513498D01*
X185824000Y-45513500D01*
X185824004Y-45513500D01*
X190475994Y-45513500D01*
X190476000Y-45513500D01*
X190585157Y-45501764D01*
X190636668Y-45490558D01*
X190740827Y-45455890D01*
X190741271Y-45455605D01*
X190803513Y-45415604D01*
X190863782Y-45376871D01*
X190916586Y-45331116D01*
X191012297Y-45220661D01*
X191073014Y-45087713D01*
X191092699Y-45020674D01*
X191092700Y-45020672D01*
X191092700Y-45020671D01*
X191092702Y-45020660D01*
X191113498Y-44876014D01*
X191113500Y-44875996D01*
X191113500Y-42349500D01*
X191133462Y-42275000D01*
X191188000Y-42220462D01*
X191262500Y-42200500D01*
X213950500Y-42200500D01*
X214025000Y-42220462D01*
G37*
%TD.AperFunction*%
%TA.AperFunction,Conductor*%
G36*
X89648441Y-46525462D02*
G01*
X89695995Y-46569036D01*
X89751852Y-46648809D01*
X89901191Y-46798148D01*
X89980964Y-46854006D01*
X90030540Y-46913087D01*
X90044500Y-46976058D01*
X90044500Y-47593391D01*
X90042629Y-47610334D01*
X90043174Y-47610386D01*
X90042291Y-47619722D01*
X90044500Y-47689984D01*
X90044500Y-47719992D01*
X90045314Y-47726436D01*
X90045864Y-47733429D01*
X90047334Y-47780199D01*
X90047334Y-47780200D01*
X90047334Y-47780203D01*
X90047335Y-47780205D01*
X90052509Y-47798017D01*
X90057248Y-47820898D01*
X90059573Y-47839299D01*
X90076798Y-47882806D01*
X90079073Y-47889449D01*
X90092129Y-47934389D01*
X90092131Y-47934393D01*
X90100561Y-47948648D01*
X90101570Y-47950353D01*
X90111854Y-47971347D01*
X90118681Y-47988588D01*
X90146191Y-48026453D01*
X90150041Y-48032314D01*
X90173862Y-48072592D01*
X90173868Y-48072600D01*
X90186972Y-48085704D01*
X90202154Y-48103480D01*
X90213055Y-48118483D01*
X90213061Y-48118490D01*
X90249120Y-48148320D01*
X90254314Y-48153046D01*
X90695908Y-48594640D01*
X90734472Y-48661435D01*
X90734472Y-48738563D01*
X90695908Y-48805358D01*
X90291872Y-49209393D01*
X90278571Y-49220052D01*
X90278919Y-49220472D01*
X90271696Y-49226447D01*
X90223573Y-49277693D01*
X90202360Y-49298906D01*
X90198377Y-49304041D01*
X90193820Y-49309377D01*
X90161785Y-49343490D01*
X90161780Y-49343498D01*
X90152846Y-49359747D01*
X90140020Y-49379273D01*
X90128650Y-49393932D01*
X90128648Y-49393936D01*
X90110062Y-49436886D01*
X90106974Y-49443190D01*
X90084429Y-49484199D01*
X90079817Y-49502163D01*
X90072247Y-49524272D01*
X90064883Y-49541289D01*
X90064882Y-49541295D01*
X90057562Y-49587510D01*
X90056139Y-49594384D01*
X90044500Y-49639717D01*
X90044500Y-49658255D01*
X90042666Y-49681561D01*
X90039765Y-49699878D01*
X90039765Y-49699879D01*
X90040445Y-49707079D01*
X90044169Y-49746472D01*
X90044500Y-49753487D01*
X90044500Y-50733941D01*
X90024538Y-50808441D01*
X89980964Y-50855994D01*
X89901190Y-50911852D01*
X89751850Y-51061192D01*
X89695996Y-51140962D01*
X89636913Y-51190540D01*
X89573942Y-51204500D01*
X88044951Y-51204500D01*
X87970451Y-51184538D01*
X87939592Y-51160859D01*
X87409678Y-50630945D01*
X87371114Y-50564150D01*
X87370597Y-50489011D01*
X87394564Y-50394368D01*
X87413156Y-50170000D01*
X87394564Y-49945632D01*
X87339296Y-49727384D01*
X87339294Y-49727381D01*
X87339294Y-49727378D01*
X87248861Y-49521210D01*
X87172296Y-49404019D01*
X87125722Y-49332732D01*
X87039141Y-49238681D01*
X87005696Y-49202350D01*
X86969924Y-49134019D01*
X86973111Y-49056957D01*
X87014403Y-48991813D01*
X87063242Y-48961832D01*
X87146204Y-48930889D01*
X87263261Y-48843261D01*
X87350889Y-48726204D01*
X87401989Y-48589201D01*
X87408500Y-48528638D01*
X87408500Y-47231950D01*
X87428462Y-47157450D01*
X87452141Y-47126591D01*
X88029592Y-46549141D01*
X88096387Y-46510577D01*
X88134951Y-46505500D01*
X89573941Y-46505500D01*
X89648441Y-46525462D01*
G37*
%TD.AperFunction*%
%TD*%
%TA.AperFunction,Conductor*%
%TO.N,/24*%
G36*
X190543039Y-42220185D02*
G01*
X190588794Y-42272989D01*
X190600000Y-42324500D01*
X190600000Y-44876000D01*
X190580315Y-44943039D01*
X190527511Y-44988794D01*
X190476000Y-45000000D01*
X185824000Y-45000000D01*
X185756961Y-44980315D01*
X185711206Y-44927511D01*
X185700000Y-44876000D01*
X185700000Y-44089809D01*
X185708797Y-44047869D01*
X185707630Y-44047469D01*
X185709296Y-44042615D01*
X185764563Y-43824371D01*
X185764564Y-43824368D01*
X185783156Y-43600000D01*
X185764564Y-43375632D01*
X185709296Y-43157384D01*
X185709294Y-43157380D01*
X185707633Y-43152541D01*
X185708793Y-43152142D01*
X185700000Y-43110191D01*
X185700000Y-42324500D01*
X185719685Y-42257461D01*
X185772489Y-42211706D01*
X185824000Y-42200500D01*
X190476000Y-42200500D01*
X190543039Y-42220185D01*
G37*
%TD.AperFunction*%
%TD*%
%TA.AperFunction,Conductor*%
%TO.N,/23*%
G36*
X190542504Y-72219685D02*
G01*
X190588259Y-72272489D01*
X190599464Y-72324534D01*
X190588952Y-74765253D01*
X190568979Y-74832207D01*
X190515978Y-74877734D01*
X190465253Y-74888719D01*
X185924300Y-74899699D01*
X185857213Y-74880176D01*
X185811331Y-74827483D01*
X185800000Y-74775699D01*
X185800000Y-72324000D01*
X185819685Y-72256961D01*
X185872489Y-72211206D01*
X185924000Y-72200000D01*
X190475465Y-72200000D01*
X190542504Y-72219685D01*
G37*
%TD.AperFunction*%
%TD*%
M02*
