%TF.GenerationSoftware,KiCad,Pcbnew,7.0.9*%
%TF.CreationDate,2024-07-19T10:23:14+02:00*%
%TF.ProjectId,signal_sniffer,7369676e-616c-45f7-936e-69666665722e,rev?*%
%TF.SameCoordinates,Original*%
%TF.FileFunction,Legend,Top*%
%TF.FilePolarity,Positive*%
%FSLAX46Y46*%
G04 Gerber Fmt 4.6, Leading zero omitted, Abs format (unit mm)*
G04 Created by KiCad (PCBNEW 7.0.9) date 2024-07-19 10:23:14*
%MOMM*%
%LPD*%
G01*
G04 APERTURE LIST*
%ADD10C,0.150000*%
%ADD11C,0.120000*%
%ADD12C,0.152400*%
G04 APERTURE END LIST*
D10*
X93000000Y-45650000D02*
X93400000Y-45650000D01*
X108800000Y-53800000D02*
X107700000Y-53800000D01*
X105300000Y-69100000D02*
X107600000Y-69100000D01*
X90600000Y-67700000D02*
X91800000Y-67700000D01*
X151100000Y-70650000D02*
X150700000Y-70650000D01*
X98200000Y-45100000D02*
X98200000Y-45600000D01*
X85700000Y-68300000D02*
X85700000Y-67700000D01*
X90650000Y-55500000D02*
X90650000Y-54200000D01*
X97200000Y-63550000D02*
X97800000Y-63550000D01*
X108800000Y-58700000D02*
X107700000Y-58700000D01*
X93000000Y-53450000D02*
X93000000Y-54150000D01*
X150700000Y-71800000D02*
X150000000Y-71800000D01*
X99500000Y-69600000D02*
X99500000Y-66900000D01*
X85700000Y-67700000D02*
X88000000Y-67700000D01*
X151100000Y-69900000D02*
X159700000Y-69900000D01*
X159700000Y-71400000D01*
X151100000Y-71400000D01*
X151100000Y-69900000D01*
X88350000Y-67700000D02*
X90650000Y-67700000D01*
X93000000Y-65900000D02*
X92400000Y-65900000D01*
X106000000Y-76400000D02*
X109200000Y-76400000D01*
X109200000Y-77900000D01*
X106000000Y-77900000D01*
X106000000Y-76400000D01*
X108750000Y-44300000D02*
X107700000Y-44300000D01*
X108850000Y-67500000D02*
X115750000Y-67500000D01*
X115750000Y-69100000D01*
X108850000Y-69100000D01*
X108850000Y-67500000D01*
X93400000Y-45650000D02*
X98200000Y-45650000D01*
X93550000Y-58300000D02*
X102050000Y-58300000D01*
X102050000Y-59900000D01*
X93550000Y-59900000D01*
X93550000Y-58300000D01*
X148700000Y-67000000D02*
X148700000Y-68700000D01*
X105400000Y-54600000D02*
X107700000Y-54600000D01*
X93000000Y-54200000D02*
X88300000Y-54200000D01*
X150700000Y-69400000D02*
X150700000Y-71800000D01*
X142800000Y-69300000D02*
X142800000Y-68750000D01*
X108850000Y-68300000D02*
X107600000Y-68300000D01*
X107700000Y-43600000D02*
X107700000Y-43500000D01*
X86850000Y-66900000D02*
X99500000Y-66900000D01*
X88000000Y-67700000D02*
X88000000Y-68300000D01*
X97800000Y-59900000D02*
X97800000Y-63550000D01*
X150000000Y-69400000D02*
X150700000Y-69400000D01*
X147100000Y-68650000D02*
X147100000Y-69200000D01*
X143700000Y-63300000D02*
X143700000Y-68750000D01*
X86850000Y-67700000D02*
X86850000Y-66900000D01*
X107700000Y-43500000D02*
X105400000Y-43500000D01*
X150700000Y-73200000D02*
X151200000Y-73200000D01*
X142800000Y-68750000D02*
X144600000Y-68750000D01*
X88300000Y-56200000D02*
X88300000Y-55500000D01*
X149550000Y-64300000D02*
X155250000Y-64300000D01*
X155250000Y-65800000D01*
X149550000Y-65800000D01*
X149550000Y-64300000D01*
X93000000Y-63550000D02*
X93400000Y-63550000D01*
X93950000Y-43500000D02*
X102450000Y-43500000D01*
X102450000Y-45100000D01*
X93950000Y-45100000D01*
X93950000Y-43500000D01*
X148225000Y-63300000D02*
X143700000Y-63300000D01*
X108800000Y-57900000D02*
X115700000Y-57900000D01*
X115700000Y-59500000D01*
X108800000Y-59500000D01*
X108800000Y-57900000D01*
X149550000Y-66200000D02*
X155250000Y-66200000D01*
X155250000Y-67700000D01*
X149550000Y-67700000D01*
X149550000Y-66200000D01*
X149600000Y-68700000D02*
X149600000Y-69250000D01*
X98800000Y-71950000D02*
X98800000Y-67700000D01*
X93000000Y-43500000D02*
X93000000Y-48000000D01*
X88350000Y-68300000D02*
X88350000Y-67700000D01*
X93400000Y-63550000D02*
X97200000Y-63550000D01*
X145300000Y-68650000D02*
X147100000Y-68650000D01*
X93000000Y-48000000D02*
X92400000Y-48000000D01*
X92300000Y-61200000D02*
X93000000Y-61200000D01*
X88300000Y-54200000D02*
X88300000Y-53600000D01*
X150700000Y-74500000D02*
X150000000Y-74500000D01*
X107600000Y-69100000D02*
X107600000Y-66800000D01*
X145300000Y-69200000D02*
X145300000Y-68650000D01*
X90650000Y-54800000D02*
X93700000Y-54800000D01*
X150000000Y-72100000D02*
X150700000Y-72100000D01*
X148225000Y-63300000D02*
X149575000Y-63300000D01*
X108750000Y-43500000D02*
X115650000Y-43500000D01*
X115650000Y-45100000D01*
X108750000Y-45100000D01*
X108750000Y-43500000D01*
X150700000Y-72100000D02*
X150700000Y-74500000D01*
X107700000Y-45800000D02*
X107700000Y-43600000D01*
X93000000Y-61200000D02*
X93000000Y-65900000D01*
X93700000Y-54000000D02*
X102100000Y-54000000D01*
X102100000Y-55600000D01*
X93700000Y-55600000D01*
X93700000Y-54000000D01*
X105300000Y-57900000D02*
X107600000Y-57900000D01*
X99500000Y-69400000D02*
X108100000Y-69400000D01*
X108100000Y-70850000D01*
X99500000Y-70850000D01*
X99500000Y-69400000D01*
X148700000Y-67000000D02*
X149550000Y-67000000D01*
X147800000Y-69250000D02*
X147800000Y-68700000D01*
X99500000Y-71200000D02*
X108100000Y-71200000D01*
X108100000Y-72700000D01*
X99500000Y-72700000D01*
X99500000Y-71200000D01*
X88300000Y-55500000D02*
X93000000Y-55500000D01*
X107600000Y-57900000D02*
X107600000Y-60200000D01*
X92300000Y-43500000D02*
X93000000Y-43500000D01*
X146200000Y-65000000D02*
X146200000Y-68650000D01*
X149550000Y-62500000D02*
X155250000Y-62500000D01*
X155250000Y-64000000D01*
X149550000Y-64000000D01*
X149550000Y-62500000D01*
X109200000Y-77150000D02*
X109800000Y-77150000D01*
X149500000Y-65000000D02*
X146225000Y-65000000D01*
X90650000Y-67700000D02*
X90650000Y-68300000D01*
X98800000Y-71950000D02*
X99500000Y-71950000D01*
X147800000Y-68700000D02*
X149600000Y-68700000D01*
X93000000Y-55500000D02*
X93000000Y-56100000D01*
X107700000Y-54600000D02*
X107700000Y-52300000D01*
X103700000Y-62000000D02*
X103700000Y-61300000D01*
X151200000Y-72625000D02*
X159800000Y-72625000D01*
X159800000Y-74075000D01*
X151200000Y-74075000D01*
X151200000Y-72625000D01*
X144600000Y-68750000D02*
X144600000Y-69300000D01*
X98800000Y-67700000D02*
X91800000Y-67700000D01*
X106000000Y-77150000D02*
X105400000Y-77150000D01*
X108800000Y-53000000D02*
X115700000Y-53000000D01*
X115700000Y-54600000D01*
X108800000Y-54600000D01*
X108800000Y-53000000D01*
X91593922Y-91769819D02*
X91927255Y-92769819D01*
X91927255Y-92769819D02*
X92260588Y-91769819D01*
X92784398Y-91769819D02*
X92974874Y-91769819D01*
X92974874Y-91769819D02*
X93070112Y-91817438D01*
X93070112Y-91817438D02*
X93165350Y-91912676D01*
X93165350Y-91912676D02*
X93212969Y-92103152D01*
X93212969Y-92103152D02*
X93212969Y-92436485D01*
X93212969Y-92436485D02*
X93165350Y-92626961D01*
X93165350Y-92626961D02*
X93070112Y-92722200D01*
X93070112Y-92722200D02*
X92974874Y-92769819D01*
X92974874Y-92769819D02*
X92784398Y-92769819D01*
X92784398Y-92769819D02*
X92689160Y-92722200D01*
X92689160Y-92722200D02*
X92593922Y-92626961D01*
X92593922Y-92626961D02*
X92546303Y-92436485D01*
X92546303Y-92436485D02*
X92546303Y-92103152D01*
X92546303Y-92103152D02*
X92593922Y-91912676D01*
X92593922Y-91912676D02*
X92689160Y-91817438D01*
X92689160Y-91817438D02*
X92784398Y-91769819D01*
X94212969Y-92674580D02*
X94165350Y-92722200D01*
X94165350Y-92722200D02*
X94022493Y-92769819D01*
X94022493Y-92769819D02*
X93927255Y-92769819D01*
X93927255Y-92769819D02*
X93784398Y-92722200D01*
X93784398Y-92722200D02*
X93689160Y-92626961D01*
X93689160Y-92626961D02*
X93641541Y-92531723D01*
X93641541Y-92531723D02*
X93593922Y-92341247D01*
X93593922Y-92341247D02*
X93593922Y-92198390D01*
X93593922Y-92198390D02*
X93641541Y-92007914D01*
X93641541Y-92007914D02*
X93689160Y-91912676D01*
X93689160Y-91912676D02*
X93784398Y-91817438D01*
X93784398Y-91817438D02*
X93927255Y-91769819D01*
X93927255Y-91769819D02*
X94022493Y-91769819D01*
X94022493Y-91769819D02*
X94165350Y-91817438D01*
X94165350Y-91817438D02*
X94212969Y-91865057D01*
X94641541Y-92769819D02*
X94641541Y-91769819D01*
X94641541Y-91769819D02*
X94974874Y-92484104D01*
X94974874Y-92484104D02*
X95308207Y-91769819D01*
X95308207Y-91769819D02*
X95308207Y-92769819D01*
X95546303Y-92865057D02*
X96308207Y-92865057D01*
X96498684Y-92484104D02*
X96974874Y-92484104D01*
X96403446Y-92769819D02*
X96736779Y-91769819D01*
X96736779Y-91769819D02*
X97070112Y-92769819D01*
X97403446Y-92769819D02*
X97403446Y-91769819D01*
X97403446Y-91769819D02*
X97641541Y-91769819D01*
X97641541Y-91769819D02*
X97784398Y-91817438D01*
X97784398Y-91817438D02*
X97879636Y-91912676D01*
X97879636Y-91912676D02*
X97927255Y-92007914D01*
X97927255Y-92007914D02*
X97974874Y-92198390D01*
X97974874Y-92198390D02*
X97974874Y-92341247D01*
X97974874Y-92341247D02*
X97927255Y-92531723D01*
X97927255Y-92531723D02*
X97879636Y-92626961D01*
X97879636Y-92626961D02*
X97784398Y-92722200D01*
X97784398Y-92722200D02*
X97641541Y-92769819D01*
X97641541Y-92769819D02*
X97403446Y-92769819D01*
X98974874Y-92674580D02*
X98927255Y-92722200D01*
X98927255Y-92722200D02*
X98784398Y-92769819D01*
X98784398Y-92769819D02*
X98689160Y-92769819D01*
X98689160Y-92769819D02*
X98546303Y-92722200D01*
X98546303Y-92722200D02*
X98451065Y-92626961D01*
X98451065Y-92626961D02*
X98403446Y-92531723D01*
X98403446Y-92531723D02*
X98355827Y-92341247D01*
X98355827Y-92341247D02*
X98355827Y-92198390D01*
X98355827Y-92198390D02*
X98403446Y-92007914D01*
X98403446Y-92007914D02*
X98451065Y-91912676D01*
X98451065Y-91912676D02*
X98546303Y-91817438D01*
X98546303Y-91817438D02*
X98689160Y-91769819D01*
X98689160Y-91769819D02*
X98784398Y-91769819D01*
X98784398Y-91769819D02*
X98927255Y-91817438D01*
X98927255Y-91817438D02*
X98974874Y-91865057D01*
X94608207Y-55174580D02*
X94560588Y-55222200D01*
X94560588Y-55222200D02*
X94417731Y-55269819D01*
X94417731Y-55269819D02*
X94322493Y-55269819D01*
X94322493Y-55269819D02*
X94179636Y-55222200D01*
X94179636Y-55222200D02*
X94084398Y-55126961D01*
X94084398Y-55126961D02*
X94036779Y-55031723D01*
X94036779Y-55031723D02*
X93989160Y-54841247D01*
X93989160Y-54841247D02*
X93989160Y-54698390D01*
X93989160Y-54698390D02*
X94036779Y-54507914D01*
X94036779Y-54507914D02*
X94084398Y-54412676D01*
X94084398Y-54412676D02*
X94179636Y-54317438D01*
X94179636Y-54317438D02*
X94322493Y-54269819D01*
X94322493Y-54269819D02*
X94417731Y-54269819D01*
X94417731Y-54269819D02*
X94560588Y-54317438D01*
X94560588Y-54317438D02*
X94608207Y-54365057D01*
X95370112Y-54746009D02*
X95036779Y-54746009D01*
X95036779Y-55269819D02*
X95036779Y-54269819D01*
X95036779Y-54269819D02*
X95512969Y-54269819D01*
X95893922Y-55269819D02*
X95893922Y-54269819D01*
X95893922Y-54269819D02*
X96132017Y-54269819D01*
X96132017Y-54269819D02*
X96274874Y-54317438D01*
X96274874Y-54317438D02*
X96370112Y-54412676D01*
X96370112Y-54412676D02*
X96417731Y-54507914D01*
X96417731Y-54507914D02*
X96465350Y-54698390D01*
X96465350Y-54698390D02*
X96465350Y-54841247D01*
X96465350Y-54841247D02*
X96417731Y-55031723D01*
X96417731Y-55031723D02*
X96370112Y-55126961D01*
X96370112Y-55126961D02*
X96274874Y-55222200D01*
X96274874Y-55222200D02*
X96132017Y-55269819D01*
X96132017Y-55269819D02*
X95893922Y-55269819D01*
X96655827Y-55365057D02*
X97417731Y-55365057D01*
X97846303Y-54269819D02*
X98036779Y-54269819D01*
X98036779Y-54269819D02*
X98132017Y-54317438D01*
X98132017Y-54317438D02*
X98227255Y-54412676D01*
X98227255Y-54412676D02*
X98274874Y-54603152D01*
X98274874Y-54603152D02*
X98274874Y-54936485D01*
X98274874Y-54936485D02*
X98227255Y-55126961D01*
X98227255Y-55126961D02*
X98132017Y-55222200D01*
X98132017Y-55222200D02*
X98036779Y-55269819D01*
X98036779Y-55269819D02*
X97846303Y-55269819D01*
X97846303Y-55269819D02*
X97751065Y-55222200D01*
X97751065Y-55222200D02*
X97655827Y-55126961D01*
X97655827Y-55126961D02*
X97608208Y-54936485D01*
X97608208Y-54936485D02*
X97608208Y-54603152D01*
X97608208Y-54603152D02*
X97655827Y-54412676D01*
X97655827Y-54412676D02*
X97751065Y-54317438D01*
X97751065Y-54317438D02*
X97846303Y-54269819D01*
X98703446Y-54269819D02*
X98703446Y-55079342D01*
X98703446Y-55079342D02*
X98751065Y-55174580D01*
X98751065Y-55174580D02*
X98798684Y-55222200D01*
X98798684Y-55222200D02*
X98893922Y-55269819D01*
X98893922Y-55269819D02*
X99084398Y-55269819D01*
X99084398Y-55269819D02*
X99179636Y-55222200D01*
X99179636Y-55222200D02*
X99227255Y-55174580D01*
X99227255Y-55174580D02*
X99274874Y-55079342D01*
X99274874Y-55079342D02*
X99274874Y-54269819D01*
X99608208Y-54269819D02*
X100179636Y-54269819D01*
X99893922Y-55269819D02*
X99893922Y-54269819D01*
X100274875Y-55365057D02*
X101036779Y-55365057D01*
X101274875Y-55269819D02*
X101274875Y-54269819D01*
X101274875Y-54269819D02*
X101846303Y-55269819D01*
X101846303Y-55269819D02*
X101846303Y-54269819D01*
X152108207Y-73774580D02*
X152060588Y-73822200D01*
X152060588Y-73822200D02*
X151917731Y-73869819D01*
X151917731Y-73869819D02*
X151822493Y-73869819D01*
X151822493Y-73869819D02*
X151679636Y-73822200D01*
X151679636Y-73822200D02*
X151584398Y-73726961D01*
X151584398Y-73726961D02*
X151536779Y-73631723D01*
X151536779Y-73631723D02*
X151489160Y-73441247D01*
X151489160Y-73441247D02*
X151489160Y-73298390D01*
X151489160Y-73298390D02*
X151536779Y-73107914D01*
X151536779Y-73107914D02*
X151584398Y-73012676D01*
X151584398Y-73012676D02*
X151679636Y-72917438D01*
X151679636Y-72917438D02*
X151822493Y-72869819D01*
X151822493Y-72869819D02*
X151917731Y-72869819D01*
X151917731Y-72869819D02*
X152060588Y-72917438D01*
X152060588Y-72917438D02*
X152108207Y-72965057D01*
X152536779Y-73869819D02*
X152536779Y-72869819D01*
X152536779Y-73346009D02*
X153108207Y-73346009D01*
X153108207Y-73869819D02*
X153108207Y-72869819D01*
X153536779Y-73584104D02*
X154012969Y-73584104D01*
X153441541Y-73869819D02*
X153774874Y-72869819D01*
X153774874Y-72869819D02*
X154108207Y-73869819D01*
X154441541Y-73869819D02*
X154441541Y-72869819D01*
X154441541Y-72869819D02*
X155012969Y-73869819D01*
X155012969Y-73869819D02*
X155012969Y-72869819D01*
X155489160Y-73869819D02*
X155489160Y-72869819D01*
X155489160Y-72869819D02*
X156060588Y-73869819D01*
X156060588Y-73869819D02*
X156060588Y-72869819D01*
X156536779Y-73346009D02*
X156870112Y-73346009D01*
X157012969Y-73869819D02*
X156536779Y-73869819D01*
X156536779Y-73869819D02*
X156536779Y-72869819D01*
X156536779Y-72869819D02*
X157012969Y-72869819D01*
X157917731Y-73869819D02*
X157441541Y-73869819D01*
X157441541Y-73869819D02*
X157441541Y-72869819D01*
X158965351Y-72965057D02*
X159012970Y-72917438D01*
X159012970Y-72917438D02*
X159108208Y-72869819D01*
X159108208Y-72869819D02*
X159346303Y-72869819D01*
X159346303Y-72869819D02*
X159441541Y-72917438D01*
X159441541Y-72917438D02*
X159489160Y-72965057D01*
X159489160Y-72965057D02*
X159536779Y-73060295D01*
X159536779Y-73060295D02*
X159536779Y-73155533D01*
X159536779Y-73155533D02*
X159489160Y-73298390D01*
X159489160Y-73298390D02*
X158917732Y-73869819D01*
X158917732Y-73869819D02*
X159536779Y-73869819D01*
X106860588Y-76717438D02*
X106765350Y-76669819D01*
X106765350Y-76669819D02*
X106622493Y-76669819D01*
X106622493Y-76669819D02*
X106479636Y-76717438D01*
X106479636Y-76717438D02*
X106384398Y-76812676D01*
X106384398Y-76812676D02*
X106336779Y-76907914D01*
X106336779Y-76907914D02*
X106289160Y-77098390D01*
X106289160Y-77098390D02*
X106289160Y-77241247D01*
X106289160Y-77241247D02*
X106336779Y-77431723D01*
X106336779Y-77431723D02*
X106384398Y-77526961D01*
X106384398Y-77526961D02*
X106479636Y-77622200D01*
X106479636Y-77622200D02*
X106622493Y-77669819D01*
X106622493Y-77669819D02*
X106717731Y-77669819D01*
X106717731Y-77669819D02*
X106860588Y-77622200D01*
X106860588Y-77622200D02*
X106908207Y-77574580D01*
X106908207Y-77574580D02*
X106908207Y-77241247D01*
X106908207Y-77241247D02*
X106717731Y-77241247D01*
X107336779Y-77669819D02*
X107336779Y-76669819D01*
X107336779Y-76669819D02*
X107908207Y-77669819D01*
X107908207Y-77669819D02*
X107908207Y-76669819D01*
X108384398Y-77669819D02*
X108384398Y-76669819D01*
X108384398Y-76669819D02*
X108622493Y-76669819D01*
X108622493Y-76669819D02*
X108765350Y-76717438D01*
X108765350Y-76717438D02*
X108860588Y-76812676D01*
X108860588Y-76812676D02*
X108908207Y-76907914D01*
X108908207Y-76907914D02*
X108955826Y-77098390D01*
X108955826Y-77098390D02*
X108955826Y-77241247D01*
X108955826Y-77241247D02*
X108908207Y-77431723D01*
X108908207Y-77431723D02*
X108860588Y-77526961D01*
X108860588Y-77526961D02*
X108765350Y-77622200D01*
X108765350Y-77622200D02*
X108622493Y-77669819D01*
X108622493Y-77669819D02*
X108384398Y-77669819D01*
X91727255Y-84069819D02*
X91917731Y-84069819D01*
X91917731Y-84069819D02*
X92012969Y-84117438D01*
X92012969Y-84117438D02*
X92108207Y-84212676D01*
X92108207Y-84212676D02*
X92155826Y-84403152D01*
X92155826Y-84403152D02*
X92155826Y-84736485D01*
X92155826Y-84736485D02*
X92108207Y-84926961D01*
X92108207Y-84926961D02*
X92012969Y-85022200D01*
X92012969Y-85022200D02*
X91917731Y-85069819D01*
X91917731Y-85069819D02*
X91727255Y-85069819D01*
X91727255Y-85069819D02*
X91632017Y-85022200D01*
X91632017Y-85022200D02*
X91536779Y-84926961D01*
X91536779Y-84926961D02*
X91489160Y-84736485D01*
X91489160Y-84736485D02*
X91489160Y-84403152D01*
X91489160Y-84403152D02*
X91536779Y-84212676D01*
X91536779Y-84212676D02*
X91632017Y-84117438D01*
X91632017Y-84117438D02*
X91727255Y-84069819D01*
X92917731Y-84546009D02*
X92584398Y-84546009D01*
X92584398Y-85069819D02*
X92584398Y-84069819D01*
X92584398Y-84069819D02*
X93060588Y-84069819D01*
X93774874Y-84546009D02*
X93441541Y-84546009D01*
X93441541Y-85069819D02*
X93441541Y-84069819D01*
X93441541Y-84069819D02*
X93917731Y-84069819D01*
X94060589Y-85165057D02*
X94822493Y-85165057D01*
X95632017Y-84974580D02*
X95584398Y-85022200D01*
X95584398Y-85022200D02*
X95441541Y-85069819D01*
X95441541Y-85069819D02*
X95346303Y-85069819D01*
X95346303Y-85069819D02*
X95203446Y-85022200D01*
X95203446Y-85022200D02*
X95108208Y-84926961D01*
X95108208Y-84926961D02*
X95060589Y-84831723D01*
X95060589Y-84831723D02*
X95012970Y-84641247D01*
X95012970Y-84641247D02*
X95012970Y-84498390D01*
X95012970Y-84498390D02*
X95060589Y-84307914D01*
X95060589Y-84307914D02*
X95108208Y-84212676D01*
X95108208Y-84212676D02*
X95203446Y-84117438D01*
X95203446Y-84117438D02*
X95346303Y-84069819D01*
X95346303Y-84069819D02*
X95441541Y-84069819D01*
X95441541Y-84069819D02*
X95584398Y-84117438D01*
X95584398Y-84117438D02*
X95632017Y-84165057D01*
X96060589Y-85069819D02*
X96060589Y-84069819D01*
X96060589Y-84069819D02*
X96393922Y-84784104D01*
X96393922Y-84784104D02*
X96727255Y-84069819D01*
X96727255Y-84069819D02*
X96727255Y-85069819D01*
X97203446Y-85069819D02*
X97203446Y-84069819D01*
X97203446Y-84069819D02*
X97584398Y-84069819D01*
X97584398Y-84069819D02*
X97679636Y-84117438D01*
X97679636Y-84117438D02*
X97727255Y-84165057D01*
X97727255Y-84165057D02*
X97774874Y-84260295D01*
X97774874Y-84260295D02*
X97774874Y-84403152D01*
X97774874Y-84403152D02*
X97727255Y-84498390D01*
X97727255Y-84498390D02*
X97679636Y-84546009D01*
X97679636Y-84546009D02*
X97584398Y-84593628D01*
X97584398Y-84593628D02*
X97203446Y-84593628D01*
X109043922Y-43769819D02*
X109615350Y-43769819D01*
X109329636Y-44769819D02*
X109329636Y-43769819D01*
X110139160Y-43769819D02*
X110329636Y-43769819D01*
X110329636Y-43769819D02*
X110424874Y-43817438D01*
X110424874Y-43817438D02*
X110520112Y-43912676D01*
X110520112Y-43912676D02*
X110567731Y-44103152D01*
X110567731Y-44103152D02*
X110567731Y-44436485D01*
X110567731Y-44436485D02*
X110520112Y-44626961D01*
X110520112Y-44626961D02*
X110424874Y-44722200D01*
X110424874Y-44722200D02*
X110329636Y-44769819D01*
X110329636Y-44769819D02*
X110139160Y-44769819D01*
X110139160Y-44769819D02*
X110043922Y-44722200D01*
X110043922Y-44722200D02*
X109948684Y-44626961D01*
X109948684Y-44626961D02*
X109901065Y-44436485D01*
X109901065Y-44436485D02*
X109901065Y-44103152D01*
X109901065Y-44103152D02*
X109948684Y-43912676D01*
X109948684Y-43912676D02*
X110043922Y-43817438D01*
X110043922Y-43817438D02*
X110139160Y-43769819D01*
X110758208Y-44865057D02*
X111520112Y-44865057D01*
X111758208Y-44769819D02*
X111758208Y-43769819D01*
X112234398Y-44769819D02*
X112234398Y-43769819D01*
X112234398Y-43769819D02*
X112805826Y-44769819D01*
X112805826Y-44769819D02*
X112805826Y-43769819D01*
X113139160Y-43769819D02*
X113710588Y-43769819D01*
X113424874Y-44769819D02*
X113424874Y-43769819D01*
X113805827Y-44865057D02*
X114567731Y-44865057D01*
X114805827Y-44769819D02*
X114805827Y-43769819D01*
X114805827Y-43769819D02*
X115377255Y-44769819D01*
X115377255Y-44769819D02*
X115377255Y-43769819D01*
X91493922Y-71269819D02*
X91827255Y-72269819D01*
X91827255Y-72269819D02*
X92160588Y-71269819D01*
X92493922Y-72269819D02*
X92493922Y-71269819D01*
X92493922Y-71269819D02*
X92732017Y-71269819D01*
X92732017Y-71269819D02*
X92874874Y-71317438D01*
X92874874Y-71317438D02*
X92970112Y-71412676D01*
X92970112Y-71412676D02*
X93017731Y-71507914D01*
X93017731Y-71507914D02*
X93065350Y-71698390D01*
X93065350Y-71698390D02*
X93065350Y-71841247D01*
X93065350Y-71841247D02*
X93017731Y-72031723D01*
X93017731Y-72031723D02*
X92970112Y-72126961D01*
X92970112Y-72126961D02*
X92874874Y-72222200D01*
X92874874Y-72222200D02*
X92732017Y-72269819D01*
X92732017Y-72269819D02*
X92493922Y-72269819D01*
X93493922Y-72269819D02*
X93493922Y-71269819D01*
X93493922Y-71269819D02*
X93732017Y-71269819D01*
X93732017Y-71269819D02*
X93874874Y-71317438D01*
X93874874Y-71317438D02*
X93970112Y-71412676D01*
X93970112Y-71412676D02*
X94017731Y-71507914D01*
X94017731Y-71507914D02*
X94065350Y-71698390D01*
X94065350Y-71698390D02*
X94065350Y-71841247D01*
X94065350Y-71841247D02*
X94017731Y-72031723D01*
X94017731Y-72031723D02*
X93970112Y-72126961D01*
X93970112Y-72126961D02*
X93874874Y-72222200D01*
X93874874Y-72222200D02*
X93732017Y-72269819D01*
X93732017Y-72269819D02*
X93493922Y-72269819D01*
X95065350Y-72174580D02*
X95017731Y-72222200D01*
X95017731Y-72222200D02*
X94874874Y-72269819D01*
X94874874Y-72269819D02*
X94779636Y-72269819D01*
X94779636Y-72269819D02*
X94636779Y-72222200D01*
X94636779Y-72222200D02*
X94541541Y-72126961D01*
X94541541Y-72126961D02*
X94493922Y-72031723D01*
X94493922Y-72031723D02*
X94446303Y-71841247D01*
X94446303Y-71841247D02*
X94446303Y-71698390D01*
X94446303Y-71698390D02*
X94493922Y-71507914D01*
X94493922Y-71507914D02*
X94541541Y-71412676D01*
X94541541Y-71412676D02*
X94636779Y-71317438D01*
X94636779Y-71317438D02*
X94779636Y-71269819D01*
X94779636Y-71269819D02*
X94874874Y-71269819D01*
X94874874Y-71269819D02*
X95017731Y-71317438D01*
X95017731Y-71317438D02*
X95065350Y-71365057D01*
X95493922Y-72269819D02*
X95493922Y-71269819D01*
X95493922Y-71269819D02*
X95827255Y-71984104D01*
X95827255Y-71984104D02*
X96160588Y-71269819D01*
X96160588Y-71269819D02*
X96160588Y-72269819D01*
X96636779Y-72269819D02*
X96636779Y-71269819D01*
X96636779Y-71269819D02*
X97017731Y-71269819D01*
X97017731Y-71269819D02*
X97112969Y-71317438D01*
X97112969Y-71317438D02*
X97160588Y-71365057D01*
X97160588Y-71365057D02*
X97208207Y-71460295D01*
X97208207Y-71460295D02*
X97208207Y-71603152D01*
X97208207Y-71603152D02*
X97160588Y-71698390D01*
X97160588Y-71698390D02*
X97112969Y-71746009D01*
X97112969Y-71746009D02*
X97017731Y-71793628D01*
X97017731Y-71793628D02*
X96636779Y-71793628D01*
X91727255Y-86669819D02*
X91917731Y-86669819D01*
X91917731Y-86669819D02*
X92012969Y-86717438D01*
X92012969Y-86717438D02*
X92108207Y-86812676D01*
X92108207Y-86812676D02*
X92155826Y-87003152D01*
X92155826Y-87003152D02*
X92155826Y-87336485D01*
X92155826Y-87336485D02*
X92108207Y-87526961D01*
X92108207Y-87526961D02*
X92012969Y-87622200D01*
X92012969Y-87622200D02*
X91917731Y-87669819D01*
X91917731Y-87669819D02*
X91727255Y-87669819D01*
X91727255Y-87669819D02*
X91632017Y-87622200D01*
X91632017Y-87622200D02*
X91536779Y-87526961D01*
X91536779Y-87526961D02*
X91489160Y-87336485D01*
X91489160Y-87336485D02*
X91489160Y-87003152D01*
X91489160Y-87003152D02*
X91536779Y-86812676D01*
X91536779Y-86812676D02*
X91632017Y-86717438D01*
X91632017Y-86717438D02*
X91727255Y-86669819D01*
X92917731Y-87146009D02*
X92584398Y-87146009D01*
X92584398Y-87669819D02*
X92584398Y-86669819D01*
X92584398Y-86669819D02*
X93060588Y-86669819D01*
X93774874Y-87146009D02*
X93441541Y-87146009D01*
X93441541Y-87669819D02*
X93441541Y-86669819D01*
X93441541Y-86669819D02*
X93917731Y-86669819D01*
X94251065Y-87622200D02*
X94393922Y-87669819D01*
X94393922Y-87669819D02*
X94632017Y-87669819D01*
X94632017Y-87669819D02*
X94727255Y-87622200D01*
X94727255Y-87622200D02*
X94774874Y-87574580D01*
X94774874Y-87574580D02*
X94822493Y-87479342D01*
X94822493Y-87479342D02*
X94822493Y-87384104D01*
X94822493Y-87384104D02*
X94774874Y-87288866D01*
X94774874Y-87288866D02*
X94727255Y-87241247D01*
X94727255Y-87241247D02*
X94632017Y-87193628D01*
X94632017Y-87193628D02*
X94441541Y-87146009D01*
X94441541Y-87146009D02*
X94346303Y-87098390D01*
X94346303Y-87098390D02*
X94298684Y-87050771D01*
X94298684Y-87050771D02*
X94251065Y-86955533D01*
X94251065Y-86955533D02*
X94251065Y-86860295D01*
X94251065Y-86860295D02*
X94298684Y-86765057D01*
X94298684Y-86765057D02*
X94346303Y-86717438D01*
X94346303Y-86717438D02*
X94441541Y-86669819D01*
X94441541Y-86669819D02*
X94679636Y-86669819D01*
X94679636Y-86669819D02*
X94822493Y-86717438D01*
X95251065Y-87146009D02*
X95584398Y-87146009D01*
X95727255Y-87669819D02*
X95251065Y-87669819D01*
X95251065Y-87669819D02*
X95251065Y-86669819D01*
X95251065Y-86669819D02*
X95727255Y-86669819D01*
X96012970Y-86669819D02*
X96584398Y-86669819D01*
X96298684Y-87669819D02*
X96298684Y-86669819D01*
X96679637Y-87765057D02*
X97441541Y-87765057D01*
X97632018Y-87384104D02*
X98108208Y-87384104D01*
X97536780Y-87669819D02*
X97870113Y-86669819D01*
X97870113Y-86669819D02*
X98203446Y-87669819D01*
X94858207Y-44674580D02*
X94810588Y-44722200D01*
X94810588Y-44722200D02*
X94667731Y-44769819D01*
X94667731Y-44769819D02*
X94572493Y-44769819D01*
X94572493Y-44769819D02*
X94429636Y-44722200D01*
X94429636Y-44722200D02*
X94334398Y-44626961D01*
X94334398Y-44626961D02*
X94286779Y-44531723D01*
X94286779Y-44531723D02*
X94239160Y-44341247D01*
X94239160Y-44341247D02*
X94239160Y-44198390D01*
X94239160Y-44198390D02*
X94286779Y-44007914D01*
X94286779Y-44007914D02*
X94334398Y-43912676D01*
X94334398Y-43912676D02*
X94429636Y-43817438D01*
X94429636Y-43817438D02*
X94572493Y-43769819D01*
X94572493Y-43769819D02*
X94667731Y-43769819D01*
X94667731Y-43769819D02*
X94810588Y-43817438D01*
X94810588Y-43817438D02*
X94858207Y-43865057D01*
X95620112Y-44246009D02*
X95286779Y-44246009D01*
X95286779Y-44769819D02*
X95286779Y-43769819D01*
X95286779Y-43769819D02*
X95762969Y-43769819D01*
X96143922Y-44769819D02*
X96143922Y-43769819D01*
X96143922Y-43769819D02*
X96382017Y-43769819D01*
X96382017Y-43769819D02*
X96524874Y-43817438D01*
X96524874Y-43817438D02*
X96620112Y-43912676D01*
X96620112Y-43912676D02*
X96667731Y-44007914D01*
X96667731Y-44007914D02*
X96715350Y-44198390D01*
X96715350Y-44198390D02*
X96715350Y-44341247D01*
X96715350Y-44341247D02*
X96667731Y-44531723D01*
X96667731Y-44531723D02*
X96620112Y-44626961D01*
X96620112Y-44626961D02*
X96524874Y-44722200D01*
X96524874Y-44722200D02*
X96382017Y-44769819D01*
X96382017Y-44769819D02*
X96143922Y-44769819D01*
X96905827Y-44865057D02*
X97667731Y-44865057D01*
X98096303Y-43769819D02*
X98286779Y-43769819D01*
X98286779Y-43769819D02*
X98382017Y-43817438D01*
X98382017Y-43817438D02*
X98477255Y-43912676D01*
X98477255Y-43912676D02*
X98524874Y-44103152D01*
X98524874Y-44103152D02*
X98524874Y-44436485D01*
X98524874Y-44436485D02*
X98477255Y-44626961D01*
X98477255Y-44626961D02*
X98382017Y-44722200D01*
X98382017Y-44722200D02*
X98286779Y-44769819D01*
X98286779Y-44769819D02*
X98096303Y-44769819D01*
X98096303Y-44769819D02*
X98001065Y-44722200D01*
X98001065Y-44722200D02*
X97905827Y-44626961D01*
X97905827Y-44626961D02*
X97858208Y-44436485D01*
X97858208Y-44436485D02*
X97858208Y-44103152D01*
X97858208Y-44103152D02*
X97905827Y-43912676D01*
X97905827Y-43912676D02*
X98001065Y-43817438D01*
X98001065Y-43817438D02*
X98096303Y-43769819D01*
X98953446Y-43769819D02*
X98953446Y-44579342D01*
X98953446Y-44579342D02*
X99001065Y-44674580D01*
X99001065Y-44674580D02*
X99048684Y-44722200D01*
X99048684Y-44722200D02*
X99143922Y-44769819D01*
X99143922Y-44769819D02*
X99334398Y-44769819D01*
X99334398Y-44769819D02*
X99429636Y-44722200D01*
X99429636Y-44722200D02*
X99477255Y-44674580D01*
X99477255Y-44674580D02*
X99524874Y-44579342D01*
X99524874Y-44579342D02*
X99524874Y-43769819D01*
X99858208Y-43769819D02*
X100429636Y-43769819D01*
X100143922Y-44769819D02*
X100143922Y-43769819D01*
X100524875Y-44865057D02*
X101286779Y-44865057D01*
X101524875Y-44769819D02*
X101524875Y-43769819D01*
X101524875Y-43769819D02*
X101905827Y-43769819D01*
X101905827Y-43769819D02*
X102001065Y-43817438D01*
X102001065Y-43817438D02*
X102048684Y-43865057D01*
X102048684Y-43865057D02*
X102096303Y-43960295D01*
X102096303Y-43960295D02*
X102096303Y-44103152D01*
X102096303Y-44103152D02*
X102048684Y-44198390D01*
X102048684Y-44198390D02*
X102001065Y-44246009D01*
X102001065Y-44246009D02*
X101905827Y-44293628D01*
X101905827Y-44293628D02*
X101524875Y-44293628D01*
X91493922Y-74069819D02*
X91827255Y-75069819D01*
X91827255Y-75069819D02*
X92160588Y-74069819D01*
X92493922Y-75069819D02*
X92493922Y-74069819D01*
X92493922Y-74069819D02*
X92732017Y-74069819D01*
X92732017Y-74069819D02*
X92874874Y-74117438D01*
X92874874Y-74117438D02*
X92970112Y-74212676D01*
X92970112Y-74212676D02*
X93017731Y-74307914D01*
X93017731Y-74307914D02*
X93065350Y-74498390D01*
X93065350Y-74498390D02*
X93065350Y-74641247D01*
X93065350Y-74641247D02*
X93017731Y-74831723D01*
X93017731Y-74831723D02*
X92970112Y-74926961D01*
X92970112Y-74926961D02*
X92874874Y-75022200D01*
X92874874Y-75022200D02*
X92732017Y-75069819D01*
X92732017Y-75069819D02*
X92493922Y-75069819D01*
X93493922Y-75069819D02*
X93493922Y-74069819D01*
X93493922Y-74069819D02*
X93732017Y-74069819D01*
X93732017Y-74069819D02*
X93874874Y-74117438D01*
X93874874Y-74117438D02*
X93970112Y-74212676D01*
X93970112Y-74212676D02*
X94017731Y-74307914D01*
X94017731Y-74307914D02*
X94065350Y-74498390D01*
X94065350Y-74498390D02*
X94065350Y-74641247D01*
X94065350Y-74641247D02*
X94017731Y-74831723D01*
X94017731Y-74831723D02*
X93970112Y-74926961D01*
X93970112Y-74926961D02*
X93874874Y-75022200D01*
X93874874Y-75022200D02*
X93732017Y-75069819D01*
X93732017Y-75069819D02*
X93493922Y-75069819D01*
X95065350Y-74974580D02*
X95017731Y-75022200D01*
X95017731Y-75022200D02*
X94874874Y-75069819D01*
X94874874Y-75069819D02*
X94779636Y-75069819D01*
X94779636Y-75069819D02*
X94636779Y-75022200D01*
X94636779Y-75022200D02*
X94541541Y-74926961D01*
X94541541Y-74926961D02*
X94493922Y-74831723D01*
X94493922Y-74831723D02*
X94446303Y-74641247D01*
X94446303Y-74641247D02*
X94446303Y-74498390D01*
X94446303Y-74498390D02*
X94493922Y-74307914D01*
X94493922Y-74307914D02*
X94541541Y-74212676D01*
X94541541Y-74212676D02*
X94636779Y-74117438D01*
X94636779Y-74117438D02*
X94779636Y-74069819D01*
X94779636Y-74069819D02*
X94874874Y-74069819D01*
X94874874Y-74069819D02*
X95017731Y-74117438D01*
X95017731Y-74117438D02*
X95065350Y-74165057D01*
X95493922Y-75069819D02*
X95493922Y-74069819D01*
X95493922Y-74069819D02*
X95827255Y-74784104D01*
X95827255Y-74784104D02*
X96160588Y-74069819D01*
X96160588Y-74069819D02*
X96160588Y-75069819D01*
X96636779Y-75069819D02*
X96636779Y-74069819D01*
X96636779Y-74069819D02*
X97017731Y-74069819D01*
X97017731Y-74069819D02*
X97112969Y-74117438D01*
X97112969Y-74117438D02*
X97160588Y-74165057D01*
X97160588Y-74165057D02*
X97208207Y-74260295D01*
X97208207Y-74260295D02*
X97208207Y-74403152D01*
X97208207Y-74403152D02*
X97160588Y-74498390D01*
X97160588Y-74498390D02*
X97112969Y-74546009D01*
X97112969Y-74546009D02*
X97017731Y-74593628D01*
X97017731Y-74593628D02*
X96636779Y-74593628D01*
X97636779Y-74688866D02*
X98398684Y-74688866D01*
X98827255Y-74165057D02*
X98874874Y-74117438D01*
X98874874Y-74117438D02*
X98970112Y-74069819D01*
X98970112Y-74069819D02*
X99208207Y-74069819D01*
X99208207Y-74069819D02*
X99303445Y-74117438D01*
X99303445Y-74117438D02*
X99351064Y-74165057D01*
X99351064Y-74165057D02*
X99398683Y-74260295D01*
X99398683Y-74260295D02*
X99398683Y-74355533D01*
X99398683Y-74355533D02*
X99351064Y-74498390D01*
X99351064Y-74498390D02*
X98779636Y-75069819D01*
X98779636Y-75069819D02*
X99398683Y-75069819D01*
X99684398Y-74069819D02*
X100017731Y-75069819D01*
X100017731Y-75069819D02*
X100351064Y-74069819D01*
X91536779Y-76669819D02*
X91536779Y-77479342D01*
X91536779Y-77479342D02*
X91584398Y-77574580D01*
X91584398Y-77574580D02*
X91632017Y-77622200D01*
X91632017Y-77622200D02*
X91727255Y-77669819D01*
X91727255Y-77669819D02*
X91917731Y-77669819D01*
X91917731Y-77669819D02*
X92012969Y-77622200D01*
X92012969Y-77622200D02*
X92060588Y-77574580D01*
X92060588Y-77574580D02*
X92108207Y-77479342D01*
X92108207Y-77479342D02*
X92108207Y-76669819D01*
X92536779Y-77622200D02*
X92679636Y-77669819D01*
X92679636Y-77669819D02*
X92917731Y-77669819D01*
X92917731Y-77669819D02*
X93012969Y-77622200D01*
X93012969Y-77622200D02*
X93060588Y-77574580D01*
X93060588Y-77574580D02*
X93108207Y-77479342D01*
X93108207Y-77479342D02*
X93108207Y-77384104D01*
X93108207Y-77384104D02*
X93060588Y-77288866D01*
X93060588Y-77288866D02*
X93012969Y-77241247D01*
X93012969Y-77241247D02*
X92917731Y-77193628D01*
X92917731Y-77193628D02*
X92727255Y-77146009D01*
X92727255Y-77146009D02*
X92632017Y-77098390D01*
X92632017Y-77098390D02*
X92584398Y-77050771D01*
X92584398Y-77050771D02*
X92536779Y-76955533D01*
X92536779Y-76955533D02*
X92536779Y-76860295D01*
X92536779Y-76860295D02*
X92584398Y-76765057D01*
X92584398Y-76765057D02*
X92632017Y-76717438D01*
X92632017Y-76717438D02*
X92727255Y-76669819D01*
X92727255Y-76669819D02*
X92965350Y-76669819D01*
X92965350Y-76669819D02*
X93108207Y-76717438D01*
X93536779Y-77146009D02*
X93870112Y-77146009D01*
X94012969Y-77669819D02*
X93536779Y-77669819D01*
X93536779Y-77669819D02*
X93536779Y-76669819D01*
X93536779Y-76669819D02*
X94012969Y-76669819D01*
X95012969Y-77669819D02*
X94679636Y-77193628D01*
X94441541Y-77669819D02*
X94441541Y-76669819D01*
X94441541Y-76669819D02*
X94822493Y-76669819D01*
X94822493Y-76669819D02*
X94917731Y-76717438D01*
X94917731Y-76717438D02*
X94965350Y-76765057D01*
X94965350Y-76765057D02*
X95012969Y-76860295D01*
X95012969Y-76860295D02*
X95012969Y-77003152D01*
X95012969Y-77003152D02*
X94965350Y-77098390D01*
X94965350Y-77098390D02*
X94917731Y-77146009D01*
X94917731Y-77146009D02*
X94822493Y-77193628D01*
X94822493Y-77193628D02*
X94441541Y-77193628D01*
X95203446Y-77765057D02*
X95965350Y-77765057D01*
X96727255Y-77669819D02*
X96155827Y-77669819D01*
X96441541Y-77669819D02*
X96441541Y-76669819D01*
X96441541Y-76669819D02*
X96346303Y-76812676D01*
X96346303Y-76812676D02*
X96251065Y-76907914D01*
X96251065Y-76907914D02*
X96155827Y-76955533D01*
X149786779Y-66469819D02*
X149786779Y-67279342D01*
X149786779Y-67279342D02*
X149834398Y-67374580D01*
X149834398Y-67374580D02*
X149882017Y-67422200D01*
X149882017Y-67422200D02*
X149977255Y-67469819D01*
X149977255Y-67469819D02*
X150167731Y-67469819D01*
X150167731Y-67469819D02*
X150262969Y-67422200D01*
X150262969Y-67422200D02*
X150310588Y-67374580D01*
X150310588Y-67374580D02*
X150358207Y-67279342D01*
X150358207Y-67279342D02*
X150358207Y-66469819D01*
X150786779Y-67422200D02*
X150929636Y-67469819D01*
X150929636Y-67469819D02*
X151167731Y-67469819D01*
X151167731Y-67469819D02*
X151262969Y-67422200D01*
X151262969Y-67422200D02*
X151310588Y-67374580D01*
X151310588Y-67374580D02*
X151358207Y-67279342D01*
X151358207Y-67279342D02*
X151358207Y-67184104D01*
X151358207Y-67184104D02*
X151310588Y-67088866D01*
X151310588Y-67088866D02*
X151262969Y-67041247D01*
X151262969Y-67041247D02*
X151167731Y-66993628D01*
X151167731Y-66993628D02*
X150977255Y-66946009D01*
X150977255Y-66946009D02*
X150882017Y-66898390D01*
X150882017Y-66898390D02*
X150834398Y-66850771D01*
X150834398Y-66850771D02*
X150786779Y-66755533D01*
X150786779Y-66755533D02*
X150786779Y-66660295D01*
X150786779Y-66660295D02*
X150834398Y-66565057D01*
X150834398Y-66565057D02*
X150882017Y-66517438D01*
X150882017Y-66517438D02*
X150977255Y-66469819D01*
X150977255Y-66469819D02*
X151215350Y-66469819D01*
X151215350Y-66469819D02*
X151358207Y-66517438D01*
X151786779Y-66946009D02*
X152120112Y-66946009D01*
X152262969Y-67469819D02*
X151786779Y-67469819D01*
X151786779Y-67469819D02*
X151786779Y-66469819D01*
X151786779Y-66469819D02*
X152262969Y-66469819D01*
X153262969Y-67469819D02*
X152929636Y-66993628D01*
X152691541Y-67469819D02*
X152691541Y-66469819D01*
X152691541Y-66469819D02*
X153072493Y-66469819D01*
X153072493Y-66469819D02*
X153167731Y-66517438D01*
X153167731Y-66517438D02*
X153215350Y-66565057D01*
X153215350Y-66565057D02*
X153262969Y-66660295D01*
X153262969Y-66660295D02*
X153262969Y-66803152D01*
X153262969Y-66803152D02*
X153215350Y-66898390D01*
X153215350Y-66898390D02*
X153167731Y-66946009D01*
X153167731Y-66946009D02*
X153072493Y-66993628D01*
X153072493Y-66993628D02*
X152691541Y-66993628D01*
X154358208Y-66469819D02*
X154977255Y-66469819D01*
X154977255Y-66469819D02*
X154643922Y-66850771D01*
X154643922Y-66850771D02*
X154786779Y-66850771D01*
X154786779Y-66850771D02*
X154882017Y-66898390D01*
X154882017Y-66898390D02*
X154929636Y-66946009D01*
X154929636Y-66946009D02*
X154977255Y-67041247D01*
X154977255Y-67041247D02*
X154977255Y-67279342D01*
X154977255Y-67279342D02*
X154929636Y-67374580D01*
X154929636Y-67374580D02*
X154882017Y-67422200D01*
X154882017Y-67422200D02*
X154786779Y-67469819D01*
X154786779Y-67469819D02*
X154501065Y-67469819D01*
X154501065Y-67469819D02*
X154405827Y-67422200D01*
X154405827Y-67422200D02*
X154358208Y-67374580D01*
X149786779Y-64569819D02*
X149786779Y-65379342D01*
X149786779Y-65379342D02*
X149834398Y-65474580D01*
X149834398Y-65474580D02*
X149882017Y-65522200D01*
X149882017Y-65522200D02*
X149977255Y-65569819D01*
X149977255Y-65569819D02*
X150167731Y-65569819D01*
X150167731Y-65569819D02*
X150262969Y-65522200D01*
X150262969Y-65522200D02*
X150310588Y-65474580D01*
X150310588Y-65474580D02*
X150358207Y-65379342D01*
X150358207Y-65379342D02*
X150358207Y-64569819D01*
X150786779Y-65522200D02*
X150929636Y-65569819D01*
X150929636Y-65569819D02*
X151167731Y-65569819D01*
X151167731Y-65569819D02*
X151262969Y-65522200D01*
X151262969Y-65522200D02*
X151310588Y-65474580D01*
X151310588Y-65474580D02*
X151358207Y-65379342D01*
X151358207Y-65379342D02*
X151358207Y-65284104D01*
X151358207Y-65284104D02*
X151310588Y-65188866D01*
X151310588Y-65188866D02*
X151262969Y-65141247D01*
X151262969Y-65141247D02*
X151167731Y-65093628D01*
X151167731Y-65093628D02*
X150977255Y-65046009D01*
X150977255Y-65046009D02*
X150882017Y-64998390D01*
X150882017Y-64998390D02*
X150834398Y-64950771D01*
X150834398Y-64950771D02*
X150786779Y-64855533D01*
X150786779Y-64855533D02*
X150786779Y-64760295D01*
X150786779Y-64760295D02*
X150834398Y-64665057D01*
X150834398Y-64665057D02*
X150882017Y-64617438D01*
X150882017Y-64617438D02*
X150977255Y-64569819D01*
X150977255Y-64569819D02*
X151215350Y-64569819D01*
X151215350Y-64569819D02*
X151358207Y-64617438D01*
X151786779Y-65046009D02*
X152120112Y-65046009D01*
X152262969Y-65569819D02*
X151786779Y-65569819D01*
X151786779Y-65569819D02*
X151786779Y-64569819D01*
X151786779Y-64569819D02*
X152262969Y-64569819D01*
X153262969Y-65569819D02*
X152929636Y-65093628D01*
X152691541Y-65569819D02*
X152691541Y-64569819D01*
X152691541Y-64569819D02*
X153072493Y-64569819D01*
X153072493Y-64569819D02*
X153167731Y-64617438D01*
X153167731Y-64617438D02*
X153215350Y-64665057D01*
X153215350Y-64665057D02*
X153262969Y-64760295D01*
X153262969Y-64760295D02*
X153262969Y-64903152D01*
X153262969Y-64903152D02*
X153215350Y-64998390D01*
X153215350Y-64998390D02*
X153167731Y-65046009D01*
X153167731Y-65046009D02*
X153072493Y-65093628D01*
X153072493Y-65093628D02*
X152691541Y-65093628D01*
X154405827Y-64665057D02*
X154453446Y-64617438D01*
X154453446Y-64617438D02*
X154548684Y-64569819D01*
X154548684Y-64569819D02*
X154786779Y-64569819D01*
X154786779Y-64569819D02*
X154882017Y-64617438D01*
X154882017Y-64617438D02*
X154929636Y-64665057D01*
X154929636Y-64665057D02*
X154977255Y-64760295D01*
X154977255Y-64760295D02*
X154977255Y-64855533D01*
X154977255Y-64855533D02*
X154929636Y-64998390D01*
X154929636Y-64998390D02*
X154358208Y-65569819D01*
X154358208Y-65569819D02*
X154977255Y-65569819D01*
X91536779Y-79069819D02*
X91536779Y-79879342D01*
X91536779Y-79879342D02*
X91584398Y-79974580D01*
X91584398Y-79974580D02*
X91632017Y-80022200D01*
X91632017Y-80022200D02*
X91727255Y-80069819D01*
X91727255Y-80069819D02*
X91917731Y-80069819D01*
X91917731Y-80069819D02*
X92012969Y-80022200D01*
X92012969Y-80022200D02*
X92060588Y-79974580D01*
X92060588Y-79974580D02*
X92108207Y-79879342D01*
X92108207Y-79879342D02*
X92108207Y-79069819D01*
X92536779Y-80022200D02*
X92679636Y-80069819D01*
X92679636Y-80069819D02*
X92917731Y-80069819D01*
X92917731Y-80069819D02*
X93012969Y-80022200D01*
X93012969Y-80022200D02*
X93060588Y-79974580D01*
X93060588Y-79974580D02*
X93108207Y-79879342D01*
X93108207Y-79879342D02*
X93108207Y-79784104D01*
X93108207Y-79784104D02*
X93060588Y-79688866D01*
X93060588Y-79688866D02*
X93012969Y-79641247D01*
X93012969Y-79641247D02*
X92917731Y-79593628D01*
X92917731Y-79593628D02*
X92727255Y-79546009D01*
X92727255Y-79546009D02*
X92632017Y-79498390D01*
X92632017Y-79498390D02*
X92584398Y-79450771D01*
X92584398Y-79450771D02*
X92536779Y-79355533D01*
X92536779Y-79355533D02*
X92536779Y-79260295D01*
X92536779Y-79260295D02*
X92584398Y-79165057D01*
X92584398Y-79165057D02*
X92632017Y-79117438D01*
X92632017Y-79117438D02*
X92727255Y-79069819D01*
X92727255Y-79069819D02*
X92965350Y-79069819D01*
X92965350Y-79069819D02*
X93108207Y-79117438D01*
X93536779Y-79546009D02*
X93870112Y-79546009D01*
X94012969Y-80069819D02*
X93536779Y-80069819D01*
X93536779Y-80069819D02*
X93536779Y-79069819D01*
X93536779Y-79069819D02*
X94012969Y-79069819D01*
X95012969Y-80069819D02*
X94679636Y-79593628D01*
X94441541Y-80069819D02*
X94441541Y-79069819D01*
X94441541Y-79069819D02*
X94822493Y-79069819D01*
X94822493Y-79069819D02*
X94917731Y-79117438D01*
X94917731Y-79117438D02*
X94965350Y-79165057D01*
X94965350Y-79165057D02*
X95012969Y-79260295D01*
X95012969Y-79260295D02*
X95012969Y-79403152D01*
X95012969Y-79403152D02*
X94965350Y-79498390D01*
X94965350Y-79498390D02*
X94917731Y-79546009D01*
X94917731Y-79546009D02*
X94822493Y-79593628D01*
X94822493Y-79593628D02*
X94441541Y-79593628D01*
X95203446Y-80165057D02*
X95965350Y-80165057D01*
X96155827Y-79165057D02*
X96203446Y-79117438D01*
X96203446Y-79117438D02*
X96298684Y-79069819D01*
X96298684Y-79069819D02*
X96536779Y-79069819D01*
X96536779Y-79069819D02*
X96632017Y-79117438D01*
X96632017Y-79117438D02*
X96679636Y-79165057D01*
X96679636Y-79165057D02*
X96727255Y-79260295D01*
X96727255Y-79260295D02*
X96727255Y-79355533D01*
X96727255Y-79355533D02*
X96679636Y-79498390D01*
X96679636Y-79498390D02*
X96108208Y-80069819D01*
X96108208Y-80069819D02*
X96727255Y-80069819D01*
X92060588Y-68617438D02*
X91965350Y-68569819D01*
X91965350Y-68569819D02*
X91822493Y-68569819D01*
X91822493Y-68569819D02*
X91679636Y-68617438D01*
X91679636Y-68617438D02*
X91584398Y-68712676D01*
X91584398Y-68712676D02*
X91536779Y-68807914D01*
X91536779Y-68807914D02*
X91489160Y-68998390D01*
X91489160Y-68998390D02*
X91489160Y-69141247D01*
X91489160Y-69141247D02*
X91536779Y-69331723D01*
X91536779Y-69331723D02*
X91584398Y-69426961D01*
X91584398Y-69426961D02*
X91679636Y-69522200D01*
X91679636Y-69522200D02*
X91822493Y-69569819D01*
X91822493Y-69569819D02*
X91917731Y-69569819D01*
X91917731Y-69569819D02*
X92060588Y-69522200D01*
X92060588Y-69522200D02*
X92108207Y-69474580D01*
X92108207Y-69474580D02*
X92108207Y-69141247D01*
X92108207Y-69141247D02*
X91917731Y-69141247D01*
X92536779Y-69569819D02*
X92536779Y-68569819D01*
X92536779Y-68569819D02*
X93108207Y-69569819D01*
X93108207Y-69569819D02*
X93108207Y-68569819D01*
X93584398Y-69569819D02*
X93584398Y-68569819D01*
X93584398Y-68569819D02*
X93822493Y-68569819D01*
X93822493Y-68569819D02*
X93965350Y-68617438D01*
X93965350Y-68617438D02*
X94060588Y-68712676D01*
X94060588Y-68712676D02*
X94108207Y-68807914D01*
X94108207Y-68807914D02*
X94155826Y-68998390D01*
X94155826Y-68998390D02*
X94155826Y-69141247D01*
X94155826Y-69141247D02*
X94108207Y-69331723D01*
X94108207Y-69331723D02*
X94060588Y-69426961D01*
X94060588Y-69426961D02*
X93965350Y-69522200D01*
X93965350Y-69522200D02*
X93822493Y-69569819D01*
X93822493Y-69569819D02*
X93584398Y-69569819D01*
X91827255Y-94369819D02*
X92017731Y-94369819D01*
X92017731Y-94369819D02*
X92112969Y-94417438D01*
X92112969Y-94417438D02*
X92208207Y-94512676D01*
X92208207Y-94512676D02*
X92255826Y-94703152D01*
X92255826Y-94703152D02*
X92255826Y-95036485D01*
X92255826Y-95036485D02*
X92208207Y-95226961D01*
X92208207Y-95226961D02*
X92112969Y-95322200D01*
X92112969Y-95322200D02*
X92017731Y-95369819D01*
X92017731Y-95369819D02*
X91827255Y-95369819D01*
X91827255Y-95369819D02*
X91732017Y-95322200D01*
X91732017Y-95322200D02*
X91636779Y-95226961D01*
X91636779Y-95226961D02*
X91589160Y-95036485D01*
X91589160Y-95036485D02*
X91589160Y-94703152D01*
X91589160Y-94703152D02*
X91636779Y-94512676D01*
X91636779Y-94512676D02*
X91732017Y-94417438D01*
X91732017Y-94417438D02*
X91827255Y-94369819D01*
X93017731Y-94846009D02*
X92684398Y-94846009D01*
X92684398Y-95369819D02*
X92684398Y-94369819D01*
X92684398Y-94369819D02*
X93160588Y-94369819D01*
X93874874Y-94846009D02*
X93541541Y-94846009D01*
X93541541Y-95369819D02*
X93541541Y-94369819D01*
X93541541Y-94369819D02*
X94017731Y-94369819D01*
X94351065Y-95322200D02*
X94493922Y-95369819D01*
X94493922Y-95369819D02*
X94732017Y-95369819D01*
X94732017Y-95369819D02*
X94827255Y-95322200D01*
X94827255Y-95322200D02*
X94874874Y-95274580D01*
X94874874Y-95274580D02*
X94922493Y-95179342D01*
X94922493Y-95179342D02*
X94922493Y-95084104D01*
X94922493Y-95084104D02*
X94874874Y-94988866D01*
X94874874Y-94988866D02*
X94827255Y-94941247D01*
X94827255Y-94941247D02*
X94732017Y-94893628D01*
X94732017Y-94893628D02*
X94541541Y-94846009D01*
X94541541Y-94846009D02*
X94446303Y-94798390D01*
X94446303Y-94798390D02*
X94398684Y-94750771D01*
X94398684Y-94750771D02*
X94351065Y-94655533D01*
X94351065Y-94655533D02*
X94351065Y-94560295D01*
X94351065Y-94560295D02*
X94398684Y-94465057D01*
X94398684Y-94465057D02*
X94446303Y-94417438D01*
X94446303Y-94417438D02*
X94541541Y-94369819D01*
X94541541Y-94369819D02*
X94779636Y-94369819D01*
X94779636Y-94369819D02*
X94922493Y-94417438D01*
X95351065Y-94846009D02*
X95684398Y-94846009D01*
X95827255Y-95369819D02*
X95351065Y-95369819D01*
X95351065Y-95369819D02*
X95351065Y-94369819D01*
X95351065Y-94369819D02*
X95827255Y-94369819D01*
X96112970Y-94369819D02*
X96684398Y-94369819D01*
X96398684Y-95369819D02*
X96398684Y-94369819D01*
X96779637Y-95465057D02*
X97541541Y-95465057D01*
X98112970Y-94846009D02*
X98255827Y-94893628D01*
X98255827Y-94893628D02*
X98303446Y-94941247D01*
X98303446Y-94941247D02*
X98351065Y-95036485D01*
X98351065Y-95036485D02*
X98351065Y-95179342D01*
X98351065Y-95179342D02*
X98303446Y-95274580D01*
X98303446Y-95274580D02*
X98255827Y-95322200D01*
X98255827Y-95322200D02*
X98160589Y-95369819D01*
X98160589Y-95369819D02*
X97779637Y-95369819D01*
X97779637Y-95369819D02*
X97779637Y-94369819D01*
X97779637Y-94369819D02*
X98112970Y-94369819D01*
X98112970Y-94369819D02*
X98208208Y-94417438D01*
X98208208Y-94417438D02*
X98255827Y-94465057D01*
X98255827Y-94465057D02*
X98303446Y-94560295D01*
X98303446Y-94560295D02*
X98303446Y-94655533D01*
X98303446Y-94655533D02*
X98255827Y-94750771D01*
X98255827Y-94750771D02*
X98208208Y-94798390D01*
X98208208Y-94798390D02*
X98112970Y-94846009D01*
X98112970Y-94846009D02*
X97779637Y-94846009D01*
X91636779Y-97869819D02*
X91636779Y-96869819D01*
X91636779Y-96869819D02*
X92017731Y-96869819D01*
X92017731Y-96869819D02*
X92112969Y-96917438D01*
X92112969Y-96917438D02*
X92160588Y-96965057D01*
X92160588Y-96965057D02*
X92208207Y-97060295D01*
X92208207Y-97060295D02*
X92208207Y-97203152D01*
X92208207Y-97203152D02*
X92160588Y-97298390D01*
X92160588Y-97298390D02*
X92112969Y-97346009D01*
X92112969Y-97346009D02*
X92017731Y-97393628D01*
X92017731Y-97393628D02*
X91636779Y-97393628D01*
X93112969Y-96869819D02*
X92636779Y-96869819D01*
X92636779Y-96869819D02*
X92589160Y-97346009D01*
X92589160Y-97346009D02*
X92636779Y-97298390D01*
X92636779Y-97298390D02*
X92732017Y-97250771D01*
X92732017Y-97250771D02*
X92970112Y-97250771D01*
X92970112Y-97250771D02*
X93065350Y-97298390D01*
X93065350Y-97298390D02*
X93112969Y-97346009D01*
X93112969Y-97346009D02*
X93160588Y-97441247D01*
X93160588Y-97441247D02*
X93160588Y-97679342D01*
X93160588Y-97679342D02*
X93112969Y-97774580D01*
X93112969Y-97774580D02*
X93065350Y-97822200D01*
X93065350Y-97822200D02*
X92970112Y-97869819D01*
X92970112Y-97869819D02*
X92732017Y-97869819D01*
X92732017Y-97869819D02*
X92636779Y-97822200D01*
X92636779Y-97822200D02*
X92589160Y-97774580D01*
X100408207Y-72324580D02*
X100360588Y-72372200D01*
X100360588Y-72372200D02*
X100217731Y-72419819D01*
X100217731Y-72419819D02*
X100122493Y-72419819D01*
X100122493Y-72419819D02*
X99979636Y-72372200D01*
X99979636Y-72372200D02*
X99884398Y-72276961D01*
X99884398Y-72276961D02*
X99836779Y-72181723D01*
X99836779Y-72181723D02*
X99789160Y-71991247D01*
X99789160Y-71991247D02*
X99789160Y-71848390D01*
X99789160Y-71848390D02*
X99836779Y-71657914D01*
X99836779Y-71657914D02*
X99884398Y-71562676D01*
X99884398Y-71562676D02*
X99979636Y-71467438D01*
X99979636Y-71467438D02*
X100122493Y-71419819D01*
X100122493Y-71419819D02*
X100217731Y-71419819D01*
X100217731Y-71419819D02*
X100360588Y-71467438D01*
X100360588Y-71467438D02*
X100408207Y-71515057D01*
X100836779Y-72419819D02*
X100836779Y-71419819D01*
X100836779Y-71896009D02*
X101408207Y-71896009D01*
X101408207Y-72419819D02*
X101408207Y-71419819D01*
X101836779Y-72134104D02*
X102312969Y-72134104D01*
X101741541Y-72419819D02*
X102074874Y-71419819D01*
X102074874Y-71419819D02*
X102408207Y-72419819D01*
X102741541Y-72419819D02*
X102741541Y-71419819D01*
X102741541Y-71419819D02*
X103312969Y-72419819D01*
X103312969Y-72419819D02*
X103312969Y-71419819D01*
X103789160Y-72419819D02*
X103789160Y-71419819D01*
X103789160Y-71419819D02*
X104360588Y-72419819D01*
X104360588Y-72419819D02*
X104360588Y-71419819D01*
X104836779Y-71896009D02*
X105170112Y-71896009D01*
X105312969Y-72419819D02*
X104836779Y-72419819D01*
X104836779Y-72419819D02*
X104836779Y-71419819D01*
X104836779Y-71419819D02*
X105312969Y-71419819D01*
X106217731Y-72419819D02*
X105741541Y-72419819D01*
X105741541Y-72419819D02*
X105741541Y-71419819D01*
X107265351Y-71515057D02*
X107312970Y-71467438D01*
X107312970Y-71467438D02*
X107408208Y-71419819D01*
X107408208Y-71419819D02*
X107646303Y-71419819D01*
X107646303Y-71419819D02*
X107741541Y-71467438D01*
X107741541Y-71467438D02*
X107789160Y-71515057D01*
X107789160Y-71515057D02*
X107836779Y-71610295D01*
X107836779Y-71610295D02*
X107836779Y-71705533D01*
X107836779Y-71705533D02*
X107789160Y-71848390D01*
X107789160Y-71848390D02*
X107217732Y-72419819D01*
X107217732Y-72419819D02*
X107836779Y-72419819D01*
X94458207Y-59474580D02*
X94410588Y-59522200D01*
X94410588Y-59522200D02*
X94267731Y-59569819D01*
X94267731Y-59569819D02*
X94172493Y-59569819D01*
X94172493Y-59569819D02*
X94029636Y-59522200D01*
X94029636Y-59522200D02*
X93934398Y-59426961D01*
X93934398Y-59426961D02*
X93886779Y-59331723D01*
X93886779Y-59331723D02*
X93839160Y-59141247D01*
X93839160Y-59141247D02*
X93839160Y-58998390D01*
X93839160Y-58998390D02*
X93886779Y-58807914D01*
X93886779Y-58807914D02*
X93934398Y-58712676D01*
X93934398Y-58712676D02*
X94029636Y-58617438D01*
X94029636Y-58617438D02*
X94172493Y-58569819D01*
X94172493Y-58569819D02*
X94267731Y-58569819D01*
X94267731Y-58569819D02*
X94410588Y-58617438D01*
X94410588Y-58617438D02*
X94458207Y-58665057D01*
X95220112Y-59046009D02*
X94886779Y-59046009D01*
X94886779Y-59569819D02*
X94886779Y-58569819D01*
X94886779Y-58569819D02*
X95362969Y-58569819D01*
X95743922Y-59569819D02*
X95743922Y-58569819D01*
X95743922Y-58569819D02*
X95982017Y-58569819D01*
X95982017Y-58569819D02*
X96124874Y-58617438D01*
X96124874Y-58617438D02*
X96220112Y-58712676D01*
X96220112Y-58712676D02*
X96267731Y-58807914D01*
X96267731Y-58807914D02*
X96315350Y-58998390D01*
X96315350Y-58998390D02*
X96315350Y-59141247D01*
X96315350Y-59141247D02*
X96267731Y-59331723D01*
X96267731Y-59331723D02*
X96220112Y-59426961D01*
X96220112Y-59426961D02*
X96124874Y-59522200D01*
X96124874Y-59522200D02*
X95982017Y-59569819D01*
X95982017Y-59569819D02*
X95743922Y-59569819D01*
X96505827Y-59665057D02*
X97267731Y-59665057D01*
X97696303Y-58569819D02*
X97886779Y-58569819D01*
X97886779Y-58569819D02*
X97982017Y-58617438D01*
X97982017Y-58617438D02*
X98077255Y-58712676D01*
X98077255Y-58712676D02*
X98124874Y-58903152D01*
X98124874Y-58903152D02*
X98124874Y-59236485D01*
X98124874Y-59236485D02*
X98077255Y-59426961D01*
X98077255Y-59426961D02*
X97982017Y-59522200D01*
X97982017Y-59522200D02*
X97886779Y-59569819D01*
X97886779Y-59569819D02*
X97696303Y-59569819D01*
X97696303Y-59569819D02*
X97601065Y-59522200D01*
X97601065Y-59522200D02*
X97505827Y-59426961D01*
X97505827Y-59426961D02*
X97458208Y-59236485D01*
X97458208Y-59236485D02*
X97458208Y-58903152D01*
X97458208Y-58903152D02*
X97505827Y-58712676D01*
X97505827Y-58712676D02*
X97601065Y-58617438D01*
X97601065Y-58617438D02*
X97696303Y-58569819D01*
X98553446Y-58569819D02*
X98553446Y-59379342D01*
X98553446Y-59379342D02*
X98601065Y-59474580D01*
X98601065Y-59474580D02*
X98648684Y-59522200D01*
X98648684Y-59522200D02*
X98743922Y-59569819D01*
X98743922Y-59569819D02*
X98934398Y-59569819D01*
X98934398Y-59569819D02*
X99029636Y-59522200D01*
X99029636Y-59522200D02*
X99077255Y-59474580D01*
X99077255Y-59474580D02*
X99124874Y-59379342D01*
X99124874Y-59379342D02*
X99124874Y-58569819D01*
X99458208Y-58569819D02*
X100029636Y-58569819D01*
X99743922Y-59569819D02*
X99743922Y-58569819D01*
X100124875Y-59665057D02*
X100886779Y-59665057D01*
X101124875Y-59569819D02*
X101124875Y-58569819D01*
X101124875Y-58569819D02*
X101505827Y-58569819D01*
X101505827Y-58569819D02*
X101601065Y-58617438D01*
X101601065Y-58617438D02*
X101648684Y-58665057D01*
X101648684Y-58665057D02*
X101696303Y-58760295D01*
X101696303Y-58760295D02*
X101696303Y-58903152D01*
X101696303Y-58903152D02*
X101648684Y-58998390D01*
X101648684Y-58998390D02*
X101601065Y-59046009D01*
X101601065Y-59046009D02*
X101505827Y-59093628D01*
X101505827Y-59093628D02*
X101124875Y-59093628D01*
X109093922Y-53269819D02*
X109665350Y-53269819D01*
X109379636Y-54269819D02*
X109379636Y-53269819D01*
X110189160Y-53269819D02*
X110379636Y-53269819D01*
X110379636Y-53269819D02*
X110474874Y-53317438D01*
X110474874Y-53317438D02*
X110570112Y-53412676D01*
X110570112Y-53412676D02*
X110617731Y-53603152D01*
X110617731Y-53603152D02*
X110617731Y-53936485D01*
X110617731Y-53936485D02*
X110570112Y-54126961D01*
X110570112Y-54126961D02*
X110474874Y-54222200D01*
X110474874Y-54222200D02*
X110379636Y-54269819D01*
X110379636Y-54269819D02*
X110189160Y-54269819D01*
X110189160Y-54269819D02*
X110093922Y-54222200D01*
X110093922Y-54222200D02*
X109998684Y-54126961D01*
X109998684Y-54126961D02*
X109951065Y-53936485D01*
X109951065Y-53936485D02*
X109951065Y-53603152D01*
X109951065Y-53603152D02*
X109998684Y-53412676D01*
X109998684Y-53412676D02*
X110093922Y-53317438D01*
X110093922Y-53317438D02*
X110189160Y-53269819D01*
X110808208Y-54365057D02*
X111570112Y-54365057D01*
X111808208Y-54269819D02*
X111808208Y-53269819D01*
X112284398Y-54269819D02*
X112284398Y-53269819D01*
X112284398Y-53269819D02*
X112855826Y-54269819D01*
X112855826Y-54269819D02*
X112855826Y-53269819D01*
X113189160Y-53269819D02*
X113760588Y-53269819D01*
X113474874Y-54269819D02*
X113474874Y-53269819D01*
X113855827Y-54365057D02*
X114617731Y-54365057D01*
X114855827Y-54269819D02*
X114855827Y-53269819D01*
X114855827Y-53269819D02*
X115236779Y-53269819D01*
X115236779Y-53269819D02*
X115332017Y-53317438D01*
X115332017Y-53317438D02*
X115379636Y-53365057D01*
X115379636Y-53365057D02*
X115427255Y-53460295D01*
X115427255Y-53460295D02*
X115427255Y-53603152D01*
X115427255Y-53603152D02*
X115379636Y-53698390D01*
X115379636Y-53698390D02*
X115332017Y-53746009D01*
X115332017Y-53746009D02*
X115236779Y-53793628D01*
X115236779Y-53793628D02*
X114855827Y-53793628D01*
X100408207Y-70499580D02*
X100360588Y-70547200D01*
X100360588Y-70547200D02*
X100217731Y-70594819D01*
X100217731Y-70594819D02*
X100122493Y-70594819D01*
X100122493Y-70594819D02*
X99979636Y-70547200D01*
X99979636Y-70547200D02*
X99884398Y-70451961D01*
X99884398Y-70451961D02*
X99836779Y-70356723D01*
X99836779Y-70356723D02*
X99789160Y-70166247D01*
X99789160Y-70166247D02*
X99789160Y-70023390D01*
X99789160Y-70023390D02*
X99836779Y-69832914D01*
X99836779Y-69832914D02*
X99884398Y-69737676D01*
X99884398Y-69737676D02*
X99979636Y-69642438D01*
X99979636Y-69642438D02*
X100122493Y-69594819D01*
X100122493Y-69594819D02*
X100217731Y-69594819D01*
X100217731Y-69594819D02*
X100360588Y-69642438D01*
X100360588Y-69642438D02*
X100408207Y-69690057D01*
X100836779Y-70594819D02*
X100836779Y-69594819D01*
X100836779Y-70071009D02*
X101408207Y-70071009D01*
X101408207Y-70594819D02*
X101408207Y-69594819D01*
X101836779Y-70309104D02*
X102312969Y-70309104D01*
X101741541Y-70594819D02*
X102074874Y-69594819D01*
X102074874Y-69594819D02*
X102408207Y-70594819D01*
X102741541Y-70594819D02*
X102741541Y-69594819D01*
X102741541Y-69594819D02*
X103312969Y-70594819D01*
X103312969Y-70594819D02*
X103312969Y-69594819D01*
X103789160Y-70594819D02*
X103789160Y-69594819D01*
X103789160Y-69594819D02*
X104360588Y-70594819D01*
X104360588Y-70594819D02*
X104360588Y-69594819D01*
X104836779Y-70071009D02*
X105170112Y-70071009D01*
X105312969Y-70594819D02*
X104836779Y-70594819D01*
X104836779Y-70594819D02*
X104836779Y-69594819D01*
X104836779Y-69594819D02*
X105312969Y-69594819D01*
X106217731Y-70594819D02*
X105741541Y-70594819D01*
X105741541Y-70594819D02*
X105741541Y-69594819D01*
X107836779Y-70594819D02*
X107265351Y-70594819D01*
X107551065Y-70594819D02*
X107551065Y-69594819D01*
X107551065Y-69594819D02*
X107455827Y-69737676D01*
X107455827Y-69737676D02*
X107360589Y-69832914D01*
X107360589Y-69832914D02*
X107265351Y-69880533D01*
X149786779Y-62769819D02*
X149786779Y-63579342D01*
X149786779Y-63579342D02*
X149834398Y-63674580D01*
X149834398Y-63674580D02*
X149882017Y-63722200D01*
X149882017Y-63722200D02*
X149977255Y-63769819D01*
X149977255Y-63769819D02*
X150167731Y-63769819D01*
X150167731Y-63769819D02*
X150262969Y-63722200D01*
X150262969Y-63722200D02*
X150310588Y-63674580D01*
X150310588Y-63674580D02*
X150358207Y-63579342D01*
X150358207Y-63579342D02*
X150358207Y-62769819D01*
X150786779Y-63722200D02*
X150929636Y-63769819D01*
X150929636Y-63769819D02*
X151167731Y-63769819D01*
X151167731Y-63769819D02*
X151262969Y-63722200D01*
X151262969Y-63722200D02*
X151310588Y-63674580D01*
X151310588Y-63674580D02*
X151358207Y-63579342D01*
X151358207Y-63579342D02*
X151358207Y-63484104D01*
X151358207Y-63484104D02*
X151310588Y-63388866D01*
X151310588Y-63388866D02*
X151262969Y-63341247D01*
X151262969Y-63341247D02*
X151167731Y-63293628D01*
X151167731Y-63293628D02*
X150977255Y-63246009D01*
X150977255Y-63246009D02*
X150882017Y-63198390D01*
X150882017Y-63198390D02*
X150834398Y-63150771D01*
X150834398Y-63150771D02*
X150786779Y-63055533D01*
X150786779Y-63055533D02*
X150786779Y-62960295D01*
X150786779Y-62960295D02*
X150834398Y-62865057D01*
X150834398Y-62865057D02*
X150882017Y-62817438D01*
X150882017Y-62817438D02*
X150977255Y-62769819D01*
X150977255Y-62769819D02*
X151215350Y-62769819D01*
X151215350Y-62769819D02*
X151358207Y-62817438D01*
X151786779Y-63246009D02*
X152120112Y-63246009D01*
X152262969Y-63769819D02*
X151786779Y-63769819D01*
X151786779Y-63769819D02*
X151786779Y-62769819D01*
X151786779Y-62769819D02*
X152262969Y-62769819D01*
X153262969Y-63769819D02*
X152929636Y-63293628D01*
X152691541Y-63769819D02*
X152691541Y-62769819D01*
X152691541Y-62769819D02*
X153072493Y-62769819D01*
X153072493Y-62769819D02*
X153167731Y-62817438D01*
X153167731Y-62817438D02*
X153215350Y-62865057D01*
X153215350Y-62865057D02*
X153262969Y-62960295D01*
X153262969Y-62960295D02*
X153262969Y-63103152D01*
X153262969Y-63103152D02*
X153215350Y-63198390D01*
X153215350Y-63198390D02*
X153167731Y-63246009D01*
X153167731Y-63246009D02*
X153072493Y-63293628D01*
X153072493Y-63293628D02*
X152691541Y-63293628D01*
X154977255Y-63769819D02*
X154405827Y-63769819D01*
X154691541Y-63769819D02*
X154691541Y-62769819D01*
X154691541Y-62769819D02*
X154596303Y-62912676D01*
X154596303Y-62912676D02*
X154501065Y-63007914D01*
X154501065Y-63007914D02*
X154405827Y-63055533D01*
X91493922Y-89169819D02*
X92065350Y-89169819D01*
X91779636Y-90169819D02*
X91779636Y-89169819D01*
X92398684Y-90169819D02*
X92398684Y-89169819D01*
X92398684Y-89646009D02*
X92970112Y-89646009D01*
X92970112Y-90169819D02*
X92970112Y-89169819D01*
X93208208Y-90265057D02*
X93970112Y-90265057D01*
X94779636Y-90074580D02*
X94732017Y-90122200D01*
X94732017Y-90122200D02*
X94589160Y-90169819D01*
X94589160Y-90169819D02*
X94493922Y-90169819D01*
X94493922Y-90169819D02*
X94351065Y-90122200D01*
X94351065Y-90122200D02*
X94255827Y-90026961D01*
X94255827Y-90026961D02*
X94208208Y-89931723D01*
X94208208Y-89931723D02*
X94160589Y-89741247D01*
X94160589Y-89741247D02*
X94160589Y-89598390D01*
X94160589Y-89598390D02*
X94208208Y-89407914D01*
X94208208Y-89407914D02*
X94255827Y-89312676D01*
X94255827Y-89312676D02*
X94351065Y-89217438D01*
X94351065Y-89217438D02*
X94493922Y-89169819D01*
X94493922Y-89169819D02*
X94589160Y-89169819D01*
X94589160Y-89169819D02*
X94732017Y-89217438D01*
X94732017Y-89217438D02*
X94779636Y-89265057D01*
X95208208Y-90169819D02*
X95208208Y-89169819D01*
X95208208Y-89169819D02*
X95541541Y-89884104D01*
X95541541Y-89884104D02*
X95874874Y-89169819D01*
X95874874Y-89169819D02*
X95874874Y-90169819D01*
X96351065Y-90169819D02*
X96351065Y-89169819D01*
X96351065Y-89169819D02*
X96732017Y-89169819D01*
X96732017Y-89169819D02*
X96827255Y-89217438D01*
X96827255Y-89217438D02*
X96874874Y-89265057D01*
X96874874Y-89265057D02*
X96922493Y-89360295D01*
X96922493Y-89360295D02*
X96922493Y-89503152D01*
X96922493Y-89503152D02*
X96874874Y-89598390D01*
X96874874Y-89598390D02*
X96827255Y-89646009D01*
X96827255Y-89646009D02*
X96732017Y-89693628D01*
X96732017Y-89693628D02*
X96351065Y-89693628D01*
X91536779Y-81669819D02*
X91536779Y-82479342D01*
X91536779Y-82479342D02*
X91584398Y-82574580D01*
X91584398Y-82574580D02*
X91632017Y-82622200D01*
X91632017Y-82622200D02*
X91727255Y-82669819D01*
X91727255Y-82669819D02*
X91917731Y-82669819D01*
X91917731Y-82669819D02*
X92012969Y-82622200D01*
X92012969Y-82622200D02*
X92060588Y-82574580D01*
X92060588Y-82574580D02*
X92108207Y-82479342D01*
X92108207Y-82479342D02*
X92108207Y-81669819D01*
X92536779Y-82622200D02*
X92679636Y-82669819D01*
X92679636Y-82669819D02*
X92917731Y-82669819D01*
X92917731Y-82669819D02*
X93012969Y-82622200D01*
X93012969Y-82622200D02*
X93060588Y-82574580D01*
X93060588Y-82574580D02*
X93108207Y-82479342D01*
X93108207Y-82479342D02*
X93108207Y-82384104D01*
X93108207Y-82384104D02*
X93060588Y-82288866D01*
X93060588Y-82288866D02*
X93012969Y-82241247D01*
X93012969Y-82241247D02*
X92917731Y-82193628D01*
X92917731Y-82193628D02*
X92727255Y-82146009D01*
X92727255Y-82146009D02*
X92632017Y-82098390D01*
X92632017Y-82098390D02*
X92584398Y-82050771D01*
X92584398Y-82050771D02*
X92536779Y-81955533D01*
X92536779Y-81955533D02*
X92536779Y-81860295D01*
X92536779Y-81860295D02*
X92584398Y-81765057D01*
X92584398Y-81765057D02*
X92632017Y-81717438D01*
X92632017Y-81717438D02*
X92727255Y-81669819D01*
X92727255Y-81669819D02*
X92965350Y-81669819D01*
X92965350Y-81669819D02*
X93108207Y-81717438D01*
X93536779Y-82146009D02*
X93870112Y-82146009D01*
X94012969Y-82669819D02*
X93536779Y-82669819D01*
X93536779Y-82669819D02*
X93536779Y-81669819D01*
X93536779Y-81669819D02*
X94012969Y-81669819D01*
X95012969Y-82669819D02*
X94679636Y-82193628D01*
X94441541Y-82669819D02*
X94441541Y-81669819D01*
X94441541Y-81669819D02*
X94822493Y-81669819D01*
X94822493Y-81669819D02*
X94917731Y-81717438D01*
X94917731Y-81717438D02*
X94965350Y-81765057D01*
X94965350Y-81765057D02*
X95012969Y-81860295D01*
X95012969Y-81860295D02*
X95012969Y-82003152D01*
X95012969Y-82003152D02*
X94965350Y-82098390D01*
X94965350Y-82098390D02*
X94917731Y-82146009D01*
X94917731Y-82146009D02*
X94822493Y-82193628D01*
X94822493Y-82193628D02*
X94441541Y-82193628D01*
X95203446Y-82765057D02*
X95965350Y-82765057D01*
X96108208Y-81669819D02*
X96727255Y-81669819D01*
X96727255Y-81669819D02*
X96393922Y-82050771D01*
X96393922Y-82050771D02*
X96536779Y-82050771D01*
X96536779Y-82050771D02*
X96632017Y-82098390D01*
X96632017Y-82098390D02*
X96679636Y-82146009D01*
X96679636Y-82146009D02*
X96727255Y-82241247D01*
X96727255Y-82241247D02*
X96727255Y-82479342D01*
X96727255Y-82479342D02*
X96679636Y-82574580D01*
X96679636Y-82574580D02*
X96632017Y-82622200D01*
X96632017Y-82622200D02*
X96536779Y-82669819D01*
X96536779Y-82669819D02*
X96251065Y-82669819D01*
X96251065Y-82669819D02*
X96155827Y-82622200D01*
X96155827Y-82622200D02*
X96108208Y-82574580D01*
X109143922Y-67769819D02*
X109715350Y-67769819D01*
X109429636Y-68769819D02*
X109429636Y-67769819D01*
X110239160Y-67769819D02*
X110429636Y-67769819D01*
X110429636Y-67769819D02*
X110524874Y-67817438D01*
X110524874Y-67817438D02*
X110620112Y-67912676D01*
X110620112Y-67912676D02*
X110667731Y-68103152D01*
X110667731Y-68103152D02*
X110667731Y-68436485D01*
X110667731Y-68436485D02*
X110620112Y-68626961D01*
X110620112Y-68626961D02*
X110524874Y-68722200D01*
X110524874Y-68722200D02*
X110429636Y-68769819D01*
X110429636Y-68769819D02*
X110239160Y-68769819D01*
X110239160Y-68769819D02*
X110143922Y-68722200D01*
X110143922Y-68722200D02*
X110048684Y-68626961D01*
X110048684Y-68626961D02*
X110001065Y-68436485D01*
X110001065Y-68436485D02*
X110001065Y-68103152D01*
X110001065Y-68103152D02*
X110048684Y-67912676D01*
X110048684Y-67912676D02*
X110143922Y-67817438D01*
X110143922Y-67817438D02*
X110239160Y-67769819D01*
X110858208Y-68865057D02*
X111620112Y-68865057D01*
X111858208Y-68769819D02*
X111858208Y-67769819D01*
X112334398Y-68769819D02*
X112334398Y-67769819D01*
X112334398Y-67769819D02*
X112905826Y-68769819D01*
X112905826Y-68769819D02*
X112905826Y-67769819D01*
X113239160Y-67769819D02*
X113810588Y-67769819D01*
X113524874Y-68769819D02*
X113524874Y-67769819D01*
X113905827Y-68865057D02*
X114667731Y-68865057D01*
X114905827Y-68769819D02*
X114905827Y-67769819D01*
X114905827Y-67769819D02*
X115286779Y-67769819D01*
X115286779Y-67769819D02*
X115382017Y-67817438D01*
X115382017Y-67817438D02*
X115429636Y-67865057D01*
X115429636Y-67865057D02*
X115477255Y-67960295D01*
X115477255Y-67960295D02*
X115477255Y-68103152D01*
X115477255Y-68103152D02*
X115429636Y-68198390D01*
X115429636Y-68198390D02*
X115382017Y-68246009D01*
X115382017Y-68246009D02*
X115286779Y-68293628D01*
X115286779Y-68293628D02*
X114905827Y-68293628D01*
X91636779Y-100369819D02*
X91636779Y-99369819D01*
X91636779Y-99369819D02*
X92208207Y-100369819D01*
X92208207Y-100369819D02*
X92208207Y-99369819D01*
X93160588Y-99369819D02*
X92684398Y-99369819D01*
X92684398Y-99369819D02*
X92636779Y-99846009D01*
X92636779Y-99846009D02*
X92684398Y-99798390D01*
X92684398Y-99798390D02*
X92779636Y-99750771D01*
X92779636Y-99750771D02*
X93017731Y-99750771D01*
X93017731Y-99750771D02*
X93112969Y-99798390D01*
X93112969Y-99798390D02*
X93160588Y-99846009D01*
X93160588Y-99846009D02*
X93208207Y-99941247D01*
X93208207Y-99941247D02*
X93208207Y-100179342D01*
X93208207Y-100179342D02*
X93160588Y-100274580D01*
X93160588Y-100274580D02*
X93112969Y-100322200D01*
X93112969Y-100322200D02*
X93017731Y-100369819D01*
X93017731Y-100369819D02*
X92779636Y-100369819D01*
X92779636Y-100369819D02*
X92684398Y-100322200D01*
X92684398Y-100322200D02*
X92636779Y-100274580D01*
X109093922Y-58169819D02*
X109665350Y-58169819D01*
X109379636Y-59169819D02*
X109379636Y-58169819D01*
X110189160Y-58169819D02*
X110379636Y-58169819D01*
X110379636Y-58169819D02*
X110474874Y-58217438D01*
X110474874Y-58217438D02*
X110570112Y-58312676D01*
X110570112Y-58312676D02*
X110617731Y-58503152D01*
X110617731Y-58503152D02*
X110617731Y-58836485D01*
X110617731Y-58836485D02*
X110570112Y-59026961D01*
X110570112Y-59026961D02*
X110474874Y-59122200D01*
X110474874Y-59122200D02*
X110379636Y-59169819D01*
X110379636Y-59169819D02*
X110189160Y-59169819D01*
X110189160Y-59169819D02*
X110093922Y-59122200D01*
X110093922Y-59122200D02*
X109998684Y-59026961D01*
X109998684Y-59026961D02*
X109951065Y-58836485D01*
X109951065Y-58836485D02*
X109951065Y-58503152D01*
X109951065Y-58503152D02*
X109998684Y-58312676D01*
X109998684Y-58312676D02*
X110093922Y-58217438D01*
X110093922Y-58217438D02*
X110189160Y-58169819D01*
X110808208Y-59265057D02*
X111570112Y-59265057D01*
X111808208Y-59169819D02*
X111808208Y-58169819D01*
X112284398Y-59169819D02*
X112284398Y-58169819D01*
X112284398Y-58169819D02*
X112855826Y-59169819D01*
X112855826Y-59169819D02*
X112855826Y-58169819D01*
X113189160Y-58169819D02*
X113760588Y-58169819D01*
X113474874Y-59169819D02*
X113474874Y-58169819D01*
X113855827Y-59265057D02*
X114617731Y-59265057D01*
X114855827Y-59169819D02*
X114855827Y-58169819D01*
X114855827Y-58169819D02*
X115427255Y-59169819D01*
X115427255Y-59169819D02*
X115427255Y-58169819D01*
X152008207Y-70999580D02*
X151960588Y-71047200D01*
X151960588Y-71047200D02*
X151817731Y-71094819D01*
X151817731Y-71094819D02*
X151722493Y-71094819D01*
X151722493Y-71094819D02*
X151579636Y-71047200D01*
X151579636Y-71047200D02*
X151484398Y-70951961D01*
X151484398Y-70951961D02*
X151436779Y-70856723D01*
X151436779Y-70856723D02*
X151389160Y-70666247D01*
X151389160Y-70666247D02*
X151389160Y-70523390D01*
X151389160Y-70523390D02*
X151436779Y-70332914D01*
X151436779Y-70332914D02*
X151484398Y-70237676D01*
X151484398Y-70237676D02*
X151579636Y-70142438D01*
X151579636Y-70142438D02*
X151722493Y-70094819D01*
X151722493Y-70094819D02*
X151817731Y-70094819D01*
X151817731Y-70094819D02*
X151960588Y-70142438D01*
X151960588Y-70142438D02*
X152008207Y-70190057D01*
X152436779Y-71094819D02*
X152436779Y-70094819D01*
X152436779Y-70571009D02*
X153008207Y-70571009D01*
X153008207Y-71094819D02*
X153008207Y-70094819D01*
X153436779Y-70809104D02*
X153912969Y-70809104D01*
X153341541Y-71094819D02*
X153674874Y-70094819D01*
X153674874Y-70094819D02*
X154008207Y-71094819D01*
X154341541Y-71094819D02*
X154341541Y-70094819D01*
X154341541Y-70094819D02*
X154912969Y-71094819D01*
X154912969Y-71094819D02*
X154912969Y-70094819D01*
X155389160Y-71094819D02*
X155389160Y-70094819D01*
X155389160Y-70094819D02*
X155960588Y-71094819D01*
X155960588Y-71094819D02*
X155960588Y-70094819D01*
X156436779Y-70571009D02*
X156770112Y-70571009D01*
X156912969Y-71094819D02*
X156436779Y-71094819D01*
X156436779Y-71094819D02*
X156436779Y-70094819D01*
X156436779Y-70094819D02*
X156912969Y-70094819D01*
X157817731Y-71094819D02*
X157341541Y-71094819D01*
X157341541Y-71094819D02*
X157341541Y-70094819D01*
X159436779Y-71094819D02*
X158865351Y-71094819D01*
X159151065Y-71094819D02*
X159151065Y-70094819D01*
X159151065Y-70094819D02*
X159055827Y-70237676D01*
X159055827Y-70237676D02*
X158960589Y-70332914D01*
X158960589Y-70332914D02*
X158865351Y-70380533D01*
D11*
%TO.C,R4*%
X107927500Y-65308744D02*
X107927500Y-64834228D01*
X108972500Y-65308744D02*
X108972500Y-64834228D01*
D12*
%TO.C,J19*%
X103370400Y-66308257D02*
X103370400Y-67184715D01*
X104811771Y-68626086D02*
X105688229Y-68626086D01*
X105688229Y-64866886D02*
X104811771Y-64866886D01*
X107129600Y-67184715D02*
X107129600Y-66308257D01*
%TO.C,J9*%
X88800400Y-51401771D02*
X88800400Y-52278229D01*
X90241771Y-53719600D02*
X91118229Y-53719600D01*
X91118229Y-49960400D02*
X90241771Y-49960400D01*
X92559600Y-52278229D02*
X92559600Y-51401771D01*
%TO.C,J14*%
X88790400Y-63401771D02*
X88790400Y-64278229D01*
X90231771Y-65719600D02*
X91108229Y-65719600D01*
X91108229Y-61960400D02*
X90231771Y-61960400D01*
X92549600Y-64278229D02*
X92549600Y-63401771D01*
D11*
%TO.C,J8*%
X84720000Y-46300000D02*
X86050000Y-46300000D01*
X84720000Y-47630000D02*
X84720000Y-46300000D01*
X84720000Y-48900000D02*
X84720000Y-51500000D01*
X84720000Y-48900000D02*
X87380000Y-48900000D01*
X84720000Y-51500000D02*
X87380000Y-51500000D01*
X87380000Y-48900000D02*
X87380000Y-51500000D01*
%TO.C,J15*%
X87370000Y-63575000D02*
X86040000Y-63575000D01*
X87370000Y-62245000D02*
X87370000Y-63575000D01*
X87370000Y-60975000D02*
X87370000Y-58375000D01*
X87370000Y-60975000D02*
X84710000Y-60975000D01*
X87370000Y-58375000D02*
X84710000Y-58375000D01*
X84710000Y-60975000D02*
X84710000Y-58375000D01*
%TO.C,R2*%
X107897500Y-50862258D02*
X107897500Y-50387742D01*
X108942500Y-50862258D02*
X108942500Y-50387742D01*
%TO.C,J5*%
X99950000Y-46570000D02*
X101280000Y-46570000D01*
X99950000Y-47900000D02*
X99950000Y-46570000D01*
X99950000Y-49170000D02*
X99950000Y-51770000D01*
X99950000Y-49170000D02*
X102610000Y-49170000D01*
X99950000Y-51770000D02*
X102610000Y-51770000D01*
X102610000Y-49170000D02*
X102610000Y-51770000D01*
D12*
%TO.C,J7*%
X88800400Y-45431771D02*
X88800400Y-46308229D01*
X90241771Y-47749600D02*
X91118229Y-47749600D01*
X91118229Y-43990400D02*
X90241771Y-43990400D01*
X92559600Y-46308229D02*
X92559600Y-45431771D01*
D11*
%TO.C,J11*%
X90710000Y-100850000D02*
X89440000Y-100850000D01*
X90710000Y-99580000D02*
X90710000Y-100850000D01*
X88397071Y-97420000D02*
X87942929Y-97420000D01*
X88397071Y-96660000D02*
X87942929Y-96660000D01*
X88397071Y-94880000D02*
X87942929Y-94880000D01*
X88397071Y-94120000D02*
X87942929Y-94120000D01*
X88397071Y-92340000D02*
X87942929Y-92340000D01*
X88397071Y-91580000D02*
X87942929Y-91580000D01*
X88397071Y-89800000D02*
X87942929Y-89800000D01*
X88397071Y-89040000D02*
X87942929Y-89040000D01*
X88397071Y-87260000D02*
X87942929Y-87260000D01*
X88397071Y-86500000D02*
X87942929Y-86500000D01*
X88397071Y-84720000D02*
X87942929Y-84720000D01*
X88397071Y-83960000D02*
X87942929Y-83960000D01*
X88397071Y-82180000D02*
X87942929Y-82180000D01*
X88397071Y-81420000D02*
X87942929Y-81420000D01*
X88397071Y-79640000D02*
X87942929Y-79640000D01*
X88397071Y-78880000D02*
X87942929Y-78880000D01*
X88397071Y-77100000D02*
X87942929Y-77100000D01*
X88397071Y-76340000D02*
X87942929Y-76340000D01*
X88397071Y-74560000D02*
X87942929Y-74560000D01*
X88397071Y-73800000D02*
X87942929Y-73800000D01*
X88397071Y-72020000D02*
X87942929Y-72020000D01*
X88397071Y-71260000D02*
X87942929Y-71260000D01*
X88397071Y-69480000D02*
X87942929Y-69480000D01*
X88397071Y-68720000D02*
X87942929Y-68720000D01*
X88330000Y-99960000D02*
X87942929Y-99960000D01*
X88330000Y-99200000D02*
X87942929Y-99200000D01*
X85857071Y-99960000D02*
X85460000Y-99960000D01*
X85857071Y-99200000D02*
X85460000Y-99200000D01*
X85857071Y-97420000D02*
X85460000Y-97420000D01*
X85857071Y-96660000D02*
X85460000Y-96660000D01*
X85857071Y-94880000D02*
X85460000Y-94880000D01*
X85857071Y-94120000D02*
X85460000Y-94120000D01*
X85857071Y-92340000D02*
X85460000Y-92340000D01*
X85857071Y-91580000D02*
X85460000Y-91580000D01*
X85857071Y-89800000D02*
X85460000Y-89800000D01*
X85857071Y-89040000D02*
X85460000Y-89040000D01*
X85857071Y-87260000D02*
X85460000Y-87260000D01*
X85857071Y-86500000D02*
X85460000Y-86500000D01*
X85857071Y-84720000D02*
X85460000Y-84720000D01*
X85857071Y-83960000D02*
X85460000Y-83960000D01*
X85857071Y-82180000D02*
X85460000Y-82180000D01*
X85857071Y-81420000D02*
X85460000Y-81420000D01*
X85857071Y-79640000D02*
X85460000Y-79640000D01*
X85857071Y-78880000D02*
X85460000Y-78880000D01*
X85857071Y-77100000D02*
X85460000Y-77100000D01*
X85857071Y-76340000D02*
X85460000Y-76340000D01*
X85857071Y-74560000D02*
X85460000Y-74560000D01*
X85857071Y-73800000D02*
X85460000Y-73800000D01*
X85857071Y-72020000D02*
X85460000Y-72020000D01*
X85857071Y-71260000D02*
X85460000Y-71260000D01*
X85857071Y-69480000D02*
X85460000Y-69480000D01*
X85857071Y-68720000D02*
X85460000Y-68720000D01*
X85460000Y-100910000D02*
X85460000Y-67770000D01*
X85460000Y-98310000D02*
X82800000Y-98310000D01*
X85460000Y-95770000D02*
X82800000Y-95770000D01*
X85460000Y-93230000D02*
X82800000Y-93230000D01*
X85460000Y-90690000D02*
X82800000Y-90690000D01*
X85460000Y-88150000D02*
X82800000Y-88150000D01*
X85460000Y-85610000D02*
X82800000Y-85610000D01*
X85460000Y-83070000D02*
X82800000Y-83070000D01*
X85460000Y-80530000D02*
X82800000Y-80530000D01*
X85460000Y-77990000D02*
X82800000Y-77990000D01*
X85460000Y-75450000D02*
X82800000Y-75450000D01*
X85460000Y-72910000D02*
X82800000Y-72910000D01*
X85460000Y-70370000D02*
X82800000Y-70370000D01*
X85460000Y-67770000D02*
X82800000Y-67770000D01*
X82800000Y-100910000D02*
X85460000Y-100910000D01*
X82800000Y-99960000D02*
X76800000Y-99960000D01*
X82800000Y-99900000D02*
X76800000Y-99900000D01*
X82800000Y-99780000D02*
X76800000Y-99780000D01*
X82800000Y-99660000D02*
X76800000Y-99660000D01*
X82800000Y-99540000D02*
X76800000Y-99540000D01*
X82800000Y-99420000D02*
X76800000Y-99420000D01*
X82800000Y-99300000D02*
X76800000Y-99300000D01*
X82800000Y-97420000D02*
X76800000Y-97420000D01*
X82800000Y-94880000D02*
X76800000Y-94880000D01*
X82800000Y-92340000D02*
X76800000Y-92340000D01*
X82800000Y-89800000D02*
X76800000Y-89800000D01*
X82800000Y-87260000D02*
X76800000Y-87260000D01*
X82800000Y-84720000D02*
X76800000Y-84720000D01*
X82800000Y-82180000D02*
X76800000Y-82180000D01*
X82800000Y-79640000D02*
X76800000Y-79640000D01*
X82800000Y-77100000D02*
X76800000Y-77100000D01*
X82800000Y-74560000D02*
X76800000Y-74560000D01*
X82800000Y-72020000D02*
X76800000Y-72020000D01*
X82800000Y-69480000D02*
X76800000Y-69480000D01*
X82800000Y-67770000D02*
X82800000Y-100910000D01*
X76800000Y-99960000D02*
X76800000Y-99200000D01*
X76800000Y-99200000D02*
X82800000Y-99200000D01*
X76800000Y-97420000D02*
X76800000Y-96660000D01*
X76800000Y-96660000D02*
X82800000Y-96660000D01*
X76800000Y-94880000D02*
X76800000Y-94120000D01*
X76800000Y-94120000D02*
X82800000Y-94120000D01*
X76800000Y-92340000D02*
X76800000Y-91580000D01*
X76800000Y-91580000D02*
X82800000Y-91580000D01*
X76800000Y-89800000D02*
X76800000Y-89040000D01*
X76800000Y-89040000D02*
X82800000Y-89040000D01*
X76800000Y-87260000D02*
X76800000Y-86500000D01*
X76800000Y-86500000D02*
X82800000Y-86500000D01*
X76800000Y-84720000D02*
X76800000Y-83960000D01*
X76800000Y-83960000D02*
X82800000Y-83960000D01*
X76800000Y-82180000D02*
X76800000Y-81420000D01*
X76800000Y-81420000D02*
X82800000Y-81420000D01*
X76800000Y-79640000D02*
X76800000Y-78880000D01*
X76800000Y-78880000D02*
X82800000Y-78880000D01*
X76800000Y-77100000D02*
X76800000Y-76340000D01*
X76800000Y-76340000D02*
X82800000Y-76340000D01*
X76800000Y-74560000D02*
X76800000Y-73800000D01*
X76800000Y-73800000D02*
X82800000Y-73800000D01*
X76800000Y-72020000D02*
X76800000Y-71260000D01*
X76800000Y-71260000D02*
X82800000Y-71260000D01*
X76800000Y-69480000D02*
X76800000Y-68720000D01*
X76800000Y-68720000D02*
X82800000Y-68720000D01*
%TO.C,J18*%
X99820000Y-61016486D02*
X101150000Y-61016486D01*
X99820000Y-62346486D02*
X99820000Y-61016486D01*
X99820000Y-63616486D02*
X99820000Y-66216486D01*
X99820000Y-63616486D02*
X102480000Y-63616486D01*
X99820000Y-66216486D02*
X102480000Y-66216486D01*
X102480000Y-63616486D02*
X102480000Y-66216486D01*
D12*
%TO.C,J16*%
X88790400Y-57431771D02*
X88790400Y-58308229D01*
X90231771Y-59749600D02*
X91108229Y-59749600D01*
X91108229Y-55990400D02*
X90231771Y-55990400D01*
X92549600Y-58308229D02*
X92549600Y-57431771D01*
%TO.C,J6*%
X105818229Y-50390400D02*
X104941771Y-50390400D01*
X103500400Y-51831771D02*
X103500400Y-52708229D01*
X107259600Y-52708229D02*
X107259600Y-51831771D01*
X104941771Y-54149600D02*
X105818229Y-54149600D01*
D11*
%TO.C,J10*%
X105400000Y-77100000D02*
G75*
G03*
X105400000Y-77100000I-1700000J0D01*
G01*
%TO.C,J20*%
X113200000Y-77100000D02*
G75*
G03*
X113200000Y-77100000I-1700000J0D01*
G01*
%TO.C,R3*%
X107927500Y-62258744D02*
X107927500Y-61784228D01*
X108972500Y-62258744D02*
X108972500Y-61784228D01*
%TO.C,R1*%
X107897500Y-47812258D02*
X107897500Y-47337742D01*
X108942500Y-47812258D02*
X108942500Y-47337742D01*
D12*
%TO.C,J4*%
X105818229Y-43950400D02*
X104941771Y-43950400D01*
X103500400Y-45391771D02*
X103500400Y-46268229D01*
X107259600Y-46268229D02*
X107259600Y-45391771D01*
X104941771Y-47709600D02*
X105818229Y-47709600D01*
%TO.C,J17*%
X103400400Y-59808257D02*
X103400400Y-60684715D01*
X104841771Y-62126086D02*
X105718229Y-62126086D01*
X105718229Y-58366886D02*
X104841771Y-58366886D01*
X107159600Y-60684715D02*
X107159600Y-59808257D01*
%TD*%
M02*
