M48
; DRILL file {KiCad 7.0.9} date Fri Jul 19 10:23:08 2024
; FORMAT={-:-/ absolute / metric / decimal}
; #@! TF.CreationDate,2024-07-19T10:23:08+02:00
; #@! TF.GenerationSoftware,Kicad,Pcbnew,7.0.9
; #@! TF.FileFunction,Plated,1,2,PTH
FMAT,2
METRIC
; #@! TA.AperFunction,Plated,PTH,ViaDrill
T1C0.500
; #@! TA.AperFunction,Plated,PTH,ComponentDrill
T2C0.889
; #@! TA.AperFunction,Plated,PTH,ComponentDrill
T3C1.000
; #@! TA.AperFunction,Plated,PTH,ComponentDrill
T4C1.600
; #@! TA.AperFunction,Plated,PTH,ComponentDrill
T5C2.200
%
G90
G05
T1
X111.76Y-91.44
X121.92Y-60.96
X121.92Y-91.44
X137.16Y-45.72
X143.8Y-87.4
X147.32Y-45.72
X147.32Y-60.96
X150.0Y-81.8
X152.4Y-50.8
X157.48Y-45.72
X157.48Y-60.96
X157.48Y-91.44
X162.56Y-50.8
X162.56Y-81.28
X167.64Y-45.72
X167.64Y-60.96
X167.64Y-76.2
X167.64Y-86.36
X172.72Y-81.28
X177.8Y-86.36
X182.88Y-81.28
X182.88Y-91.44
X187.96Y-55.88
X200.0Y-60.0
X200.0Y-80.0
X205.0Y-70.0
X205.0Y-90.0
X210.4Y-45.5
T2
X89.4Y-56.6
X89.4Y-59.14
X89.4Y-62.57
X89.4Y-65.11
X89.41Y-44.6
X89.41Y-47.14
X89.41Y-50.57
X89.41Y-53.11
X90.67Y-57.87
X90.67Y-63.84
X90.68Y-45.87
X90.68Y-51.84
X91.94Y-56.6
X91.94Y-59.14
X91.94Y-62.57
X91.94Y-65.11
X91.95Y-44.6
X91.95Y-47.14
X91.95Y-50.57
X91.95Y-53.11
X103.98Y-65.476
X103.98Y-68.016
X104.01Y-58.976
X104.01Y-61.516
X104.11Y-44.56
X104.11Y-47.1
X104.11Y-51.0
X104.11Y-53.54
X105.25Y-66.746
X105.28Y-60.246
X105.38Y-45.83
X105.38Y-52.27
X106.52Y-65.476
X106.52Y-68.016
X106.55Y-58.976
X106.55Y-61.516
X106.65Y-44.56
X106.65Y-47.1
X106.65Y-51.0
X106.65Y-53.54
T3
X86.04Y-59.705
X86.04Y-62.245
X86.05Y-47.63
X86.05Y-50.17
X86.9Y-69.1
X86.9Y-71.64
X86.9Y-74.18
X86.9Y-76.72
X86.9Y-79.26
X86.9Y-81.8
X86.9Y-84.34
X86.9Y-86.88
X86.9Y-89.42
X86.9Y-91.96
X86.9Y-94.5
X86.9Y-97.04
X86.9Y-99.58
X89.44Y-69.1
X89.44Y-71.64
X89.44Y-74.18
X89.44Y-76.72
X89.44Y-79.26
X89.44Y-81.8
X89.44Y-84.34
X89.44Y-86.88
X89.44Y-89.42
X89.44Y-91.96
X89.44Y-94.5
X89.44Y-97.04
X89.44Y-99.58
X101.15Y-62.346
X101.15Y-64.886
X101.28Y-47.9
X101.28Y-50.44
X121.2Y-50.8
X121.22Y-80.8
X123.74Y-50.8
X123.76Y-80.8
X126.28Y-50.8
X126.3Y-80.8
X143.56Y-70.735
X143.56Y-73.275
X146.1Y-70.735
X146.1Y-73.275
X148.64Y-70.735
X148.64Y-73.275
X162.02Y-69.8
X162.02Y-99.8
X164.56Y-69.8
X164.56Y-99.8
X167.1Y-69.8
X167.1Y-99.8
X169.64Y-69.8
X169.64Y-99.8
X172.18Y-69.8
X172.18Y-99.8
X174.72Y-69.8
X174.72Y-99.8
X176.8Y-43.6
X176.8Y-73.6
X177.26Y-69.8
X177.26Y-99.8
X179.34Y-43.6
X179.34Y-73.6
X179.8Y-69.8
X179.8Y-99.8
X181.88Y-43.6
X181.88Y-73.6
X184.42Y-43.6
X184.42Y-73.6
X186.96Y-43.6
X186.96Y-73.6
X189.5Y-43.6
X189.5Y-73.6
X192.04Y-43.6
X192.04Y-73.6
X210.3Y-81.8
X210.3Y-84.34
X210.3Y-86.88
X210.3Y-89.42
X210.3Y-91.96
X210.3Y-94.5
X210.3Y-97.04
X210.3Y-99.58
T4
X103.7Y-77.1
X111.5Y-77.1
T5
X120.3Y-71.8
X136.1Y-50.0
X136.1Y-62.5
X136.1Y-80.0
X136.1Y-92.5
X193.3Y-50.0
X193.3Y-62.5
X193.3Y-80.0
X193.3Y-92.5
X210.3Y-71.8
T0
M30
